<?xml version="1.0" encoding="UTF-8" standalone="no"?>
<svg
   width="720pt"
   height="360pt"
   viewBox="0 0 720 360"
   version="1.1"
   id="svg140"
   sodipodi:docname="comb_filter.svg"
   inkscape:export-filename="images/comb_filter_spectrum.png"
   inkscape:export-xdpi="80"
   inkscape:export-ydpi="80"
   inkscape:version="1.3.2 (091e20ef0f, 2023-11-25, custom)"
   xmlns:inkscape="http://www.inkscape.org/namespaces/inkscape"
   xmlns:sodipodi="http://sodipodi.sourceforge.net/DTD/sodipodi-0.dtd"
   xmlns:xlink="http://www.w3.org/1999/xlink"
   xmlns="http://www.w3.org/2000/svg"
   xmlns:svg="http://www.w3.org/2000/svg"
   xmlns:rdf="http://www.w3.org/1999/02/22-rdf-syntax-ns#"
   xmlns:cc="http://creativecommons.org/ns#"
   xmlns:dc="http://purl.org/dc/elements/1.1/">
  <sodipodi:namedview
     id="namedview140"
     pagecolor="#505050"
     bordercolor="#eeeeee"
     borderopacity="1"
     inkscape:showpageshadow="0"
     inkscape:pageopacity="0"
     inkscape:pagecheckerboard="0"
     inkscape:deskcolor="#d1d1d1"
     inkscape:document-units="pt"
     showgrid="false"
     inkscape:zoom="1.8701501"
     inkscape:cx="464.93594"
     inkscape:cy="199.98395"
     inkscape:window-width="1892"
     inkscape:window-height="2092"
     inkscape:window-x="0"
     inkscape:window-y="0"
     inkscape:window-maximized="0"
     inkscape:current-layer="svg140" />
  <metadata
     id="metadata1">
    <rdf:RDF>
      <cc:Work>
        <dc:type
           rdf:resource="http://purl.org/dc/dcmitype/StillImage" />
        <dc:date>2024-03-10T16:37:44.826206</dc:date>
        <dc:format>image/svg+xml</dc:format>
        <dc:creator>
          <cc:Agent>
            <dc:title>Matplotlib v3.8.3, https://matplotlib.org/</dc:title>
          </cc:Agent>
        </dc:creator>
      </cc:Work>
    </rdf:RDF>
  </metadata>
  <defs
     id="defs1">
    <style
       type="text/css"
       id="style1">*{stroke-linejoin: round; stroke-linecap: butt}</style>
  </defs>
  <g
     id="patch_1">
    <path
       d="M 0,360 H 720 V 0 H 0 Z"
       style="fill:#ffffff"
       id="path1" />
  </g>
  <g
     id="axes_1">
    <g
       id="patch_2">
      <path
         d="M 72.04,295.115 H 691.49285 V 17.64 H 72.04 Z"
         style="fill:#ffffff"
         id="path2" />
    </g>
    <g
       id="matplotlib.axis_1">
      <g
         id="xtick_1">
        <g
           id="line2d_1">
          <defs
             id="defs2">
            <path
               id="mb72140d28d"
               d="M 0,0 V 10"
               style="stroke:#000000;stroke-width:2" />
          </defs>
          <g
             id="g2">
            <use
               xlink:href="#mb72140d28d"
               x="72.040001"
               y="295.11499"
               style="stroke:#000000;stroke-width:2"
               id="use2" />
          </g>
        </g>
        <g
           id="text_1">
          <!-- 0$\pi$ -->
          <g
             transform="matrix(0.18,0,0,-0.18,60.88,322.29219)"
             id="g4">
            <defs
               id="defs3">
              <path
                 id="DejaVuSans-30"
                 d="m 2034,4250 q -487,0 -733,-480 -245,-479 -245,-1442 0,-959 245,-1439 246,-480 733,-480 491,0 736,480 246,480 246,1439 0,963 -246,1442 -245,480 -736,480 z m 0,500 q 785,0 1199,-621 414,-620 414,-1801 0,-1178 -414,-1799 -414,-620 -1199,-620 -784,0 -1198,620 -414,621 -414,1799 0,1181 414,1801 414,621 1198,621 z"
                 transform="scale(0.015625)" />
              <path
                 id="DejaVuSans-Oblique-3c0"
                 d="M 584,3500 H 3938 L 3825,2925 H 3384 L 2966,775 q -44,-225 15,-325 57,-97 228,-97 47,0 116,10 72,6 94,9 l -81,-416 q -116,-40 -235,-59 -122,-19 -237,-19 -375,0 -478,203 -104,207 3,757 l 406,2087 H 1506 L 938,0 H 350 L 919,2925 H 472 Z"
                 transform="scale(0.015625)" />
            </defs>
            <use
               xlink:href="#DejaVuSans-30"
               transform="translate(0,0.78125)"
               id="use3" />
            <use
               xlink:href="#DejaVuSans-Oblique-3c0"
               transform="translate(63.623047,0.78125)"
               id="use4" />
          </g>
        </g>
      </g>
      <g
         id="xtick_2">
        <g
           id="line2d_2">
          <g
             id="g5">
            <use
               xlink:href="#mb72140d28d"
               x="133.98529"
               y="295.11499"
               style="stroke:#000000;stroke-width:2"
               id="use5" />
          </g>
        </g>
        <g
           id="text_2">
          <!-- 1$\pi$ -->
          <g
             transform="matrix(0.18,0,0,-0.18,122.82528,322.29219)"
             id="g7">
            <defs
               id="defs5">
              <path
                 id="DejaVuSans-31"
                 d="M 794,531 H 1825 V 4091 L 703,3866 v 575 l 1116,225 h 631 V 531 H 3481 V 0 H 794 Z"
                 transform="scale(0.015625)" />
            </defs>
            <use
               xlink:href="#DejaVuSans-31"
               transform="translate(0,0.09375)"
               id="use6" />
            <use
               xlink:href="#DejaVuSans-Oblique-3c0"
               transform="translate(63.623047,0.09375)"
               id="use7" />
          </g>
        </g>
      </g>
      <g
         id="xtick_3">
        <g
           id="line2d_3">
          <g
             id="g8">
            <use
               xlink:href="#mb72140d28d"
               x="195.93057"
               y="295.11499"
               style="stroke:#000000;stroke-width:2"
               id="use8" />
          </g>
        </g>
        <g
           id="text_3">
          <!-- 2$\pi$ -->
          <g
             transform="matrix(0.18,0,0,-0.18,184.77057,322.29219)"
             id="g10">
            <defs
               id="defs8">
              <path
                 id="DejaVuSans-32"
                 d="M 1228,531 H 3431 V 0 H 469 v 531 q 359,372 979,998 621,627 780,809 303,340 423,576 121,236 121,464 0,372 -261,606 -261,235 -680,235 -297,0 -627,-103 -329,-103 -704,-313 v 638 q 381,153 712,231 332,78 607,78 725,0 1156,-363 431,-362 431,-968 0,-288 -108,-546 -107,-257 -392,-607 -78,-91 -497,-524 Q 1991,1309 1228,531 Z"
                 transform="scale(0.015625)" />
            </defs>
            <use
               xlink:href="#DejaVuSans-32"
               transform="translate(0,0.78125)"
               id="use9" />
            <use
               xlink:href="#DejaVuSans-Oblique-3c0"
               transform="translate(63.623047,0.78125)"
               id="use10" />
          </g>
        </g>
      </g>
      <g
         id="xtick_4">
        <g
           id="line2d_4">
          <g
             id="g11">
            <use
               xlink:href="#mb72140d28d"
               x="257.87585"
               y="295.11499"
               style="stroke:#000000;stroke-width:2"
               id="use11" />
          </g>
        </g>
        <g
           id="text_4">
          <!-- 3$\pi$ -->
          <g
             transform="matrix(0.18,0,0,-0.18,246.71585,322.29219)"
             id="g13">
            <defs
               id="defs11">
              <path
                 id="DejaVuSans-33"
                 d="m 2597,2516 q 453,-97 707,-404 255,-306 255,-756 0,-690 -475,-1069 -475,-378 -1350,-378 -293,0 -604,58 -311,58 -642,174 v 609 q 262,-153 574,-231 313,-78 654,-78 593,0 904,234 311,234 311,681 0,413 -289,645 -289,233 -804,233 h -544 v 519 h 569 q 465,0 712,186 247,186 247,536 0,359 -255,551 -254,193 -729,193 -260,0 -557,-57 -297,-56 -653,-174 v 562 q 360,100 674,150 314,50 592,50 719,0 1137,-327 419,-326 419,-882 0,-388 -222,-655 -222,-267 -631,-370 z"
                 transform="scale(0.015625)" />
            </defs>
            <use
               xlink:href="#DejaVuSans-33"
               transform="translate(0,0.78125)"
               id="use12" />
            <use
               xlink:href="#DejaVuSans-Oblique-3c0"
               transform="translate(63.623047,0.78125)"
               id="use13" />
          </g>
        </g>
      </g>
      <g
         id="xtick_5">
        <g
           id="line2d_5">
          <g
             id="g14">
            <use
               xlink:href="#mb72140d28d"
               x="319.82114"
               y="295.11499"
               style="stroke:#000000;stroke-width:2"
               id="use14" />
          </g>
        </g>
        <g
           id="text_5">
          <!-- 4$\pi$ -->
          <g
             transform="matrix(0.18,0,0,-0.18,308.66114,322.29219)"
             id="g16">
            <defs
               id="defs14">
              <path
                 id="DejaVuSans-34"
                 d="M 2419,4116 825,1625 h 1594 z m -166,550 h 794 V 1625 h 666 V 1100 H 3047 V 0 H 2419 V 1100 H 313 v 609 z"
                 transform="scale(0.015625)" />
            </defs>
            <use
               xlink:href="#DejaVuSans-34"
               transform="translate(0,0.09375)"
               id="use15" />
            <use
               xlink:href="#DejaVuSans-Oblique-3c0"
               transform="translate(63.623047,0.09375)"
               id="use16" />
          </g>
        </g>
      </g>
      <g
         id="xtick_6">
        <g
           id="line2d_6">
          <g
             id="g17">
            <use
               xlink:href="#mb72140d28d"
               x="381.76642"
               y="295.11499"
               style="stroke:#000000;stroke-width:2"
               id="use17" />
          </g>
        </g>
        <g
           id="text_6">
          <!-- 5$\pi$ -->
          <g
             transform="matrix(0.18,0,0,-0.18,370.60643,322.29219)"
             id="g19">
            <defs
               id="defs17">
              <path
                 id="DejaVuSans-35"
                 d="M 691,4666 H 3169 V 4134 H 1269 V 2991 q 137,47 274,70 138,23 276,23 781,0 1237,-428 457,-428 457,-1159 Q 3513,744 3044,326 2575,-91 1722,-91 1428,-91 1123,-41 819,9 494,109 v 635 q 281,-153 581,-228 300,-75 634,-75 541,0 856,284 316,284 316,772 0,487 -316,771 -315,285 -856,285 -253,0 -505,-56 -251,-56 -513,-175 z"
                 transform="scale(0.015625)" />
            </defs>
            <use
               xlink:href="#DejaVuSans-35"
               transform="translate(0,0.09375)"
               id="use18" />
            <use
               xlink:href="#DejaVuSans-Oblique-3c0"
               transform="translate(63.623047,0.09375)"
               id="use19" />
          </g>
        </g>
      </g>
      <g
         id="xtick_7">
        <g
           id="line2d_7">
          <g
             id="g20">
            <use
               xlink:href="#mb72140d28d"
               x="443.7117"
               y="295.11499"
               style="stroke:#000000;stroke-width:2"
               id="use20" />
          </g>
        </g>
        <g
           id="text_7">
          <!-- 6$\pi$ -->
          <g
             transform="matrix(0.18,0,0,-0.18,432.55171,322.29219)"
             id="g22">
            <defs
               id="defs20">
              <path
                 id="DejaVuSans-36"
                 d="m 2113,2584 q -425,0 -674,-291 -248,-290 -248,-796 0,-503 248,-796 249,-292 674,-292 425,0 673,292 248,293 248,796 0,506 -248,796 -248,291 -673,291 z m 1253,1979 v -575 q -238,112 -480,171 -242,60 -480,60 -625,0 -955,-422 -329,-422 -376,-1275 184,272 462,417 279,145 613,145 703,0 1111,-427 408,-426 408,-1160 0,-719 -425,-1154 -425,-434 -1131,-434 -810,0 -1238,620 -428,621 -428,1799 0,1106 525,1764 525,658 1409,658 238,0 480,-47 242,-47 505,-140 z"
                 transform="scale(0.015625)" />
            </defs>
            <use
               xlink:href="#DejaVuSans-36"
               transform="translate(0,0.78125)"
               id="use21" />
            <use
               xlink:href="#DejaVuSans-Oblique-3c0"
               transform="translate(63.623047,0.78125)"
               id="use22" />
          </g>
        </g>
      </g>
      <g
         id="xtick_8">
        <g
           id="line2d_8">
          <g
             id="g23">
            <use
               xlink:href="#mb72140d28d"
               x="505.65698"
               y="295.11499"
               style="stroke:#000000;stroke-width:2"
               id="use23" />
          </g>
        </g>
        <g
           id="text_8">
          <!-- 7$\pi$ -->
          <g
             transform="matrix(0.18,0,0,-0.18,494.497,322.29219)"
             id="g25">
            <defs
               id="defs23">
              <path
                 id="DejaVuSans-37"
                 d="M 525,4666 H 3525 V 4397 L 1831,0 H 1172 L 2766,4134 H 525 Z"
                 transform="scale(0.015625)" />
            </defs>
            <use
               xlink:href="#DejaVuSans-37"
               transform="translate(0,0.09375)"
               id="use24" />
            <use
               xlink:href="#DejaVuSans-Oblique-3c0"
               transform="translate(63.623047,0.09375)"
               id="use25" />
          </g>
        </g>
      </g>
      <g
         id="xtick_9">
        <g
           id="line2d_9">
          <g
             id="g26">
            <use
               xlink:href="#mb72140d28d"
               x="567.60229"
               y="295.11499"
               style="stroke:#000000;stroke-width:2"
               id="use26" />
          </g>
        </g>
        <g
           id="text_9">
          <!-- 8$\pi$ -->
          <g
             transform="matrix(0.18,0,0,-0.18,556.44228,322.29219)"
             id="g28">
            <defs
               id="defs26">
              <path
                 id="DejaVuSans-38"
                 d="m 2034,2216 q -450,0 -708,-241 -257,-241 -257,-662 0,-422 257,-663 258,-241 708,-241 450,0 709,242 260,243 260,662 0,421 -258,662 -257,241 -711,241 z m -631,268 q -406,100 -633,378 -226,279 -226,679 0,559 398,884 399,325 1092,325 697,0 1094,-325 397,-325 397,-884 0,-400 -227,-679 -226,-278 -629,-378 456,-106 710,-416 255,-309 255,-755 Q 3634,634 3220,271 2806,-91 2034,-91 1263,-91 848,271 434,634 434,1313 q 0,446 256,755 257,310 713,416 z m -231,997 q 0,-362 226,-565 227,-203 636,-203 407,0 636,203 230,203 230,565 0,363 -230,566 -229,203 -636,203 -409,0 -636,-203 -226,-203 -226,-566 z"
                 transform="scale(0.015625)" />
            </defs>
            <use
               xlink:href="#DejaVuSans-38"
               transform="translate(0,0.78125)"
               id="use27" />
            <use
               xlink:href="#DejaVuSans-Oblique-3c0"
               transform="translate(63.623047,0.78125)"
               id="use28" />
          </g>
        </g>
      </g>
      <g
         id="xtick_10">
        <g
           id="line2d_10">
          <g
             id="g29">
            <use
               xlink:href="#mb72140d28d"
               x="629.54755"
               y="295.11499"
               style="stroke:#000000;stroke-width:2"
               id="use29" />
          </g>
        </g>
        <g
           id="text_10">
          <!-- 9$\pi$ -->
          <g
             transform="matrix(0.18,0,0,-0.18,618.38757,322.29219)"
             id="g31">
            <defs
               id="defs29">
              <path
                 id="DejaVuSans-39"
                 d="m 703,97 v 575 q 238,-113 481,-172 244,-59 479,-59 625,0 954,420 330,420 377,1277 -181,-269 -460,-413 -278,-144 -615,-144 -700,0 -1108,423 -408,424 -408,1159 0,718 425,1152 425,435 1131,435 810,0 1236,-621 427,-620 427,-1801 Q 3622,1225 3098,567 2575,-91 1691,-91 1453,-91 1209,-44 966,3 703,97 Z m 1256,1978 q 425,0 673,290 249,291 249,798 0,503 -249,795 -248,292 -673,292 -425,0 -673,-292 -248,-292 -248,-795 0,-507 248,-798 248,-290 673,-290 z"
                 transform="scale(0.015625)" />
            </defs>
            <use
               xlink:href="#DejaVuSans-39"
               transform="translate(0,0.78125)"
               id="use30" />
            <use
               xlink:href="#DejaVuSans-Oblique-3c0"
               transform="translate(63.623047,0.78125)"
               id="use31" />
          </g>
        </g>
      </g>
      <g
         id="xtick_11">
        <g
           id="line2d_11">
          <g
             id="g32">
            <use
               xlink:href="#mb72140d28d"
               x="691.49286"
               y="295.11499"
               style="stroke:#000000;stroke-width:2"
               id="use32" />
          </g>
        </g>
        <g
           id="text_11">
          <!-- 10$\pi$ -->
          <g
             transform="matrix(0.18,0,0,-0.18,674.57285,322.29219)"
             id="g35">
            <use
               xlink:href="#DejaVuSans-31"
               transform="translate(0,0.78125)"
               id="use33" />
            <use
               xlink:href="#DejaVuSans-30"
               transform="translate(63.623047,0.78125)"
               id="use34" />
            <use
               xlink:href="#DejaVuSans-Oblique-3c0"
               transform="translate(127.24609,0.78125)"
               id="use35" />
          </g>
        </g>
      </g>
      <g
         id="text_12">
        <!-- $\omega \tau$ [rad/s] -->
        <g
           transform="matrix(0.1728,0,0,-0.1728,338.04803,343.16572)"
           id="g45">
          <defs
             id="defs35">
            <path
               id="DejaVuSans-Oblique-3c9"
               d="m 1369,-91 q -1297,0 -935,1857 141,734 822,1734 h 619 Q 1231,2500 1088,1750 819,397 1519,397 q 647,0 959,1681 h 531 Q 2669,388 3316,397 q 697,6 959,1353 144,750 -106,1750 h 619 Q 5075,2500 4934,1766 4578,-94 3278,-91 2428,-88 2503,844 2194,-91 1369,-91 Z"
               transform="scale(0.015625)" />
            <path
               id="DejaVuSans-Oblique-3c4"
               d="m 2103,638 q 85,-150 422,-150 h 275 L 2706,0 h -343 q -563,0 -763,300 -197,306 -66,969 l 322,1656 H 541 l 112,575 H 3881 L 3769,2925 H 2444 L 2113,1234 q -88,-453 -10,-596 z"
               transform="scale(0.015625)" />
            <path
               id="DejaVuSans-20"
               transform="scale(0.015625)"
               d="" />
            <path
               id="DejaVuSans-5b"
               d="M 550,4863 H 1875 V 4416 H 1125 V -397 h 750 V -844 H 550 Z"
               transform="scale(0.015625)" />
            <path
               id="DejaVuSans-72"
               d="m 2631,2963 q -97,56 -211,82 -114,27 -251,27 -488,0 -749,-317 -261,-317 -261,-911 V 0 H 581 v 3500 h 578 v -544 q 182,319 472,473 291,155 707,155 59,0 131,-8 72,-7 159,-23 z"
               transform="scale(0.015625)" />
            <path
               id="DejaVuSans-61"
               d="m 2194,1759 q -697,0 -966,-159 -269,-159 -269,-544 0,-306 202,-486 202,-179 548,-179 479,0 768,339 289,339 289,901 v 128 z m 1147,238 V 0 H 2766 V 531 Q 2569,213 2275,61 1981,-91 1556,-91 q -537,0 -855,302 -317,302 -317,808 0,590 395,890 396,300 1180,300 h 807 v 57 q 0,397 -261,614 -261,217 -733,217 -300,0 -585,-72 -284,-72 -546,-216 v 532 q 315,122 612,182 297,61 578,61 760,0 1135,-394 375,-393 375,-1193 z"
               transform="scale(0.015625)" />
            <path
               id="DejaVuSans-64"
               d="m 2906,2969 v 1894 h 575 V 0 H 2906 V 525 Q 2725,213 2448,61 2172,-91 1784,-91 1150,-91 751,415 353,922 353,1747 q 0,825 398,1331 399,506 1033,506 388,0 664,-152 277,-151 458,-463 z M 947,1747 q 0,-634 261,-995 261,-361 717,-361 456,0 718,361 263,361 263,995 0,634 -263,995 -262,361 -718,361 -456,0 -717,-361 -261,-361 -261,-995 z"
               transform="scale(0.015625)" />
            <path
               id="DejaVuSans-2f"
               d="m 1625,4666 h 531 L 531,-594 H 0 Z"
               transform="scale(0.015625)" />
            <path
               id="DejaVuSans-73"
               d="m 2834,3397 v -544 q -243,125 -506,187 -262,63 -544,63 -428,0 -642,-131 -214,-131 -214,-394 0,-200 153,-314 153,-114 616,-217 l 197,-44 q 612,-131 870,-370 258,-239 258,-667 0,-488 -386,-773 Q 2250,-91 1575,-91 1294,-91 989,-36 684,19 347,128 v 594 q 319,-166 628,-249 309,-82 613,-82 406,0 624,139 219,139 219,392 0,234 -158,359 -157,125 -692,241 l -200,47 q -534,112 -772,345 -237,233 -237,639 0,494 350,762 350,269 994,269 318,0 599,-47 282,-46 519,-140 z"
               transform="scale(0.015625)" />
            <path
               id="DejaVuSans-5d"
               d="M 1947,4863 V -844 H 622 v 447 h 747 V 4416 H 622 v 447 z"
               transform="scale(0.015625)" />
          </defs>
          <use
             xlink:href="#DejaVuSans-Oblique-3c9"
             transform="translate(0,0.015625)"
             id="use36" />
          <use
             xlink:href="#DejaVuSans-Oblique-3c4"
             transform="translate(83.740234,0.015625)"
             id="use37" />
          <use
             xlink:href="#DejaVuSans-20"
             transform="translate(143.94531,0.015625)"
             id="use38" />
          <use
             xlink:href="#DejaVuSans-5b"
             transform="translate(175.73242,0.015625)"
             id="use39" />
          <use
             xlink:href="#DejaVuSans-72"
             transform="translate(214.74609,0.015625)"
             id="use40" />
          <use
             xlink:href="#DejaVuSans-61"
             transform="translate(255.85937,0.015625)"
             id="use41" />
          <use
             xlink:href="#DejaVuSans-64"
             transform="translate(317.13867,0.015625)"
             id="use42" />
          <use
             xlink:href="#DejaVuSans-2f"
             transform="translate(380.61523,0.015625)"
             id="use43" />
          <use
             xlink:href="#DejaVuSans-73"
             transform="translate(414.30664,0.015625)"
             id="use44" />
          <use
             xlink:href="#DejaVuSans-5d"
             transform="translate(466.40625,0.015625)"
             id="use45" />
        </g>
      </g>
    </g>
    <g
       id="matplotlib.axis_2">
      <g
         id="ytick_1">
        <g
           id="line2d_12">
          <defs
             id="defs45">
            <path
               id="m32c7a132de"
               d="M 0,0 H -10"
               style="stroke:#000000;stroke-width:2" />
          </defs>
          <g
             id="g46">
            <use
               xlink:href="#m32c7a132de"
               x="72.040001"
               y="295.11499"
               style="stroke:#000000;stroke-width:2"
               id="use46" />
          </g>
        </g>
        <g
           id="text_13">
          <!-- 0 -->
          <g
             transform="matrix(0.18,0,0,-0.18,47.0875,301.95359)"
             id="g47">
            <use
               xlink:href="#DejaVuSans-30"
               id="use47" />
          </g>
        </g>
      </g>
      <g
         id="ytick_2">
        <g
           id="line2d_13">
          <g
             id="g48">
            <use
               xlink:href="#m32c7a132de"
               x="72.040001"
               y="239.62"
               style="stroke:#000000;stroke-width:2"
               id="use48" />
          </g>
        </g>
        <g
           id="text_14">
          <!-- 2 -->
          <g
             transform="matrix(0.18,0,0,-0.18,47.0875,246.45859)"
             id="g49">
            <use
               xlink:href="#DejaVuSans-32"
               id="use49" />
          </g>
        </g>
      </g>
      <g
         id="ytick_3">
        <g
           id="line2d_14">
          <g
             id="g50">
            <use
               xlink:href="#m32c7a132de"
               x="72.040001"
               y="184.125"
               style="stroke:#000000;stroke-width:2"
               id="use50" />
          </g>
        </g>
        <g
           id="text_15">
          <!-- 4 -->
          <g
             transform="matrix(0.18,0,0,-0.18,47.0875,190.96359)"
             id="g51">
            <use
               xlink:href="#DejaVuSans-34"
               id="use51" />
          </g>
        </g>
      </g>
      <g
         id="ytick_4">
        <g
           id="line2d_15">
          <g
             id="g52">
            <use
               xlink:href="#m32c7a132de"
               x="72.040001"
               y="128.63"
               style="stroke:#000000;stroke-width:2"
               id="use52" />
          </g>
        </g>
        <g
           id="text_16">
          <!-- 6 -->
          <g
             transform="matrix(0.18,0,0,-0.18,47.0875,135.46859)"
             id="g53">
            <use
               xlink:href="#DejaVuSans-36"
               id="use53" />
          </g>
        </g>
      </g>
      <g
         id="ytick_5">
        <g
           id="line2d_16">
          <g
             id="g54">
            <use
               xlink:href="#m32c7a132de"
               x="72.040001"
               y="73.135002"
               style="stroke:#000000;stroke-width:2"
               id="use54" />
          </g>
        </g>
        <g
           id="text_17">
          <!-- 8 -->
          <g
             transform="matrix(0.18,0,0,-0.18,47.0875,79.973594)"
             id="g55">
            <use
               xlink:href="#DejaVuSans-38"
               id="use55" />
          </g>
        </g>
      </g>
      <g
         id="ytick_6">
        <g
           id="line2d_17">
          <g
             id="g56">
            <use
               xlink:href="#m32c7a132de"
               x="72.040001"
               y="17.639999"
               style="stroke:#000000;stroke-width:2"
               id="use56" />
          </g>
        </g>
        <g
           id="text_18">
          <!-- 10 -->
          <g
             transform="matrix(0.18,0,0,-0.18,35.635,24.478594)"
             id="g58">
            <use
               xlink:href="#DejaVuSans-31"
               id="use57" />
            <use
               xlink:href="#DejaVuSans-30"
               x="63.623047"
               id="use58" />
          </g>
        </g>
      </g>
      <g
         id="text_19">
        <!-- $|H(i\omega)|$ -->
        <g
           transform="matrix(0,-0.1728,-0.1728,0,27.4878,185.1487)"
           id="g65">
          <defs
             id="defs58">
            <path
               id="DejaVuSans-7c"
               d="M 1344,4891 V -1509 H 813 v 6400 z"
               transform="scale(0.015625)" />
            <path
               id="DejaVuSans-Oblique-48"
               d="m 1081,4666 h 635 L 1344,2753 h 2290 l 372,1913 h 635 L 3731,0 h -634 l 434,2222 H 1241 L 806,0 H 172 Z"
               transform="scale(0.015625)" />
            <path
               id="DejaVuSans-28"
               d="m 1984,4856 q -418,-718 -622,-1422 -203,-703 -203,-1425 0,-721 205,-1429 205,-708 620,-1424 h -500 q -468,735 -701,1444 -233,709 -233,1409 0,697 231,1403 232,707 703,1444 z"
               transform="scale(0.015625)" />
            <path
               id="DejaVuSans-Oblique-69"
               d="m 1172,4863 h 575 L 1606,4134 H 1031 Z M 909,3500 h 575 L 800,0 H 225 Z"
               transform="scale(0.015625)" />
            <path
               id="DejaVuSans-29"
               d="m 513,4856 h 500 q 468,-737 701,-1444 233,-706 233,-1403 0,-700 -233,-1409 -233,-709 -701,-1444 H 513 q 415,716 620,1424 205,708 205,1429 0,722 -205,1425 -205,704 -620,1422 z"
               transform="scale(0.015625)" />
          </defs>
          <use
             xlink:href="#DejaVuSans-7c"
             transform="translate(0,0.578125)"
             id="use59" />
          <use
             xlink:href="#DejaVuSans-Oblique-48"
             transform="translate(33.691406,0.578125)"
             id="use60" />
          <use
             xlink:href="#DejaVuSans-28"
             transform="translate(108.88672,0.578125)"
             id="use61" />
          <use
             xlink:href="#DejaVuSans-Oblique-69"
             transform="translate(147.90039,0.578125)"
             id="use62" />
          <use
             xlink:href="#DejaVuSans-Oblique-3c9"
             transform="translate(175.68359,0.578125)"
             id="use63" />
          <use
             xlink:href="#DejaVuSans-29"
             transform="translate(259.42383,0.578125)"
             id="use64" />
          <use
             xlink:href="#DejaVuSans-7c"
             transform="translate(298.4375,0.578125)"
             id="use65" />
        </g>
      </g>
    </g>
    <g
       id="line2d_18">
      <path
         d="m 72.04,281.24125 4.956118,-0.11029 4.832216,-0.32833 4.522458,-0.52785 4.150749,-0.70621 3.717089,-0.85325 3.34538,-0.9913 2.97367,-1.10579 2.72587,-1.24971 2.4161,-1.34769 2.23026,-1.49873 2.0444,-1.64694 1.85854,-1.7855 1.73464,-1.98166 1.61074,-2.18728 1.48684,-2.39792 1.42488,-2.73591 1.30098,-2.97987 1.23903,-3.39208 1.17708,-3.87556 1.11512,-4.4454 1.05318,-5.12016 0.99122,-5.92271 0.92928,-6.88089 0.86732,-8.02833 0.86732,-10.22709 0.80537,-12.36317 0.74341,-15.08878 0.68147,-18.60045 0.61952,-23.16378 0.55756,-29.12976 0.49561,-36.937719 0.49561,-55.479084 L 132.13682,-1 m 3.6972,0 0.44966,57.936506 0.55757,46.439994 0.61951,34.11171 0.68147,25.76693 0.74342,19.92321 0.80537,15.71181 0.86732,12.60142 0.92927,10.25498 0.99122,8.45181 1.05318,7.04334 1.11512,5.92713 1.17708,5.03101 1.23903,4.30313 1.30098,3.70559 1.36294,3.21027 1.42488,2.79601 1.48684,2.44664 1.61073,2.22852 1.73465,2.01644 1.85854,1.81475 1.98245,1.62581 2.1683,1.48945 2.35416,1.34731 2.60196,1.23101 2.84977,1.10238 3.15952,0.98426 3.53124,0.86466 3.90294,0.724 4.27465,0.56546 4.64636,0.38812 4.89417,0.18435 4.95612,-0.0335 4.89416,-0.25321 4.64637,-0.46115 4.27465,-0.64468 3.84099,-0.79763 3.46928,-0.94135 3.09758,-1.06377 2.78781,-1.18576 2.54001,-1.31978 2.29221,-1.44023 2.10635,-1.58862 1.92049,-1.7298 1.73465,-1.85513 1.61073,-2.03795 1.54879,-2.32345 1.42489,-2.53965 1.36293,-2.89256 1.30098,-3.30806 1.17708,-3.59257 1.11512,-4.09191 1.11513,-4.97993 1.05318,-5.80335 0.99122,-6.80496 0.92927,-8.03261 0.86732,-9.54892 0.80537,-11.43575 0.74342,-13.79976 0.68147,-16.77813 0.61951,-20.54245 0.61951,-28.6604 0.55757,-37.562162 0.49561,-50.246194 L 256.02728,-1 m 3.69743,0 0.46194,59.212152 0.55756,45.991138 0.61951,33.84342 0.68147,25.59883 0.74342,19.81366 0.80537,15.638 0.86732,12.55025 0.92927,10.21862 0.99122,8.4254 1.05318,7.02378 1.11513,5.91241 1.17707,5.01976 1.23903,4.2944 1.30098,3.69875 1.36294,3.20484 1.42488,2.79165 1.48684,2.44312 1.61074,2.22553 1.73464,2.01393 1.85854,1.81264 1.98245,1.62403 2.1683,1.48792 2.35416,1.34599 2.60196,1.22987 2.84977,1.10139 3.15952,0.98337 3.53124,0.86389 3.90294,0.7233 4.27465,0.56483 4.64636,0.38754 4.89417,0.18379 4.95612,-0.0341 4.89416,-0.25379 4.64637,-0.46175 4.27465,-0.64536 3.84099,-0.79837 3.46928,-0.94219 3.09758,-1.06473 2.78781,-1.18684 2.54001,-1.32104 2.29221,-1.44167 2.10635,-1.59031 1.92049,-1.73175 1.73465,-1.85737 1.61074,-2.04058 1.54878,-2.32668 1.42489,-2.54345 1.36293,-2.89723 1.30098,-3.31388 1.17708,-3.59944 1.11512,-4.10045 1.11513,-4.99134 1.05318,-5.81808 0.99122,-6.82416 0.92927,-8.058 0.86732,-9.58291 0.80537,-11.48193 0.74342,-13.86341 0.68147,-16.86723 0.61951,-20.66906 0.61952,-28.8693 0.55756,-37.892943 0.49561,-50.790083 L 379.91763,-1 m 3.69759,0 0.47439,60.474184 0.55756,45.548786 0.61951,33.57828 0.68147,25.43238 0.74342,19.70501 0.80537,15.56471 0.86732,12.49939 0.92927,10.18244 0.99122,8.39911 1.05318,7.00431 1.11513,5.89774 1.17707,5.00854 1.23903,4.28571 1.30098,3.69192 1.36294,3.19942 1.42488,2.78731 1.48684,2.43959 1.61074,2.22257 1.73464,2.01141 1.85854,1.81053 1.98245,1.62227 2.1683,1.48638 2.35416,1.34468 2.60196,1.22872 2.84977,1.10039 3.15952,0.98251 3.53124,0.8631 3.90294,0.72261 4.27465,0.5642 4.64636,0.38696 4.89417,0.18323 4.95612,-0.0346 4.89417,-0.25436 4.64636,-0.46237 4.27465,-0.64603 3.84099,-0.79911 3.46928,-0.94304 3.09758,-1.06567 2.78781,-1.18793 2.54001,-1.3223 2.29221,-1.44312 2.10635,-1.592 1.9205,-1.73371 1.73464,-1.85961 1.61074,-2.04322 1.54878,-2.32991 1.42489,-2.54725 1.36293,-2.90193 1.30098,-3.3197 1.17708,-3.60633 1.11512,-4.10902 1.11513,-5.00279 1.05318,-5.83285 0.99122,-6.84346 0.92927,-8.0835 0.86732,-9.61709 0.80537,-11.52838 0.74342,-13.92751 0.68147,-16.95705 0.61951,-20.79683 0.61952,-29.08048 L 503.0984,81.1291 503.59401,29.786221 503.80814,-1 m 3.69744,0 0.48699,61.722817 0.55756,45.112793 0.61951,33.31626 0.68147,25.26754 0.74342,19.59726 0.80537,15.49193 0.86732,12.44884 0.92927,10.14646 0.99123,8.37294 1.05317,6.98492 1.11513,5.88313 1.17707,4.99736 1.23903,4.27703 1.30099,3.68511 1.36293,3.19402 1.42488,2.78297 1.54879,2.52886 1.61074,2.20482 1.73464,1.99646 1.85854,1.79796 1.98245,1.61168 2.1683,1.47725 2.35416,1.33683 2.60196,1.22187 2.91172,1.11582 3.22148,0.98989 3.53123,0.85071 3.9649,0.72117 4.3366,0.55754 4.64636,0.37182 4.89417,0.16875 4.95612,-0.0489 4.89416,-0.26927 4.58441,-0.47045 4.27465,-0.66023 3.841,-0.81485 3.46928,-0.96088 3.09757,-1.08587 2.78782,-1.21104 2.47806,-1.31292 2.29221,-1.46652 2.04439,-1.56738 1.9205,-1.75545 1.73464,-1.88454 1.61074,-2.07255 1.54879,-2.36587 1.42488,-2.58969 1.36293,-2.95425 1.23903,-3.20875 1.17708,-3.64808 1.11513,-4.16096 1.05317,-4.76165 1.05318,-5.84768 0.99122,-6.86283 0.92927,-8.10912 0.86732,-9.65145 0.80537,-11.57512 0.74342,-13.99206 0.68147,-17.04757 0.61951,-20.9258 0.55757,-25.84802 0.55756,-36.913471 0.49561,-49.184382 L 627.69883,-1 m 3.6972,0 0.43755,56.647024 0.55756,46.895476 0.61951,34.38321 0.68147,25.93669 0.74342,20.03366 0.80537,15.78615 0.86732,12.6529 0.92927,10.29155 0.99122,8.47834 1.05318,7.06297 1.11513,5.94191 1.17707,5.04231 1.23903,4.31187 1.30099,3.71245 1.36293,3.21572 1.42488,2.80038 1.48684,2.45017 1.61073,2.23151 1.73465,2.01895 1.85854,1.81687 1.98245,1.62758 2.1683,1.49099 2.35416,1.34862 2.60196,1.23217 2.84977,1.10338 3.15952,0.98513 3.53124,0.86544 3.90294,0.7247 4.27465,0.56608 4.64636,0.38871 4.89417,0.18491 1.73464,0.0134 v 0"
         clip-path="url(#pe7932ca574)"
         style="fill:none;stroke:#f98c0a;stroke-width:1.5;stroke-linecap:square"
         id="path65" />
    </g>
    <g
       id="line2d_19">
      <path
         d="m 72.04,279.69972 4.770264,-0.11205 4.58441,-0.32635 4.336603,-0.52646 4.026846,-0.70909 3.655138,-0.86464 3.34538,-1.0183 2.973671,-1.13178 2.725868,-1.27201 2.47806,-1.40038 2.23025,-1.50922 2.10635,-1.69657 1.9205,-1.83418 1.79659,-2.02657 1.67269,-2.22473 1.54879,-2.4234 1.48683,-2.73826 1.42489,-3.0995 1.36293,-3.51394 1.30098,-3.98838 1.23903,-4.52855 1.17708,-5.1375 1.17707,-6.16658 1.11513,-7.03165 1.11513,-8.45613 1.17708,-10.74594 1.30098,-14.13218 2.60196,-29.08849 0.55756,-3.71992 0.43366,-1.57181 0.24781,-0.31657 0.18585,0.0493 0.24781,0.44645 0.30976,1.15028 0.43366,2.62207 0.61951,5.40956 0.99122,11.09079 2.35416,26.93917 1.23903,11.4542 1.17708,8.9547 1.17708,7.37092 1.23903,6.3849 1.23903,5.2743 1.30098,4.60343 1.36293,4.01977 1.42488,3.51559 1.48684,3.08128 1.54879,2.70719 1.61073,2.3844 1.73465,2.17675 1.85854,1.9735 1.98245,1.77877 2.10635,1.59492 2.2922,1.45913 2.54001,1.34743 2.72587,1.19374 3.03562,1.08321 3.34538,0.95221 3.65514,0.80616 4.02685,0.65602 4.3366,0.47802 4.58441,0.28097 4.77026,0.0677 4.70831,-0.15323 4.58441,-0.36959 4.27466,-0.56331 3.96489,-0.74357 3.59319,-0.8963 3.28343,-1.0475 2.91172,-1.15648 2.66391,-1.29269 2.41611,-1.41525 2.23025,-1.56324 2.0444,-1.70419 1.92049,-1.89698 1.73465,-2.02171 1.67269,-2.29653 1.54878,-2.50666 1.48684,-2.83853 1.42488,-3.22066 1.36294,-3.6607 1.30098,-4.16619 1.23903,-4.74356 1.17707,-5.39584 1.17708,-6.49231 1.11513,-7.41529 1.11513,-8.91722 1.17707,-11.28849 1.36294,-15.38063 1.98244,-22.50549 0.61952,-4.79821 0.43366,-2.06262 0.30976,-0.70518 0.18585,-0.0985 0.18585,0.14767 0.24781,0.5752 0.37171,1.63651 0.49561,3.46237 0.68147,6.57014 1.30098,15.25023 1.73464,19.57119 1.23903,11.54187 1.17708,9.02831 1.17708,7.4312 1.23903,6.43521 1.23903,5.31372 1.30098,4.63582 1.36293,4.04629 1.42488,3.53728 1.48684,3.09907 1.54879,2.72182 1.61073,2.3965 1.73465,2.18714 1.85854,1.98236 1.98245,1.78632 2.10635,1.60134 2.2922,1.46473 2.47806,1.32232 2.72587,1.20336 3.03562,1.0918 3.34538,0.95982 3.65514,0.81293 4.02684,0.66219 4.33661,0.48368 4.58441,0.2863 4.77026,0.0729 4.70831,-0.14799 4.58441,-0.36406 4.27465,-0.5574 3.9649,-0.73702 3.59318,-0.88904 3.28343,-1.03925 2.97367,-1.17443 2.66392,-1.28803 2.41611,-1.40994 2.23025,-1.55713 2.0444,-1.69716 1.92049,-1.88872 1.73465,-2.01238 1.67269,-2.28527 1.54878,-2.4936 1.48684,-2.82277 1.42488,-3.20161 1.36293,-3.63758 1.30099,-4.13814 1.23902,-4.7096 1.17708,-5.35503 1.17708,-6.44085 1.11513,-7.3548 1.11512,-8.84493 1.17708,-11.20474 1.36294,-15.30466 2.04439,-23.21065 0.61952,-4.7597 0.43366,-2.02839 0.30976,-0.67846 0.18585,-0.0821 0.18586,0.16404 0.2478,0.59652 0.37171,1.66628 0.49561,3.49561 0.68147,6.60086 1.36293,16.01101 1.67269,18.80316 1.23903,11.51994 1.17708,9.00986 1.17708,7.41608 1.23903,6.42259 1.23903,5.30383 1.30098,4.62769 1.36293,4.03964 1.42488,3.53183 1.48684,3.09461 1.54879,2.71816 1.61073,2.39346 1.73465,2.18454 1.85854,1.98014 1.98245,1.78442 2.10635,1.59974 2.2922,1.46332 2.54001,1.35115 2.72587,1.19694 3.03562,1.08606 3.34538,0.95474 3.65514,0.80842 4.02684,0.65807 4.33661,0.47991 4.58441,0.28274 4.77026,0.0694 4.70832,-0.15149 4.5844,-0.36774 4.27466,-0.56134 3.96489,-0.74138 3.59319,-0.89388 3.28343,-1.04474 2.97367,-1.18066 2.66391,-1.29503 2.41611,-1.4179 2.23025,-1.56632 2.0444,-1.70772 1.9205,-1.90113 1.73464,-2.0264 1.67269,-2.30218 1.54879,-2.51323 1.48683,-2.84645 1.42488,-3.23025 1.36294,-3.67233 1.30098,-4.18031 1.23903,-4.76066 1.17708,-5.4164 1.17707,-6.51822 1.11513,-7.44574 1.11513,-8.95355 1.17707,-11.33037 1.36294,-15.41786 1.98244,-22.43592 0.61952,-4.7209 0.43366,-1.99402 0.30976,-0.65171 0.18585,-0.0657 0.18586,0.1804 0.2478,0.6178 0.37171,1.69593 0.49561,3.52863 0.68147,6.63126 1.36293,16.02587 1.67269,18.78045 1.23903,11.49801 1.17708,8.99145 1.17708,7.40098 1.23903,6.41 1.23903,5.29396 1.30098,4.61959 1.36293,4.033 1.42488,3.52641 1.48684,3.09015 1.54879,2.7145 1.61074,2.39043 1.73464,2.18195 1.85854,1.97791 1.98245,1.78254 2.10635,1.59813 2.2922,1.46193 2.54001,1.3499 2.72587,1.19588 3.03562,1.0851 3.34538,0.9539 3.65514,0.80766 4.02685,0.65739 4.3366,0.47928 4.58441,0.28215 4.77026,0.0689 4.70832,-0.15207 4.5844,-0.36836 4.27466,-0.56199 3.96489,-0.74211 3.59319,-0.89469 3.28343,-1.04566 2.91172,-1.15444 2.66391,-1.29036 2.41611,-1.41259 2.23025,-1.56018 2.0444,-1.70067 1.92049,-1.89285 1.73465,-2.01703 1.67269,-2.29089 1.54878,-2.50012 1.48684,-2.83064 1.42488,-3.21111 1.36294,-3.64912 1.30098,-4.15213 1.23903,-4.72654 1.17708,-5.37538 1.17707,-6.46652 1.11513,-7.38498 1.11513,-8.88102 1.17707,-11.24661 1.36294,-15.34289 2.0444,-23.14054 0.61951,-4.68184 0.43366,-1.95953 0.30976,-0.62489 0.18585,-0.0493 0.18586,0.19675 0.2478,0.63904 0.37171,1.72547 0.49561,3.56144 0.74342,7.33894 1.61074,19.05452 1.48684,16.31281 1.23902,11.25766 1.17708,8.79107 1.17708,7.23729 1.23903,6.27348 1.23903,5.18699 1.30098,4.53165 1.36293,3.96099 1.42489,3.46745 1.48683,3.04177 1.54879,2.67465 1.67269,2.44076 1.73464,2.14094 1.85855,1.94287 1.98244,1.75269 2.16831,1.61508 2.35415,1.46826 2.54001,1.31811 2.78782,1.19253 3.03562,1.056 3.34538,0.92802 3.71709,0.79613 4.02685,0.63299 4.3366,0.45683 4.64636,0.26301 3.34538,0.0549 v 0"
         clip-path="url(#pe7932ca574)"
         style="fill:none;stroke:#ef6c23;stroke-width:1.5;stroke-linecap:square"
         id="path66" />
    </g>
    <g
       id="line2d_20">
      <path
         d="m 72.04,277.77281 4.58441,-0.11041 4.460506,-0.3257 4.274652,-0.53193 3.964895,-0.71219 3.717089,-0.89249 3.407331,-1.0475 3.097574,-1.18347 2.849773,-1.32593 2.60196,-1.45255 2.4161,-1.60017 2.23026,-1.73695 2.10635,-1.916 2.0444,-2.16582 1.92049,-2.36052 1.85855,-2.63697 1.85854,-3.03663 1.85855,-3.48435 1.92049,-4.09971 2.1683,-5.19597 4.95612,-12.15531 1.11513,-2.00574 0.86732,-1.13995 0.74342,-0.62704 0.61951,-0.25245 0.55757,-0.009 0.55756,0.19769 0.61951,0.4556 0.74342,0.85336 0.86732,1.36888 1.11513,2.23184 1.54879,3.67412 5.69953,14.00911 1.98245,4.05048 1.9205,3.4151 1.92049,2.95661 1.9205,2.55449 1.98244,2.27514 2.10635,2.07676 2.16831,1.83061 2.35415,1.69395 2.47806,1.50953 2.66392,1.36444 2.91172,1.23916 3.15952,1.09936 3.40733,0.94951 3.71709,0.80364 4.02685,0.64024 4.27465,0.45367 4.52246,0.25382 4.58441,0.0351 4.58441,-0.18646 4.39855,-0.39768 4.2127,-0.60326 3.90295,-0.78283 3.59318,-0.94663 3.28343,-1.09351 2.97367,-1.21918 2.78782,-1.38385 2.54001,-1.50806 2.35415,-1.65347 2.23026,-1.84093 2.10635,-2.03377 1.98245,-2.22703 1.92049,-2.49974 1.85855,-2.79319 1.79659,-3.09917 1.85854,-3.66048 1.98245,-4.42655 2.41611,-5.99942 3.34538,-8.3109 1.23903,-2.49467 0.99122,-1.5207 0.80537,-0.8395 0.68147,-0.39586 0.61951,-0.0948 0.55757,0.13363 0.61951,0.38715 0.68147,0.70076 0.80537,1.16291 0.99122,1.84644 1.30098,2.92476 2.35416,5.95885 2.97367,7.35331 2.0444,4.4609 1.92049,3.6668 1.9205,3.18367 1.92049,2.75217 1.98245,2.44941 2.0444,2.17182 2.1683,1.97337 2.29221,1.7783 2.4161,1.59062 2.60197,1.44407 2.78781,1.29222 3.03563,1.1602 3.28343,1.01608 3.59318,0.8765 3.90294,0.71897 4.15075,0.53777 4.39856,0.34598 4.58441,0.13625 4.58441,-0.0847 4.52245,-0.30496 4.27466,-0.50699 4.02684,-0.69795 3.71709,-0.86658 3.40733,-1.01883 3.09758,-1.15175 2.84977,-1.29039 2.66391,-1.44983 2.47806,-1.60597 2.2922,-1.75357 2.16831,-1.94521 2.04439,-2.14007 1.9205,-2.33194 1.85855,-2.60482 1.85854,-2.99994 1.85854,-3.44401 1.85855,-3.91836 2.10635,-4.98634 5.45173,-13.2855 1.05317,-1.8113 0.86732,-1.06839 0.68147,-0.52493 0.61952,-0.21707 0.55756,0.0231 0.61951,0.26756 0.68147,0.57758 0.74342,0.94216 0.92927,1.57303 1.17708,2.47902 1.73464,4.24214 4.39855,10.94865 2.0444,4.38838 1.9205,3.59898 1.92049,3.12191 1.9205,2.69816 1.98245,2.40169 2.0444,2.13026 2.1683,1.9365 2.2922,1.74592 2.41611,1.56239 2.60196,1.41898 2.84977,1.2957 3.03562,1.13564 3.34538,1.01082 3.59319,0.8527 3.90294,0.69717 4.2127,0.52386 4.46051,0.32694 4.58441,0.11161 4.58441,-0.10921 4.46051,-0.32446 4.27465,-0.53062 3.96489,-0.71076 3.71709,-0.8909 3.40733,-1.04575 3.09758,-1.18153 2.84977,-1.32375 2.60196,-1.45011 2.41611,-1.59744 2.2922,-1.78611 2.10635,-1.92117 2.0444,-2.17182 1.92049,-2.36716 1.85855,-2.64445 1.85854,-3.04515 1.85855,-3.49369 1.92049,-4.10952 2.16831,-5.20499 4.89416,-12.01166 1.11513,-2.01761 0.86732,-1.1517 0.74342,-0.63843 0.61951,-0.26253 0.55757,-0.0185 0.55756,0.18857 0.61951,0.44588 0.74342,0.84271 0.86732,1.3583 1.05318,2.08687 1.48683,3.49196 6.1332,14.9961 1.9205,3.85642 1.92049,3.35923 1.9205,2.90692 1.92049,2.51154 1.98245,2.23739 2.10635,2.04303 2.23025,1.8491 2.35416,1.66061 2.54001,1.51443 2.72587,1.36143 2.91172,1.20602 3.15952,1.06971 3.46928,0.93785 3.77904,0.78696 4.0888,0.61897 4.33661,0.42809 4.52245,0.22159 4.58441,0.004 4.58441,-0.21881 4.39856,-0.43135 4.15075,-0.62874 3.84099,-0.80403 3.53123,-0.96332 3.22148,-1.10486 2.97367,-1.25268 2.72587,-1.38761 2.54001,-1.54411 2.35415,-1.69395 2.16831,-1.83061 2.0444,-2.01096 1.98244,-2.26459 1.9205,-2.54247 1.85854,-2.84096 1.7966,-3.15095 1.85854,-3.71767 1.98245,-4.48487 2.54001,-6.36282 2.97367,-7.36263 1.23903,-2.50573 0.99122,-1.53297 0.80537,-0.85131 0.68147,-0.40675 0.61951,-0.10503 0.55757,0.12445 0.61951,0.37729 0.68147,0.69067 0.80537,1.15249 0.99122,1.83626 1.30098,2.9161 2.29221,5.79491 3.03562,7.51927 2.0444,4.46777 1.92049,3.67328 1.9205,3.18961 1.9205,2.75737 1.98244,2.45401 2.0444,2.17582 2.1683,1.97693 2.29221,1.78141 2.41611,1.59335 2.60196,1.44649 2.78781,1.29435 3.03563,1.16211 3.28342,1.01778 3.59319,0.87805 3.90294,0.72039 4.15075,0.53907 4.39856,0.34721 4.58441,0.13746 0.55756,0.002 v 0"
         clip-path="url(#pe7932ca574)"
         style="fill:none;stroke:#dd513a;stroke-width:1.5;stroke-linecap:square"
         id="path67" />
    </g>
    <g
       id="line2d_21">
      <path
         d="m 72.04,275.29536 4.58441,-0.10974 4.522458,-0.32816 4.336603,-0.53335 4.150749,-0.73175 3.902944,-0.91123 3.655137,-1.07816 3.469279,-1.255 3.28343,-1.42635 3.09758,-1.58704 3.03562,-1.80813 2.97367,-2.03154 3.09757,-2.39146 3.53124,-3.01977 7.06247,-6.12669 1.98244,-1.37108 1.67269,-0.89147 1.42489,-0.51972 1.36293,-0.26341 1.30098,-0.0255 1.30098,0.1965 1.36294,0.43387 1.48683,0.71425 1.67269,1.0563 2.10635,1.61344 3.09758,2.69241 6.25709,5.47045 3.22148,2.48588 3.03562,2.06439 3.03563,1.79642 3.09757,1.57615 3.22148,1.3916 3.40733,1.22957 3.59318,1.06101 3.841,0.90142 4.08879,0.72858 4.27466,0.53613 4.4605,0.33669 4.58441,0.12404 4.58441,-0.0955 4.52246,-0.31345 4.39856,-0.52709 4.15074,-0.71879 3.90295,-0.89733 3.65514,-1.0632 3.46928,-1.23864 3.28343,-1.40865 3.09757,-1.56825 3.03562,-1.78793 2.97367,-2.01079 3.09758,-2.37075 3.46928,-2.9475 7.55808,-6.53966 1.98245,-1.34132 1.61074,-0.8315 1.42488,-0.49683 1.36293,-0.23959 1.30099,-0.002 1.30098,0.21941 1.36293,0.4562 1.48684,0.73557 1.73464,1.11958 2.1683,1.68867 3.34538,2.93396 5.51368,4.82071 3.22148,2.50722 3.03562,2.08558 3.03562,1.81666 3.09758,1.59501 3.22147,1.40905 3.40733,1.24575 3.59319,1.07587 3.84099,0.91526 4.0888,0.7415 4.27465,0.5482 4.46051,0.34825 4.58441,0.13538 4.64636,-0.0868 4.52246,-0.3049 4.39855,-0.51809 4.15075,-0.70928 3.90294,-0.88716 3.71709,-1.07212 3.46929,-1.23095 3.28343,-1.40033 3.09757,-1.5594 3.03562,-1.7784 2.97367,-2.00098 3.03562,-2.311 3.46929,-2.93434 7.86784,-6.79412 1.92049,-1.28392 1.61074,-0.81927 1.42488,-0.48423 1.36294,-0.22654 1.30098,0.0106 1.30098,0.23185 1.36293,0.46829 1.48684,0.74706 1.73464,1.13019 2.1683,1.69745 3.40733,2.99469 5.38978,4.70814 3.22148,2.5061 3.03562,2.08446 3.03562,1.8156 3.09758,1.59401 3.22147,1.40813 3.40733,1.24489 3.59319,1.07509 3.84099,0.91452 4.0888,0.74082 4.27465,0.54756 4.46051,0.34765 4.58441,0.13478 4.64636,-0.0874 4.52246,-0.30551 4.39855,-0.51872 4.15075,-0.70997 3.90294,-0.88788 3.71709,-1.07291 3.46929,-1.23181 3.28343,-1.40124 3.09757,-1.56039 3.03562,-1.77946 2.97367,-2.00206 3.03562,-2.31208 3.46929,-2.93529 7.86784,-6.79237 1.92049,-1.28204 1.61074,-0.81722 1.42488,-0.48212 1.36294,-0.22438 1.30098,0.0128 1.30098,0.23392 1.36293,0.47031 1.48684,0.74895 1.73464,1.13195 2.1683,1.6989 3.40733,2.99549 5.38978,4.70716 3.22148,2.50498 3.03562,2.08335 3.03562,1.81453 3.09758,1.59301 3.22147,1.40721 3.40734,1.24404 3.59318,1.0743 3.84099,0.9138 4.0888,0.74013 4.27465,0.54692 4.46051,0.34704 4.58441,0.13418 4.64636,-0.088 4.52246,-0.30613 4.39855,-0.51936 4.15075,-0.71064 3.90295,-0.88861 3.71709,-1.07371 3.46928,-1.23265 3.28343,-1.40218 3.09757,-1.56136 3.03562,-1.78052 2.97367,-2.00316 3.09758,-2.36306 3.46928,-2.94097 7.74393,-6.69011 1.9205,-1.28952 1.61074,-0.8254 1.42488,-0.49053 1.36294,-0.23308 1.30098,0.004 1.30098,0.22563 1.36293,0.46226 1.48684,0.74132 1.73464,1.12491 2.1683,1.69308 3.34538,2.93645 5.51368,4.81778 3.22148,2.50386 3.03562,2.08223 3.03562,1.81347 3.09758,1.59201 3.22147,1.40629 3.40734,1.24318 3.59318,1.07352 3.84099,0.91307 4.0888,0.73944 4.27465,0.5463 4.46051,0.34642 4.58441,0.13359 0.49561,10e-4 v 0"
         clip-path="url(#pe7932ca574)"
         style="fill:none;stroke:#c43c4e;stroke-width:1.5;stroke-linecap:square"
         id="path68" />
    </g>
    <g
       id="line2d_22">
      <path
         d="m 72.04,271.99208 5.203924,-0.11201 5.141973,-0.33251 5.080022,-0.54981 5.01807,-0.76484 5.018069,-0.98877 5.141972,-1.24052 5.63759,-1.59392 16.8508,-4.95231 3.34538,-0.61418 2.97367,-0.32356 2.84977,-0.0876 2.84977,0.13717 2.97367,0.37114 3.22147,0.6302 3.841,0.98714 5.57563,1.69016 10.4698,3.18938 5.45173,1.40186 5.08002,1.07974 5.01807,0.84155 5.08002,0.62574 5.14197,0.40735 5.14198,0.18548 5.20392,-0.0352 5.14197,-0.25558 5.14198,-0.47901 5.08002,-0.69848 5.01807,-0.91463 5.08002,-1.15226 5.38978,-1.45302 6.87661,-2.10371 8.61126,-2.6102 3.90294,-0.94064 3.22148,-0.55582 2.97367,-0.28923 2.84977,-0.0525 2.84977,0.17183 2.97367,0.40392 3.28343,0.6738 3.96489,1.04978 6.1332,1.88611 8.98296,2.73 5.51368,1.42942 5.14198,1.10214 5.01807,0.84929 5.08002,0.63343 5.14197,0.41492 5.14197,0.1929 5.20393,-0.0277 5.14197,-0.24812 5.14197,-0.47138 5.08003,-0.69075 5.01806,-0.90687 5.08003,-1.14463 5.38978,-1.44598 6.75271,-2.05967 8.98296,-2.72433 3.90295,-0.93592 3.22147,-0.55048 2.97367,-0.28345 2.84977,-0.0466 2.84977,0.17757 2.97367,0.40932 3.34538,0.69333 4.02685,1.07485 6.381,1.97001 8.5493,2.59218 5.51369,1.42887 5.14197,1.10158 5.01807,0.84874 5.08002,0.63288 5.14197,0.41438 5.14197,0.19237 5.20393,-0.0283 5.14197,-0.24866 5.14197,-0.47192 5.08003,-0.6913 5.01807,-0.90743 5.08002,-1.14517 5.38978,-1.44649 6.75271,-2.06002 8.92101,-2.70704 3.90294,-0.93907 3.22148,-0.55405 2.97367,-0.28731 2.84977,-0.0505 2.84977,0.17374 2.97367,0.40572 3.28343,0.6754 3.96489,1.05109 6.19515,1.90643 8.92101,2.70947 5.51369,1.42833 5.14197,1.10102 5.01807,0.84819 5.08002,0.63233 5.14197,0.41384 5.14197,0.19184 5.20393,-0.0288 5.14197,-0.2492 5.14198,-0.47247 5.08002,-0.69184 5.01807,-0.90799 5.08002,-1.14572 5.38978,-1.44698 6.75271,-2.06038 8.92101,-2.70647 3.90294,-0.93828 3.22148,-0.55315 2.97367,-0.28635 2.84977,-0.0495 2.84977,0.1747 2.97367,0.40662 3.28343,0.6762 3.96489,1.05174 6.19515,1.90677 8.85906,2.69165 5.51368,1.4305 5.14198,1.10325 5.01807,0.8504 5.08002,0.63453 5.14197,0.41601 5.14197,0.19396 1.98245,0.0162 v 0"
         clip-path="url(#pe7932ca574)"
         style="fill:none;stroke:#a82e5f;stroke-width:1.5;stroke-linecap:square"
         id="path69" />
    </g>
    <g
       id="line2d_23">
      <path
         d="m 72.04,267.3675 h 619.45285 v 0"
         clip-path="url(#pe7932ca574)"
         style="fill:none;stroke:#88226a;stroke-width:1.5;stroke-linecap:square"
         id="path70" />
    </g>
    <g
       id="line2d_24">
      <path
         d="m 72.04,260.43063 2.849768,0.11245 2.91172,0.33804 3.221477,0.60479 3.77904,0.94872 5.265876,1.57714 11.646879,3.54373 5.38978,1.36879 5.08002,1.06339 5.01807,0.82524 5.08002,0.60957 5.14197,0.39142 5.14198,0.16986 5.20392,-0.0509 5.14197,-0.2713 5.08002,-0.48778 5.08003,-0.71205 5.01807,-0.9282 5.08002,-1.16557 5.45173,-1.48324 7.12442,-2.19188 7.92979,-2.39753 3.90294,-0.94493 3.28343,-0.56914 2.97367,-0.28971 2.84977,-0.053 2.84977,0.17135 2.97367,0.40347 3.28343,0.67339 3.96489,1.04946 6.1332,1.88594 8.98296,2.73022 5.51368,1.42969 5.14198,1.10242 5.01807,0.84957 5.08002,0.6337 5.14197,0.4152 5.14197,0.19316 5.20393,-0.0275 5.14197,-0.24786 5.14197,-0.47111 5.08003,-0.69046 5.01806,-0.9066 5.08003,-1.14436 5.38977,-1.44573 6.75272,-2.05949 8.98296,-2.72462 3.90294,-0.93631 3.22148,-0.55093 2.97367,-0.28394 2.84977,-0.0471 2.84977,0.17709 2.97367,0.40886 3.34538,0.69294 4.02685,1.07452 6.381,1.96985 8.5493,2.5924 5.51368,1.42914 5.14198,1.10186 5.01807,0.84902 5.08002,0.63315 5.14197,0.41466 5.14197,0.19263 5.20393,-0.028 5.14197,-0.2484 5.14197,-0.47165 5.08003,-0.69102 5.01807,-0.90715 5.08002,-1.1449 5.38978,-1.44623 6.75271,-2.05985 8.92101,-2.70733 3.90294,-0.93946 3.22148,-0.55449 2.97367,-0.28779 2.84977,-0.051 2.84977,0.17327 2.97367,0.40527 3.28343,0.675 3.96489,1.05076 6.19515,1.90626 8.92101,2.70969 5.51368,1.4286 5.14198,1.10131 5.01807,0.84846 5.08002,0.6326 5.14197,0.41412 5.14197,0.1921 5.20393,-0.0285 5.14197,-0.24892 5.14197,-0.4722 5.08003,-0.69157 5.01807,-0.90771 5.08002,-1.14545 5.38978,-1.44673 6.75271,-2.0602 8.92101,-2.70676 3.90294,-0.93867 3.22148,-0.5536 2.97367,-0.28683 2.84977,-0.05 2.84977,0.17422 2.97367,0.40617 3.28343,0.6758 3.96489,1.05141 6.19515,1.9066 8.85906,2.69187 5.51368,1.43077 5.14198,1.10354 5.01807,0.85067 5.08002,0.63481 5.14197,0.41627 5.14197,0.19423 5.20393,-0.0264 5.14197,-0.2468 5.14197,-0.47001 5.08002,-0.68936 5.01808,-0.9055 5.08002,-1.14326 5.38977,-1.44472 6.75272,-2.05879 8.98296,-2.72577 3.90294,-0.93789 3.22148,-0.55271 2.97367,-0.28586 2.0444,-0.0581 v 0"
         clip-path="url(#pe7932ca574)"
         style="fill:none;stroke:#6a176e;stroke-width:1.5;stroke-linecap:square"
         id="path71" />
    </g>
    <g
       id="line2d_25">
      <path
         d="m 72.04,248.86917 1.300981,0.1114 1.362933,0.34984 1.424884,0.60177 1.610738,0.93182 1.920496,1.38457 2.601962,2.18057 9.044916,7.81297 3.097574,2.26326 3.035623,1.94305 3.035623,1.68214 3.15953,1.4975 3.28342,1.31242 3.46929,1.14978 3.71708,0.99654 3.9649,0.82926 4.15075,0.64117 4.39855,0.45312 4.52246,0.24289 4.64636,0.0252 4.58441,-0.19686 4.46051,-0.41144 4.27465,-0.6145 4.02685,-0.79875 3.84099,-0.9881 3.59318,-1.1543 3.34538,-1.30479 3.22148,-1.49632 3.03562,-1.6526 2.97368,-1.86957 2.97367,-2.13038 3.15952,-2.53934 4.0888,-3.59765 4.64636,-4.04031 2.1683,-1.58718 1.73464,-1.00108 1.48684,-0.61017 1.36293,-0.32658 1.30098,-0.0881 1.30098,0.13462 1.36294,0.37292 1.42488,0.62341 1.61074,0.95212 1.9205,1.40222 2.66391,2.24817 8.48735,7.35767 3.09758,2.29587 3.03562,1.97501 3.03562,1.71199 3.15953,1.52551 3.28342,1.33813 3.46929,1.17351 3.71709,1.01866 3.90294,0.83828 4.15075,0.66349 4.39855,0.47448 4.52246,0.26335 4.58441,0.0465 4.58441,-0.1734 4.46051,-0.38724 4.3366,-0.59924 4.0888,-0.78887 3.84099,-0.96609 3.59319,-1.13059 3.40733,-1.30538 3.22147,-1.47332 3.09758,-1.66424 2.97367,-1.84928 2.97367,-2.10966 3.15953,-2.51941 3.96489,-3.47217 5.08002,-4.42305 2.10635,-1.53611 1.73464,-0.99907 1.48684,-0.60809 1.36293,-0.32445 1.30098,-0.086 1.30098,0.13672 1.36294,0.37501 1.42488,0.62536 1.61074,0.95394 1.9205,1.40381 2.66391,2.24933 8.48735,7.35646 3.09758,2.29475 3.03562,1.9739 3.03562,1.71095 3.15953,1.52455 3.28343,1.33723 3.46928,1.17269 3.71709,1.01789 3.90294,0.83757 4.15075,0.66284 4.39855,0.47385 4.52246,0.26275 4.58441,0.0459 4.58441,-0.174 4.46051,-0.38786 4.3366,-0.5999 4.0888,-0.78956 3.84099,-0.96686 3.59319,-1.1314 3.40733,-1.30626 3.22148,-1.47427 3.09757,-1.66527 2.97367,-1.85034 2.97367,-2.11076 3.15953,-2.52046 3.96489,-3.47293 5.01807,-4.37248 2.1683,-1.58363 1.73465,-0.99705 1.48683,-0.606 1.36293,-0.32233 1.30099,-0.0839 1.30098,0.13884 1.36293,0.37709 1.42488,0.62731 1.61074,0.95576 1.9205,1.40539 2.66391,2.25048 8.4254,7.30654 3.09758,2.29923 3.03562,1.97833 3.03562,1.71508 3.15953,1.52844 3.28342,1.3408 3.46929,1.17599 3.71709,1.02097 3.90294,0.84039 4.15075,0.66548 4.39855,0.47637 4.52246,0.26516 4.58441,0.0483 4.58441,-0.1716 4.46051,-0.38538 4.3366,-0.59727 4.0888,-0.78676 3.84099,-0.96384 3.59319,-1.12815 3.40733,-1.30273 3.22148,-1.47045 3.09757,-1.66117 2.97367,-1.84609 2.97367,-2.10638 3.15953,-2.51625 3.90294,-3.41414 5.14197,-4.48268 2.1683,-1.58184 1.73465,-0.99504 1.48683,-0.6039 1.36293,-0.32021 1.30099,-0.0818 1.30098,0.14095 1.36293,0.37918 1.42488,0.62925 1.61074,0.95758 1.98245,1.45609 2.72586,2.31216 8.11565,7.04899 3.15952,2.35831 3.03563,1.98828 3.03562,1.72442 3.15952,1.53721 3.28343,1.34888 3.46928,1.18343 3.65514,1.01263 3.90295,0.85027 4.15074,0.67476 4.33661,0.47993 4.52246,0.27665 4.58441,0.0595 4.58441,-0.1602 4.52245,-0.38044 4.33661,-0.58807 4.08879,-0.77699 3.841,-0.95333 3.59318,-1.11684 3.40733,-1.29039 3.22148,-1.45718 3.09757,-1.64688 2.97368,-1.8312 2.97367,-2.0911 3.15952,-2.50134 3.84099,-3.3475 5.45173,-4.75331 2.10635,-1.53088 1.73465,-0.99301 1.48683,-0.60181 1.36294,-0.31808 1.11512,-0.0819 v 0"
         clip-path="url(#pe7932ca574)"
         style="fill:none;stroke:#4c0c6b;stroke-width:1.5;stroke-linecap:square"
         id="path72" />
    </g>
    <g
       id="line2d_26">
      <path
         d="m 72.04,225.74625 0.557563,0.10376 0.619515,0.35502 0.681466,0.66787 0.80537,1.12881 0.991223,1.81309 1.300981,2.89625 2.230254,5.62495 3.097574,7.69308 2.044399,4.48319 1.920495,3.6879 1.920496,3.20299 1.920496,2.76911 1.982448,2.46439 2.044398,2.18486 2.106351,1.93245 2.230253,1.75149 2.416108,1.61323 2.60196,1.46413 2.78782,1.30991 3.03562,1.17605 3.28343,1.03022 3.59319,0.88936 3.84099,0.72083 4.15075,0.55181 4.39855,0.35926 4.58441,0.14921 4.58441,-0.0718 4.52246,-0.29163 4.3366,-0.50184 4.02685,-0.6863 3.71709,-0.85382 3.40733,-1.00473 3.15952,-1.16139 2.91172,-1.3088 2.66392,-1.442 2.47806,-1.59711 2.2922,-1.74364 2.1683,-1.9339 2.0444,-2.12732 1.9205,-2.3178 1.85854,-2.58888 1.85855,-2.98175 1.85854,-3.42392 1.85855,-3.89769 2.10635,-4.9662 5.63758,-13.6882 1.05318,-1.76026 0.80536,-0.95851 0.68147,-0.50634 0.61952,-0.19932 0.55756,0.0392 0.61951,0.28515 0.68147,0.59584 0.74342,0.96003 0.92927,1.59152 1.17708,2.49562 1.79659,4.41203 4.2127,10.495 2.0444,4.4109 1.9205,3.61991 1.92049,3.14092 1.9205,2.71476 1.98245,2.41635 2.04439,2.14302 2.16831,1.94783 2.2922,1.75587 2.41611,1.57107 2.60196,1.42669 2.78782,1.27688 3.03562,1.14644 3.34538,1.02065 3.59319,0.86147 3.90294,0.70522 4.2127,0.53137 4.39855,0.33093 4.58441,0.12152 4.58441,-0.0993 4.52246,-0.32023 4.27466,-0.52303 4.02684,-0.71544 3.71709,-0.88577 3.40733,-1.04005 3.09757,-1.17523 2.84977,-1.31668 2.60196,-1.44226 2.41611,-1.58859 2.29221,-1.77596 2.10635,-1.90998 2.0444,-2.15885 1.92049,-2.35278 1.85855,-2.62828 1.85854,-3.02672 1.85855,-3.47346 1.92049,-4.08827 2.10635,-5.03028 5.14197,-12.58112 1.05318,-1.87237 0.86732,-1.13112 0.74342,-0.61847 0.61951,-0.24488 0.55757,-0.002 0.55756,0.20453 0.61951,0.46286 0.74342,0.86133 0.86732,1.37676 1.11513,2.23942 1.54879,3.67991 5.63758,13.86784 1.98245,4.06237 1.92049,3.42604 1.9205,2.96635 1.9205,2.56293 1.98244,2.28257 2.10636,2.08339 2.1683,1.83632 2.35415,1.69909 2.47806,1.514 2.66392,1.36841 2.91171,1.24273 3.15953,1.10254 3.40733,0.95236 3.71709,0.80623 4.02685,0.64263 4.27465,0.45588 4.52246,0.25597 4.58441,0.0372 4.58441,-0.18433 4.39855,-0.39548 4.2127,-0.60087 3.90295,-0.78023 3.59318,-0.94377 3.28343,-1.09033 2.97367,-1.21568 2.78782,-1.37985 2.54001,-1.50362 2.35416,-1.64849 2.23025,-1.83524 2.10635,-2.02731 1.98245,-2.21981 1.92049,-2.49152 1.85855,-2.78399 1.79659,-3.08917 1.85854,-3.64939 1.9205,-4.26934 2.35415,-5.81819 3.59319,-8.91816 1.23903,-2.45803 0.92927,-1.40301 0.80537,-0.83061 0.68147,-0.38768 0.61951,-0.0871 0.55757,0.14051 0.61951,0.39454 0.68147,0.70829 0.80537,1.1707 0.99122,1.85402 1.36293,3.08071 2.54001,6.44976 2.78782,6.85449 2.0444,4.43853 1.92049,3.64574 1.9205,3.16445 1.9205,2.73534 1.98244,2.43453 2.0444,2.15885 2.1683,1.96188 2.29221,1.7682 2.41611,1.58182 2.60196,1.43626 2.78782,1.28531 3.03562,1.15402 3.28343,1.01055 3.59318,0.87147 3.90295,0.71437 4.15075,0.53355 4.39855,0.34197 4.58441,0.13234 4.58441,-0.0885 4.52246,-0.30901 4.27465,-0.51123 4.02685,-0.70257 3.71708,-0.87164 3.40734,-1.02442 3.09757,-1.15794 2.84977,-1.29731 2.66391,-1.45771 2.41611,-1.57107 2.2922,-1.75587 2.16831,-1.94783 2.0444,-2.14302 1.92049,-2.33522 1.85855,-2.6085 1.85854,-3.00416 1.85855,-3.44865 1.85854,-3.92312 2.10635,-4.99096 5.45173,-13.27543 1.05317,-1.80241 0.86733,-1.0593 0.68146,-0.51697 0.61952,-0.20947 0.55756,0.03 0.61951,0.27511 0.68147,0.58542 0.74342,0.94983 0.92927,1.58098 1.17708,2.48617 1.73464,4.24709 4.39856,10.94365 2.04439,4.38318 1.9205,3.59415 1.9205,3.11754 1.92049,2.69434 1.98245,2.39832 2.0444,2.12732 2.1683,1.9339 2.2922,1.74364 2.41611,1.5604 2.60197,1.4172 2.84976,1.2941 3.03562,1.13424 3.34539,1.00955 3.59318,0.85155 3.90294,0.69612 4.2127,0.52289 4.46051,0.32601 4.58441,0.11071 4.58441,-0.11011 4.46051,-0.32539 4.27465,-0.5316 3.96489,-0.71183 3.71709,-0.8921 3.40733,-1.04706 3.09758,-1.18298 2.84977,-1.32539 2.60196,-1.45194 2.41611,-1.59948 2.23025,-1.7362 2.10635,-1.91513 2.0444,-2.16483 1.9205,-2.3594 1.85854,-2.63574 1.85854,-3.0352 1.85855,-3.4828 1.92049,-4.09808 2.16831,-5.19445 4.95611,-12.1583 1.11513,-2.00871 0.86732,-1.1429 0.74342,-0.62989 0.61951,-0.25497 0.30976,-0.0321 v 0"
         clip-path="url(#pe7932ca574)"
         style="fill:none;stroke:#2b0b57;stroke-width:1.5;stroke-linecap:square"
         id="path73" />
    </g>
    <g
       id="line2d_27">
      <path
         d="m 72.04,156.3775 0.185854,0.12309 0.247806,0.54314 0.309758,1.26463 0.43366,2.76241 0.619515,5.55742 1.053175,11.93929 2.168302,24.8346 1.23903,11.57478 1.177078,9.05606 1.177078,7.45395 1.239029,6.4542 1.23903,5.3286 1.300981,4.64805 1.362933,4.05629 1.424884,3.54546 1.486835,3.10577 1.548787,2.72735 1.610739,2.40105 1.734641,2.19106 1.858545,1.98569 1.982447,1.78916 2.10635,1.60376 2.292203,1.46684 2.47806,1.32415 2.72587,1.20497 3.03562,1.09323 3.34538,0.9611 3.65514,0.81406 3.96489,0.65466 4.3366,0.48778 4.58441,0.29016 4.77027,0.0767 4.70831,-0.14421 4.58441,-0.36007 4.3366,-0.56286 3.9649,-0.73594 3.59318,-0.88783 3.28343,-1.03788 2.97367,-1.17288 2.66392,-1.28628 2.4161,-1.40797 2.23026,-1.55483 2.0444,-1.69454 1.92049,-1.88563 1.73464,-2.0089 1.67269,-2.28107 1.54879,-2.48873 1.48684,-2.81689 1.42488,-3.1945 1.36293,-3.62896 1.30098,-4.12769 1.23903,-4.69696 1.17708,-5.33982 1.17708,-6.42168 1.11513,-7.33226 1.11512,-8.81795 1.17708,-11.17334 1.36293,-15.27567 2.10635,-23.82492 0.61952,-4.62273 0.43366,-1.90752 0.30976,-0.58461 0.18585,-0.0246 0.18586,0.22124 0.2478,0.67081 0.37171,1.76956 0.49561,3.61026 0.74342,7.38619 1.73464,20.52406 1.48684,16.04493 1.23903,11.00837 1.17708,8.58606 1.23902,7.4066 1.23903,6.07545 1.30099,5.26024 1.30098,4.36617 1.36293,3.82522 1.42488,3.35607 1.48684,2.95019 1.54879,2.59909 1.67269,2.37598 1.73464,2.08747 1.85854,1.89709 1.98245,1.7136 2.1683,1.58089 2.35416,1.43857 2.54001,1.2925 2.78781,1.16999 3.09758,1.05518 3.40733,0.9212 3.71709,0.77286 4.0888,0.61981 4.39855,0.43909 4.64636,0.23844 4.77027,0.0209 4.70831,-0.20041 4.52246,-0.4125 4.2127,-0.60329 3.90294,-0.78175 3.53124,-0.9321 3.15952,-1.05812 2.84977,-1.18082 2.60196,-1.31273 2.35416,-1.42907 2.1683,-1.56995 2.0444,-1.75903 1.85854,-1.89291 1.73464,-2.08259 1.61074,-2.27496 1.54879,-2.57511 1.48684,-2.9212 1.36293,-3.16412 1.30098,-3.5668 1.30098,-4.24105 1.23903,-4.83423 1.17708,-5.50492 1.17708,-6.62976 1.11512,-7.57663 1.11513,-9.10923 1.17708,-11.50832 1.42488,-16.31507 1.73464,-19.68224 0.68147,-5.35505 0.43366,-2.04552 0.30976,-0.69183 0.18585,-0.0903 0.18586,0.15586 0.2478,0.58586 0.37171,1.65141 0.49561,3.47902 0.68147,6.58553 1.36293,16.00342 1.67269,18.81446 1.23903,11.5309 1.17708,9.01908 1.17708,7.42364 1.23903,6.42889 1.23903,5.30877 1.30098,4.63176 1.36293,4.04296 1.42488,3.53456 1.48684,3.09683 1.54879,2.71999 1.61073,2.39498 1.73465,2.18584 1.85854,1.98125 1.98245,1.78537 2.10635,1.60054 2.2922,1.46403 2.47806,1.32172 2.72587,1.20282 3.03562,1.09131 3.34538,0.9594 3.65514,0.81256 4.02684,0.66184 4.33661,0.48337 4.58441,0.286 4.77026,0.0726 4.70831,-0.14829 4.58441,-0.36436 4.27465,-0.55772 3.9649,-0.73739 3.59319,-0.88944 3.28342,-1.03971 2.97367,-1.17495 2.66392,-1.28861 2.41611,-1.4106 2.23025,-1.55789 2.0444,-1.69804 1.92049,-1.88975 1.73465,-2.01354 1.67269,-2.28668 1.54878,-2.49522 1.48684,-2.82474 1.42488,-3.20398 1.36293,-3.64045 1.30099,-4.14164 1.23903,-4.71383 1.17707,-5.3601 1.17708,-6.44726 1.11513,-7.36234 1.11512,-8.85394 1.17708,-11.2152 1.36294,-15.31427 2.04439,-23.19339 0.61952,-4.74034 0.43366,-2.01122 0.30976,-0.66509 0.18585,-0.0739 0.18586,0.17222 0.2478,0.60717 0.37171,1.68112 0.49561,3.51214 0.68147,6.6161 1.36293,16.0185 1.67269,18.79182 1.23903,11.50898 1.17708,9.00065 1.17708,7.40852 1.23903,6.41629 1.23903,5.29889 1.30098,4.62364 1.36293,4.03632 1.42488,3.52912 1.48684,3.09238 1.54879,2.71633 1.61074,2.39195 1.73464,2.18323 1.85854,1.97903 1.98245,1.78348 2.10635,1.59894 2.2922,1.46262 2.54001,1.35053 2.72587,1.19641 3.03562,1.08558 3.34538,0.95432 3.65514,0.80804 4.02685,0.65772 4.3366,0.4796 4.58441,0.28245 4.77026,0.0691 4.70832,-0.15178 4.58441,-0.36805 4.27465,-0.56166 3.96489,-0.74174 3.59319,-0.89429 3.28343,-1.0452 2.97367,-1.18118 2.66391,-1.29562 2.41611,-1.41857 2.23025,-1.56708 2.0444,-1.70861 1.85854,-1.8356 1.73465,-2.01586 1.67269,-2.28949 1.54878,-2.49849 1.48684,-2.82866 1.42488,-3.20874 1.36294,-3.64622 1.30098,-4.14863 1.23903,-4.7223 1.17707,-5.37028 1.17708,-6.4601 1.11513,-7.37742 1.11513,-8.87198 1.17707,-11.23614 1.36294,-15.33339 2.0444,-23.15834 0.61951,-4.70141 0.43366,-1.97679 0.30976,-0.6383 0.18585,-0.0575 0.18586,0.18858 0.2478,0.62843 0.37171,1.71071 0.49561,3.54506 0.68147,6.64634 1.42488,16.77623 1.61074,18.02593 1.23903,11.48705 1.17708,8.98225 1.17708,7.39346 1.23903,6.40371 1.23903,5.28904 1.30098,4.61554 1.36293,4.02968 1.42489,3.5237 1.48683,3.08794 1.54879,2.71266 1.61074,2.38893 1.73464,2.18064 1.85854,1.97681 1.98245,1.7816 2.10635,1.59733 2.2922,1.46122 2.54001,1.34929 2.72587,1.19534 3.03562,1.08463 3.34538,0.95347 3.65514,0.80729 4.02685,0.65704 4.3366,0.47897 4.58441,0.28186 4.77026,0.0686 4.70832,-0.15236 4.58441,-0.36866 4.27465,-0.56232 3.96489,-0.74248 3.59319,-0.89509 3.28343,-1.04612 2.91172,-1.15495 2.66391,-1.29094 2.41611,-1.41326 2.23025,-1.56094 2.0444,-1.70155 1.9205,-1.89388 1.73464,-2.0182 1.67269,-2.2923 1.54878,-2.50175 1.48684,-2.83261 1.42488,-3.2135 1.36294,-3.652 1.30098,-4.15564 1.23903,-4.73079 1.17707,-5.38049 1.17708,-6.47295 1.11513,-7.39255 1.11513,-8.89006 1.17708,-11.25708 1.36293,-15.35237 2.0444,-23.12256 0.61951,-4.6622 0.43366,-1.94222 0.30976,-0.61148 0.1239,-0.0548 v 0"
         clip-path="url(#pe7932ca574)"
         style="fill:none;stroke:#0e092b;stroke-width:1.5;stroke-linecap:square"
         id="path74" />
    </g>
    <g
       id="line2d_28">
      <path
         d="m 73.888622,-1 0.443583,57.293508 0.557563,46.666892 0.619515,34.24706 0.681466,25.8516 0.743418,19.97832 0.805369,15.74891 0.867321,12.62713 0.929272,10.27324 0.991224,8.46506 1.053175,7.05315 1.115127,5.93451 1.177078,5.03665 1.239029,4.3075 1.300981,3.70902 1.362933,3.21299 1.424884,2.79819 1.486836,2.44841 1.610738,2.23001 1.734642,2.0177 1.858544,1.81581 1.982447,1.62669 2.168303,1.49022 2.35416,1.34797 2.60196,1.23159 2.84977,1.10287 3.15952,0.9847 3.53123,0.86505 3.90295,0.72435 4.27465,0.56577 4.64636,0.38842 4.89417,0.18462 4.95612,-0.0333 4.89416,-0.25293 4.64636,-0.46084 4.27466,-0.64434 3.84099,-0.79726 3.46928,-0.94093 3.09758,-1.0633 2.78781,-1.18522 2.54001,-1.31915 2.29221,-1.4395 2.10635,-1.58778 1.92049,-1.72882 1.73465,-1.85402 1.61073,-2.03663 1.54879,-2.32184 1.42488,-2.53776 1.36294,-2.89022 1.30098,-3.30516 1.17708,-3.58914 1.11512,-4.08765 1.11513,-4.97424 1.05318,-5.79601 0.99122,-6.79539 0.92927,-8.01996 0.86732,-9.53199 0.80537,-11.41277 0.74342,-13.76809 0.68147,-16.73384 0.61951,-20.47959 0.61951,-28.5568 0.55757,-37.398394 0.49561,-49.97753 L 194.08216,-1 m 3.69723,0 0.45577,58.576045 0.55757,46.214745 0.61951,33.97717 0.68147,25.68267 0.74342,19.86832 0.80537,15.67484 0.86732,12.5758 0.92927,10.23678 0.99122,8.43858 1.05318,7.03355 1.11512,5.91977 1.17708,5.02538 1.23903,4.29876 1.30098,3.70216 1.36294,3.20756 1.42488,2.79383 1.48684,2.44488 1.61073,2.22703 1.73465,2.01517 1.85854,1.8137 1.98245,1.62492 2.1683,1.48869 2.35416,1.34665 2.60196,1.23044 2.84977,1.10188 3.15952,0.98381 3.53124,0.86428 3.90294,0.72365 4.27465,0.56515 4.64636,0.38783 4.89417,0.18406 4.95612,-0.0338 4.89416,-0.2535 4.64637,-0.46145 4.27465,-0.64502 3.84099,-0.798 3.46928,-0.94177 3.09758,-1.06425 2.78781,-1.1863 2.54001,-1.32041 2.29221,-1.44095 2.10635,-1.58946 1.92049,-1.73078 1.73465,-1.85625 1.61073,-2.03926 1.54879,-2.32507 1.42489,-2.54154 1.36293,-2.8949 1.30098,-3.31097 1.17708,-3.596 1.11512,-4.09618 1.11513,-4.98562 1.05318,-5.81072 0.99122,-6.81455 0.92927,-8.04529 0.86732,-9.56589 0.80537,-11.4588 0.74342,-13.83153 0.68147,-16.82259 0.61951,-20.60561 0.61952,-28.76457 0.55756,-37.727006 0.49561,-50.517037 L 317.97243,-1 m 3.69756,0 0.46814,59.844856 0.55756,45.769154 0.61951,33.71046 0.68147,25.5154 0.74342,19.75923 0.80537,15.60129 0.86732,12.52478 0.92927,10.2005 0.99122,8.41224 1.05318,7.01404 1.11513,5.90507 1.17707,5.01414 1.23903,4.29005 1.30098,3.69533 1.36294,3.20213 1.42488,2.78948 1.48684,2.44136 1.61074,2.22405 1.73464,2.01266 1.85854,1.81159 1.98245,1.62315 2.1683,1.48715 2.35416,1.34534 2.60196,1.22929 2.84977,1.10089 3.15952,0.98294 3.53124,0.8635 3.90294,0.72295 4.27465,0.56452 4.64636,0.38725 4.89417,0.1835 4.95612,-0.0344 4.89416,-0.25407 4.64637,-0.46206 4.27465,-0.64569 3.84099,-0.79875 3.46928,-0.94261 3.09758,-1.0652 2.78781,-1.18739 2.54001,-1.32167 2.29221,-1.44239 2.10635,-1.59116 1.9205,-1.73273 1.73464,-1.85849 1.61074,-2.0419 1.54878,-2.32829 1.42489,-2.54535 1.36293,-2.89958 1.30098,-3.31679 1.17708,-3.60288 1.11512,-4.10473 1.11513,-4.99706 1.05318,-5.82546 0.99122,-6.8338 0.92927,-8.07073 0.86732,-9.59998 0.80537,-11.50512 0.74342,-13.89541 0.68147,-16.91205 0.61951,-20.73279 0.61952,-28.97461 0.55756,-38.059982 0.49561,-51.065355 L 441.86286,-1 m 3.69756,0 0.48067,61.100162 0.55756,45.329998 0.61951,33.44689 0.68147,25.34976 0.74342,19.65102 0.80537,15.52826 0.86732,12.47407 0.92927,10.16443 0.99123,8.38601 1.05317,6.9946 1.11513,5.89043 1.17707,5.00295 1.23903,4.28137 1.30098,3.68851 1.36294,3.19672 1.42488,2.78513 1.48684,2.43784 1.61074,2.22108 1.73464,2.01016 1.85854,1.80948 1.98245,1.62138 2.1683,1.48562 2.35416,1.34403 2.60196,1.22814 2.91172,1.12137 3.22148,0.99475 3.53123,0.85496 3.90294,0.71534 4.33661,0.56417 4.64636,0.37791 4.89416,0.17459 4.95612,-0.0432 4.89417,-0.26324 4.64636,-0.47191 4.27465,-0.65649 3.84099,-0.8107 3.46929,-0.95618 3.09757,-1.08054 2.78782,-1.20493 2.47806,-1.30604 2.2922,-1.45841 2.0444,-1.55822 1.9205,-1.74454 1.73464,-1.87202 1.61074,-2.05781 1.54879,-2.34779 1.42488,-2.56834 1.36293,-2.92792 1.30098,-3.35202 1.17708,-3.64458 1.11513,-4.15659 1.05317,-4.75617 1.05318,-5.84027 0.99122,-6.85313 0.92927,-8.0963 0.86732,-9.63424 0.80537,-11.55172 0.74342,-13.95972 0.68147,-17.00222 0.61951,-20.86117 0.55757,-25.75456 0.55756,-36.753934 0.49561,-48.924204 L 565.75346,-1 m 3.69723,0 0.49336,62.342176 0.55756,44.897154 0.61951,33.1864 0.68147,25.18572 0.74342,19.54372 0.80537,15.45573 0.86732,12.42367 0.92927,10.12854 0.99122,8.3599 1.05318,6.97526 1.11513,5.87584 1.17707,4.99178 1.23904,4.27271 1.30098,3.68171 1.36293,3.19132 1.42488,2.78081 1.54879,2.52704 1.61074,2.20335 1.73464,1.99522 1.85854,1.79692 1.98245,1.6108 2.1683,1.47649 2.35416,1.33619 2.60196,1.22129 2.91172,1.11532 3.22148,0.98945 3.53123,0.85033 3.9649,0.72081 4.3366,0.55723 4.64636,0.37153 4.89417,0.16847 4.95612,-0.0492 4.89416,-0.26956 4.58441,-0.47076 4.27466,-0.66056 3.84099,-0.81523 3.46928,-0.96131 3.09757,-1.08635 2.78782,-1.2116 2.47806,-1.31355 2.2922,-1.46725 2.0444,-1.56822 1.9205,-1.75646 1.73464,-1.88568 1.61074,-2.0739 1.54879,-2.36752 1.42488,-2.59164 1.36293,-2.95666 1.23903,-3.21159 1.17708,-3.6516 1.11513,-4.16532 1.05317,-4.76713 1.05318,-5.85513 0.99122,-6.87254 0.92927,-8.12198 0.86732,-9.6687 0.80537,-11.59859 0.74342,-14.0245 0.68147,-17.09311 0.61951,-20.99074 0.55757,-25.94198 0.55756,-37.074055 L 689.3865,35.243797 689.64423,-1 v 0"
         clip-path="url(#pe7932ca574)"
         style="fill:none;stroke:#000004;stroke-width:1.5;stroke-linecap:square"
         id="path75" />
    </g>
    <g
       id="patch_3">
      <path
         d="M 72.04,295.115 V 17.64"
         style="fill:none;stroke:#000000;stroke-width:2;stroke-linecap:square;stroke-linejoin:miter"
         id="path76" />
    </g>
    <g
       id="patch_4">
      <path
         d="M 691.49285,295.115 V 17.64"
         style="fill:none;stroke:#000000;stroke-width:2;stroke-linecap:square;stroke-linejoin:miter"
         id="path77" />
    </g>
    <g
       id="patch_5">
      <path
         d="M 72.04,295.115 H 691.49285"
         style="fill:none;stroke:#000000;stroke-width:2;stroke-linecap:square;stroke-linejoin:miter"
         id="path78" />
    </g>
    <g
       id="patch_6">
      <path
         d="M 72.04,17.64 H 691.49285"
         style="fill:none;stroke:#000000;stroke-width:2;stroke-linecap:square;stroke-linejoin:miter"
         id="path79" />
    </g>
  </g>
  <g
     id="legend_1"
     transform="translate(-28.7008,16.694745)">
    <g
       id="patch_7">
      <path
         d="M 634.1,170.8 H 713 q 2,0 2,-2 V 7 q 0,-2 -2,-2 h -78.9 q -2,0 -2,2 v 161.8 q 0,2 2,2 z"
         style="opacity:1;fill:#ffffff;stroke:#000000;stroke-linejoin:miter"
         id="path80" />
    </g>
    <g
       id="line2d_29">
      <path
         d="m 636.1,13.2 h 10 10"
         style="fill:none;stroke:#f98c0a;stroke-width:1.5;stroke-linecap:square"
         id="path81" />
    </g>
    <g
       id="text_20">
      <!-- $\beta = -1.0$ -->
      <g
         transform="matrix(0.1,0,0,-0.1,664.1,16.7)"
         id="g86">
        <defs
           id="defs81">
          <path
             id="DejaVuSans-Oblique-3b2"
             d="M 872,216 572,-1331 H -6 l 934,4809 q 278,1425 1610,1425 1350,0 1121,-1203 Q 3503,2844 2894,2531 3713,2250 3553,1416 3272,-69 1759,-66 1097,-63 872,216 Z m 147,750 q 240,-544 856,-541 900,0 1091,981 172,882 -1291,813 l 103,531 q 1131,-19 1328,1000 135,688 -597,684 -818,0 -1006,-975 z"
             transform="scale(0.015625)" />
          <path
             id="DejaVuSans-3d"
             d="M 678,2906 H 4684 V 2381 H 678 Z m 0,-1275 H 4684 V 1100 H 678 Z"
             transform="scale(0.015625)" />
          <path
             id="DejaVuSans-2212"
             d="M 678,2272 H 4684 V 1741 H 678 Z"
             transform="scale(0.015625)" />
          <path
             id="DejaVuSans-2e"
             d="m 684,794 h 660 V 0 H 684 Z"
             transform="scale(0.015625)" />
        </defs>
        <use
           xlink:href="#DejaVuSans-Oblique-3b2"
           transform="translate(0,0.390625)"
           id="use81" />
        <use
           xlink:href="#DejaVuSans-3d"
           transform="translate(83.300781,0.390625)"
           id="use82" />
        <use
           xlink:href="#DejaVuSans-2212"
           transform="translate(206.05469,0.390625)"
           id="use83" />
        <use
           xlink:href="#DejaVuSans-31"
           transform="translate(309.32617,0.390625)"
           id="use84" />
        <use
           xlink:href="#DejaVuSans-2e"
           transform="translate(372.94922,0.390625)"
           id="use85" />
        <use
           xlink:href="#DejaVuSans-30"
           transform="translate(404.73633,0.390625)"
           id="use86" />
      </g>
    </g>
    <g
       id="line2d_30">
      <path
         d="m 636.1,28 h 10 10"
         style="fill:none;stroke:#ef6c23;stroke-width:1.5;stroke-linecap:square"
         id="path86" />
    </g>
    <g
       id="text_21">
      <!-- $\beta = -0.8$ -->
      <g
         transform="matrix(0.1,0,0,-0.1,664.1,31.5)"
         id="g92">
        <use
           xlink:href="#DejaVuSans-Oblique-3b2"
           transform="translate(0,0.390625)"
           id="use87" />
        <use
           xlink:href="#DejaVuSans-3d"
           transform="translate(83.300781,0.390625)"
           id="use88" />
        <use
           xlink:href="#DejaVuSans-2212"
           transform="translate(206.05469,0.390625)"
           id="use89" />
        <use
           xlink:href="#DejaVuSans-30"
           transform="translate(309.32617,0.390625)"
           id="use90" />
        <use
           xlink:href="#DejaVuSans-2e"
           transform="translate(372.94922,0.390625)"
           id="use91" />
        <use
           xlink:href="#DejaVuSans-38"
           transform="translate(402.11133,0.390625)"
           id="use92" />
      </g>
    </g>
    <g
       id="line2d_31">
      <path
         d="m 636.1,42.8 h 10 10"
         style="fill:none;stroke:#dd513a;stroke-width:1.5;stroke-linecap:square"
         id="path92" />
    </g>
    <g
       id="text_22">
      <!-- $\beta = -0.6$ -->
      <g
         transform="matrix(0.1,0,0,-0.1,664.1,46.3)"
         id="g98">
        <use
           xlink:href="#DejaVuSans-Oblique-3b2"
           transform="translate(0,0.390625)"
           id="use93" />
        <use
           xlink:href="#DejaVuSans-3d"
           transform="translate(83.300781,0.390625)"
           id="use94" />
        <use
           xlink:href="#DejaVuSans-2212"
           transform="translate(206.05469,0.390625)"
           id="use95" />
        <use
           xlink:href="#DejaVuSans-30"
           transform="translate(309.32617,0.390625)"
           id="use96" />
        <use
           xlink:href="#DejaVuSans-2e"
           transform="translate(372.94922,0.390625)"
           id="use97" />
        <use
           xlink:href="#DejaVuSans-36"
           transform="translate(404.73633,0.390625)"
           id="use98" />
      </g>
    </g>
    <g
       id="line2d_32">
      <path
         d="m 636.1,57.6 h 10 10"
         style="fill:none;stroke:#c43c4e;stroke-width:1.5;stroke-linecap:square"
         id="path98" />
    </g>
    <g
       id="text_23">
      <!-- $\beta = -0.4$ -->
      <g
         transform="matrix(0.1,0,0,-0.1,664.1,61.1)"
         id="g104">
        <use
           xlink:href="#DejaVuSans-Oblique-3b2"
           transform="translate(0,0.390625)"
           id="use99" />
        <use
           xlink:href="#DejaVuSans-3d"
           transform="translate(83.300781,0.390625)"
           id="use100" />
        <use
           xlink:href="#DejaVuSans-2212"
           transform="translate(206.05469,0.390625)"
           id="use101" />
        <use
           xlink:href="#DejaVuSans-30"
           transform="translate(309.32617,0.390625)"
           id="use102" />
        <use
           xlink:href="#DejaVuSans-2e"
           transform="translate(372.94922,0.390625)"
           id="use103" />
        <use
           xlink:href="#DejaVuSans-34"
           transform="translate(404.73633,0.390625)"
           id="use104" />
      </g>
    </g>
    <g
       id="line2d_33">
      <path
         d="m 636.1,72.4 h 10 10"
         style="fill:none;stroke:#a82e5f;stroke-width:1.5;stroke-linecap:square"
         id="path104" />
    </g>
    <g
       id="text_24">
      <!-- $\beta = -0.2$ -->
      <g
         transform="matrix(0.1,0,0,-0.1,664.1,75.9)"
         id="g110">
        <use
           xlink:href="#DejaVuSans-Oblique-3b2"
           transform="translate(0,0.390625)"
           id="use105" />
        <use
           xlink:href="#DejaVuSans-3d"
           transform="translate(83.300781,0.390625)"
           id="use106" />
        <use
           xlink:href="#DejaVuSans-2212"
           transform="translate(206.05469,0.390625)"
           id="use107" />
        <use
           xlink:href="#DejaVuSans-30"
           transform="translate(309.32617,0.390625)"
           id="use108" />
        <use
           xlink:href="#DejaVuSans-2e"
           transform="translate(372.94922,0.390625)"
           id="use109" />
        <use
           xlink:href="#DejaVuSans-32"
           transform="translate(399.23633,0.390625)"
           id="use110" />
      </g>
    </g>
    <g
       id="line2d_34">
      <path
         d="m 636.1,87.2 h 10 10"
         style="fill:none;stroke:#88226a;stroke-width:1.5;stroke-linecap:square"
         id="path110" />
    </g>
    <g
       id="text_25">
      <!-- $\beta = 0.0$ -->
      <g
         transform="matrix(0.1,0,0,-0.1,664.1,90.7)"
         id="g115">
        <use
           xlink:href="#DejaVuSans-Oblique-3b2"
           transform="translate(0,0.390625)"
           id="use111" />
        <use
           xlink:href="#DejaVuSans-3d"
           transform="translate(83.300781,0.390625)"
           id="use112" />
        <use
           xlink:href="#DejaVuSans-30"
           transform="translate(186.57227,0.390625)"
           id="use113" />
        <use
           xlink:href="#DejaVuSans-2e"
           transform="translate(250.19531,0.390625)"
           id="use114" />
        <use
           xlink:href="#DejaVuSans-30"
           transform="translate(281.98242,0.390625)"
           id="use115" />
      </g>
    </g>
    <g
       id="line2d_35">
      <path
         d="m 636.1,102 h 10 10"
         style="fill:none;stroke:#6a176e;stroke-width:1.5;stroke-linecap:square"
         id="path115" />
    </g>
    <g
       id="text_26">
      <!-- $\beta = 0.2$ -->
      <g
         transform="matrix(0.1,0,0,-0.1,664.1,105.5)"
         id="g120">
        <use
           xlink:href="#DejaVuSans-Oblique-3b2"
           transform="translate(0,0.390625)"
           id="use116" />
        <use
           xlink:href="#DejaVuSans-3d"
           transform="translate(83.300781,0.390625)"
           id="use117" />
        <use
           xlink:href="#DejaVuSans-30"
           transform="translate(186.57227,0.390625)"
           id="use118" />
        <use
           xlink:href="#DejaVuSans-2e"
           transform="translate(250.19531,0.390625)"
           id="use119" />
        <use
           xlink:href="#DejaVuSans-32"
           transform="translate(276.48242,0.390625)"
           id="use120" />
      </g>
    </g>
    <g
       id="line2d_36">
      <path
         d="m 636.1,116.8 h 10 10"
         style="fill:none;stroke:#4c0c6b;stroke-width:1.5;stroke-linecap:square"
         id="path120" />
    </g>
    <g
       id="text_27">
      <!-- $\beta = 0.4$ -->
      <g
         transform="matrix(0.1,0,0,-0.1,664.1,120.3)"
         id="g125">
        <use
           xlink:href="#DejaVuSans-Oblique-3b2"
           transform="translate(0,0.390625)"
           id="use121" />
        <use
           xlink:href="#DejaVuSans-3d"
           transform="translate(83.300781,0.390625)"
           id="use122" />
        <use
           xlink:href="#DejaVuSans-30"
           transform="translate(186.57227,0.390625)"
           id="use123" />
        <use
           xlink:href="#DejaVuSans-2e"
           transform="translate(250.19531,0.390625)"
           id="use124" />
        <use
           xlink:href="#DejaVuSans-34"
           transform="translate(281.98242,0.390625)"
           id="use125" />
      </g>
    </g>
    <g
       id="line2d_37">
      <path
         d="m 636.1,131.6 h 10 10"
         style="fill:none;stroke:#2b0b57;stroke-width:1.5;stroke-linecap:square"
         id="path125" />
    </g>
    <g
       id="text_28">
      <!-- $\beta = 0.6$ -->
      <g
         transform="matrix(0.1,0,0,-0.1,664.1,135.1)"
         id="g130">
        <use
           xlink:href="#DejaVuSans-Oblique-3b2"
           transform="translate(0,0.390625)"
           id="use126" />
        <use
           xlink:href="#DejaVuSans-3d"
           transform="translate(83.300781,0.390625)"
           id="use127" />
        <use
           xlink:href="#DejaVuSans-30"
           transform="translate(186.57227,0.390625)"
           id="use128" />
        <use
           xlink:href="#DejaVuSans-2e"
           transform="translate(250.19531,0.390625)"
           id="use129" />
        <use
           xlink:href="#DejaVuSans-36"
           transform="translate(281.98242,0.390625)"
           id="use130" />
      </g>
    </g>
    <g
       id="line2d_38">
      <path
         d="m 636.1,146.4 h 10 10"
         style="fill:none;stroke:#0e092b;stroke-width:1.5;stroke-linecap:square"
         id="path130" />
    </g>
    <g
       id="text_29">
      <!-- $\beta = 0.8$ -->
      <g
         transform="matrix(0.1,0,0,-0.1,664.1,149.9)"
         id="g135">
        <use
           xlink:href="#DejaVuSans-Oblique-3b2"
           transform="translate(0,0.390625)"
           id="use131" />
        <use
           xlink:href="#DejaVuSans-3d"
           transform="translate(83.300781,0.390625)"
           id="use132" />
        <use
           xlink:href="#DejaVuSans-30"
           transform="translate(186.57227,0.390625)"
           id="use133" />
        <use
           xlink:href="#DejaVuSans-2e"
           transform="translate(250.19531,0.390625)"
           id="use134" />
        <use
           xlink:href="#DejaVuSans-38"
           transform="translate(279.35742,0.390625)"
           id="use135" />
      </g>
    </g>
    <g
       id="line2d_39">
      <path
         d="m 636.1,161.2 h 10 10"
         style="fill:none;stroke:#000004;stroke-width:1.5;stroke-linecap:square"
         id="path135" />
    </g>
    <g
       id="text_30">
      <!-- $\beta = 1.0$ -->
      <g
         transform="matrix(0.1,0,0,-0.1,664.1,164.7)"
         id="g140">
        <use
           xlink:href="#DejaVuSans-Oblique-3b2"
           transform="translate(0,0.390625)"
           id="use136" />
        <use
           xlink:href="#DejaVuSans-3d"
           transform="translate(83.300781,0.390625)"
           id="use137" />
        <use
           xlink:href="#DejaVuSans-31"
           transform="translate(186.57227,0.390625)"
           id="use138" />
        <use
           xlink:href="#DejaVuSans-2e"
           transform="translate(250.19531,0.390625)"
           id="use139" />
        <use
           xlink:href="#DejaVuSans-30"
           transform="translate(281.98242,0.390625)"
           id="use140" />
      </g>
    </g>
  </g>
  <defs
     id="defs140">
    <clipPath
       id="pe7932ca574">
      <rect
         x="72.04"
         y="17.64"
         width="619.452852"
         height="277.475"
         id="rect140" />
    </clipPath>
  </defs>
</svg>
