<?xml version="1.0" encoding="UTF-8" standalone="no"?>
<svg
   width="720pt"
   height="382.73383pt"
   viewBox="0 0 720 382.73383"
   version="1.1"
   id="svg74"
   sodipodi:docname="comb_filter.svg"
   inkscape:version="1.3.2 (091e20ef0f, 2023-11-25, custom)"
   inkscape:export-filename="comb_filter_spectrum.png"
   inkscape:export-xdpi="80"
   inkscape:export-ydpi="80"
   xmlns:inkscape="http://www.inkscape.org/namespaces/inkscape"
   xmlns:sodipodi="http://sodipodi.sourceforge.net/DTD/sodipodi-0.dtd"
   xmlns:xlink="http://www.w3.org/1999/xlink"
   xmlns="http://www.w3.org/2000/svg"
   xmlns:svg="http://www.w3.org/2000/svg"
   xmlns:rdf="http://www.w3.org/1999/02/22-rdf-syntax-ns#"
   xmlns:cc="http://creativecommons.org/ns#"
   xmlns:dc="http://purl.org/dc/elements/1.1/">
  <sodipodi:namedview
     id="namedview74"
     pagecolor="#505050"
     bordercolor="#eeeeee"
     borderopacity="1"
     inkscape:showpageshadow="0"
     inkscape:pageopacity="0"
     inkscape:pagecheckerboard="0"
     inkscape:deskcolor="#d1d1d1"
     inkscape:document-units="pt"
     showgrid="false"
     inkscape:zoom="1.3223958"
     inkscape:cx="345.96298"
     inkscape:cy="155.02166"
     inkscape:window-width="3802"
     inkscape:window-height="2092"
     inkscape:window-x="0"
     inkscape:window-y="0"
     inkscape:window-maximized="0"
     inkscape:current-layer="svg74" />
  <metadata
     id="metadata1">
    <rdf:RDF>
      <cc:Work>
        <dc:type
           rdf:resource="http://purl.org/dc/dcmitype/StillImage" />
        <dc:date>2024-03-09T21:29:06.631612</dc:date>
        <dc:format>image/svg+xml</dc:format>
        <dc:creator>
          <cc:Agent>
            <dc:title>Matplotlib v3.8.3, https://matplotlib.org/</dc:title>
          </cc:Agent>
        </dc:creator>
      </cc:Work>
    </rdf:RDF>
  </metadata>
  <defs
     id="defs1">
    <style
       type="text/css"
       id="style1">*{stroke-linejoin: round; stroke-linecap: butt}</style>
  </defs>
  <g
     id="g75"
     transform="translate(0,22.733803)">
    <g
       id="patch_1">
      <path
         d="M 0,360.00002 H 720 V -22.733803 H 0 Z"
         style="fill:#ffffff;stroke-width:1"
         id="path1" />
    </g>
    <g
       id="axes_1">
      <g
         id="patch_2">
        <path
           d="M 72.04,295.115 H 691.49285 V 10.8 H 72.04 Z"
           style="fill:#ffffff"
           id="path2" />
      </g>
      <g
         id="matplotlib.axis_1">
        <g
           id="xtick_1">
          <g
             id="line2d_1">
            <defs
               id="defs2">
              <path
                 id="m00bc862f64"
                 d="M 0,0 V 10"
                 style="stroke:#000000;stroke-width:2" />
            </defs>
            <g
               id="g2">
              <use
                 xlink:href="#m00bc862f64"
                 x="72.040001"
                 y="295.11499"
                 style="stroke:#000000;stroke-width:2"
                 id="use2" />
            </g>
          </g>
          <g
             id="text_1">
            <!-- 0$\pi$ -->
            <g
               transform="matrix(0.18,0,0,-0.18,60.88,322.29219)"
               id="g4">
              <defs
                 id="defs3">
                <path
                   id="DejaVuSans-30"
                   d="m 2034,4250 q -487,0 -733,-480 -245,-479 -245,-1442 0,-959 245,-1439 246,-480 733,-480 491,0 736,480 246,480 246,1439 0,963 -246,1442 -245,480 -736,480 z m 0,500 q 785,0 1199,-621 414,-620 414,-1801 0,-1178 -414,-1799 -414,-620 -1199,-620 -784,0 -1198,620 -414,621 -414,1799 0,1181 414,1801 414,621 1198,621 z"
                   transform="scale(0.015625)" />
                <path
                   id="DejaVuSans-Oblique-3c0"
                   d="M 584,3500 H 3938 L 3825,2925 H 3384 L 2966,775 q -44,-225 15,-325 57,-97 228,-97 47,0 116,10 72,6 94,9 l -81,-416 q -116,-40 -235,-59 -122,-19 -237,-19 -375,0 -478,203 -104,207 3,757 l 406,2087 H 1506 L 938,0 H 350 L 919,2925 H 472 Z"
                   transform="scale(0.015625)" />
              </defs>
              <use
                 xlink:href="#DejaVuSans-30"
                 transform="translate(0,0.78125)"
                 id="use3" />
              <use
                 xlink:href="#DejaVuSans-Oblique-3c0"
                 transform="translate(63.623047,0.78125)"
                 id="use4" />
            </g>
          </g>
        </g>
        <g
           id="xtick_2">
          <g
             id="line2d_2">
            <g
               id="g5">
              <use
                 xlink:href="#m00bc862f64"
                 x="133.98529"
                 y="295.11499"
                 style="stroke:#000000;stroke-width:2"
                 id="use5" />
            </g>
          </g>
          <g
             id="text_2">
            <!-- 1$\pi$ -->
            <g
               transform="matrix(0.18,0,0,-0.18,122.82528,322.29219)"
               id="g7">
              <defs
                 id="defs5">
                <path
                   id="DejaVuSans-31"
                   d="M 794,531 H 1825 V 4091 L 703,3866 v 575 l 1116,225 h 631 V 531 H 3481 V 0 H 794 Z"
                   transform="scale(0.015625)" />
              </defs>
              <use
                 xlink:href="#DejaVuSans-31"
                 transform="translate(0,0.09375)"
                 id="use6" />
              <use
                 xlink:href="#DejaVuSans-Oblique-3c0"
                 transform="translate(63.623047,0.09375)"
                 id="use7" />
            </g>
          </g>
        </g>
        <g
           id="xtick_3">
          <g
             id="line2d_3">
            <g
               id="g8">
              <use
                 xlink:href="#m00bc862f64"
                 x="195.93057"
                 y="295.11499"
                 style="stroke:#000000;stroke-width:2"
                 id="use8" />
            </g>
          </g>
          <g
             id="text_3">
            <!-- 2$\pi$ -->
            <g
               transform="matrix(0.18,0,0,-0.18,184.77057,322.29219)"
               id="g10">
              <defs
                 id="defs8">
                <path
                   id="DejaVuSans-32"
                   d="M 1228,531 H 3431 V 0 H 469 v 531 q 359,372 979,998 621,627 780,809 303,340 423,576 121,236 121,464 0,372 -261,606 -261,235 -680,235 -297,0 -627,-103 -329,-103 -704,-313 v 638 q 381,153 712,231 332,78 607,78 725,0 1156,-363 431,-362 431,-968 0,-288 -108,-546 -107,-257 -392,-607 -78,-91 -497,-524 Q 1991,1309 1228,531 Z"
                   transform="scale(0.015625)" />
              </defs>
              <use
                 xlink:href="#DejaVuSans-32"
                 transform="translate(0,0.78125)"
                 id="use9" />
              <use
                 xlink:href="#DejaVuSans-Oblique-3c0"
                 transform="translate(63.623047,0.78125)"
                 id="use10" />
            </g>
          </g>
        </g>
        <g
           id="xtick_4">
          <g
             id="line2d_4">
            <g
               id="g11">
              <use
                 xlink:href="#m00bc862f64"
                 x="257.87585"
                 y="295.11499"
                 style="stroke:#000000;stroke-width:2"
                 id="use11" />
            </g>
          </g>
          <g
             id="text_4">
            <!-- 3$\pi$ -->
            <g
               transform="matrix(0.18,0,0,-0.18,246.71585,322.29219)"
               id="g13">
              <defs
                 id="defs11">
                <path
                   id="DejaVuSans-33"
                   d="m 2597,2516 q 453,-97 707,-404 255,-306 255,-756 0,-690 -475,-1069 -475,-378 -1350,-378 -293,0 -604,58 -311,58 -642,174 v 609 q 262,-153 574,-231 313,-78 654,-78 593,0 904,234 311,234 311,681 0,413 -289,645 -289,233 -804,233 h -544 v 519 h 569 q 465,0 712,186 247,186 247,536 0,359 -255,551 -254,193 -729,193 -260,0 -557,-57 -297,-56 -653,-174 v 562 q 360,100 674,150 314,50 592,50 719,0 1137,-327 419,-326 419,-882 0,-388 -222,-655 -222,-267 -631,-370 z"
                   transform="scale(0.015625)" />
              </defs>
              <use
                 xlink:href="#DejaVuSans-33"
                 transform="translate(0,0.78125)"
                 id="use12" />
              <use
                 xlink:href="#DejaVuSans-Oblique-3c0"
                 transform="translate(63.623047,0.78125)"
                 id="use13" />
            </g>
          </g>
        </g>
        <g
           id="xtick_5">
          <g
             id="line2d_5">
            <g
               id="g14">
              <use
                 xlink:href="#m00bc862f64"
                 x="319.82114"
                 y="295.11499"
                 style="stroke:#000000;stroke-width:2"
                 id="use14" />
            </g>
          </g>
          <g
             id="text_5">
            <!-- 4$\pi$ -->
            <g
               transform="matrix(0.18,0,0,-0.18,308.66114,322.29219)"
               id="g16">
              <defs
                 id="defs14">
                <path
                   id="DejaVuSans-34"
                   d="M 2419,4116 825,1625 h 1594 z m -166,550 h 794 V 1625 h 666 V 1100 H 3047 V 0 H 2419 V 1100 H 313 v 609 z"
                   transform="scale(0.015625)" />
              </defs>
              <use
                 xlink:href="#DejaVuSans-34"
                 transform="translate(0,0.09375)"
                 id="use15" />
              <use
                 xlink:href="#DejaVuSans-Oblique-3c0"
                 transform="translate(63.623047,0.09375)"
                 id="use16" />
            </g>
          </g>
        </g>
        <g
           id="xtick_6">
          <g
             id="line2d_6">
            <g
               id="g17">
              <use
                 xlink:href="#m00bc862f64"
                 x="381.76642"
                 y="295.11499"
                 style="stroke:#000000;stroke-width:2"
                 id="use17" />
            </g>
          </g>
          <g
             id="text_6">
            <!-- 5$\pi$ -->
            <g
               transform="matrix(0.18,0,0,-0.18,370.60643,322.29219)"
               id="g19">
              <defs
                 id="defs17">
                <path
                   id="DejaVuSans-35"
                   d="M 691,4666 H 3169 V 4134 H 1269 V 2991 q 137,47 274,70 138,23 276,23 781,0 1237,-428 457,-428 457,-1159 Q 3513,744 3044,326 2575,-91 1722,-91 1428,-91 1123,-41 819,9 494,109 v 635 q 281,-153 581,-228 300,-75 634,-75 541,0 856,284 316,284 316,772 0,487 -316,771 -315,285 -856,285 -253,0 -505,-56 -251,-56 -513,-175 z"
                   transform="scale(0.015625)" />
              </defs>
              <use
                 xlink:href="#DejaVuSans-35"
                 transform="translate(0,0.09375)"
                 id="use18" />
              <use
                 xlink:href="#DejaVuSans-Oblique-3c0"
                 transform="translate(63.623047,0.09375)"
                 id="use19" />
            </g>
          </g>
        </g>
        <g
           id="xtick_7">
          <g
             id="line2d_7">
            <g
               id="g20">
              <use
                 xlink:href="#m00bc862f64"
                 x="443.7117"
                 y="295.11499"
                 style="stroke:#000000;stroke-width:2"
                 id="use20" />
            </g>
          </g>
          <g
             id="text_7">
            <!-- 6$\pi$ -->
            <g
               transform="matrix(0.18,0,0,-0.18,432.55171,322.29219)"
               id="g22">
              <defs
                 id="defs20">
                <path
                   id="DejaVuSans-36"
                   d="m 2113,2584 q -425,0 -674,-291 -248,-290 -248,-796 0,-503 248,-796 249,-292 674,-292 425,0 673,292 248,293 248,796 0,506 -248,796 -248,291 -673,291 z m 1253,1979 v -575 q -238,112 -480,171 -242,60 -480,60 -625,0 -955,-422 -329,-422 -376,-1275 184,272 462,417 279,145 613,145 703,0 1111,-427 408,-426 408,-1160 0,-719 -425,-1154 -425,-434 -1131,-434 -810,0 -1238,620 -428,621 -428,1799 0,1106 525,1764 525,658 1409,658 238,0 480,-47 242,-47 505,-140 z"
                   transform="scale(0.015625)" />
              </defs>
              <use
                 xlink:href="#DejaVuSans-36"
                 transform="translate(0,0.78125)"
                 id="use21" />
              <use
                 xlink:href="#DejaVuSans-Oblique-3c0"
                 transform="translate(63.623047,0.78125)"
                 id="use22" />
            </g>
          </g>
        </g>
        <g
           id="xtick_8">
          <g
             id="line2d_8">
            <g
               id="g23">
              <use
                 xlink:href="#m00bc862f64"
                 x="505.65698"
                 y="295.11499"
                 style="stroke:#000000;stroke-width:2"
                 id="use23" />
            </g>
          </g>
          <g
             id="text_8">
            <!-- 7$\pi$ -->
            <g
               transform="matrix(0.18,0,0,-0.18,494.497,322.29219)"
               id="g25">
              <defs
                 id="defs23">
                <path
                   id="DejaVuSans-37"
                   d="M 525,4666 H 3525 V 4397 L 1831,0 H 1172 L 2766,4134 H 525 Z"
                   transform="scale(0.015625)" />
              </defs>
              <use
                 xlink:href="#DejaVuSans-37"
                 transform="translate(0,0.09375)"
                 id="use24" />
              <use
                 xlink:href="#DejaVuSans-Oblique-3c0"
                 transform="translate(63.623047,0.09375)"
                 id="use25" />
            </g>
          </g>
        </g>
        <g
           id="xtick_9">
          <g
             id="line2d_9">
            <g
               id="g26">
              <use
                 xlink:href="#m00bc862f64"
                 x="567.60229"
                 y="295.11499"
                 style="stroke:#000000;stroke-width:2"
                 id="use26" />
            </g>
          </g>
          <g
             id="text_9">
            <!-- 8$\pi$ -->
            <g
               transform="matrix(0.18,0,0,-0.18,556.44228,322.29219)"
               id="g28">
              <defs
                 id="defs26">
                <path
                   id="DejaVuSans-38"
                   d="m 2034,2216 q -450,0 -708,-241 -257,-241 -257,-662 0,-422 257,-663 258,-241 708,-241 450,0 709,242 260,243 260,662 0,421 -258,662 -257,241 -711,241 z m -631,268 q -406,100 -633,378 -226,279 -226,679 0,559 398,884 399,325 1092,325 697,0 1094,-325 397,-325 397,-884 0,-400 -227,-679 -226,-278 -629,-378 456,-106 710,-416 255,-309 255,-755 Q 3634,634 3220,271 2806,-91 2034,-91 1263,-91 848,271 434,634 434,1313 q 0,446 256,755 257,310 713,416 z m -231,997 q 0,-362 226,-565 227,-203 636,-203 407,0 636,203 230,203 230,565 0,363 -230,566 -229,203 -636,203 -409,0 -636,-203 -226,-203 -226,-566 z"
                   transform="scale(0.015625)" />
              </defs>
              <use
                 xlink:href="#DejaVuSans-38"
                 transform="translate(0,0.78125)"
                 id="use27" />
              <use
                 xlink:href="#DejaVuSans-Oblique-3c0"
                 transform="translate(63.623047,0.78125)"
                 id="use28" />
            </g>
          </g>
        </g>
        <g
           id="xtick_10">
          <g
             id="line2d_10">
            <g
               id="g29">
              <use
                 xlink:href="#m00bc862f64"
                 x="629.54755"
                 y="295.11499"
                 style="stroke:#000000;stroke-width:2"
                 id="use29" />
            </g>
          </g>
          <g
             id="text_10">
            <!-- 9$\pi$ -->
            <g
               transform="matrix(0.18,0,0,-0.18,618.38757,322.29219)"
               id="g31">
              <defs
                 id="defs29">
                <path
                   id="DejaVuSans-39"
                   d="m 703,97 v 575 q 238,-113 481,-172 244,-59 479,-59 625,0 954,420 330,420 377,1277 -181,-269 -460,-413 -278,-144 -615,-144 -700,0 -1108,423 -408,424 -408,1159 0,718 425,1152 425,435 1131,435 810,0 1236,-621 427,-620 427,-1801 Q 3622,1225 3098,567 2575,-91 1691,-91 1453,-91 1209,-44 966,3 703,97 Z m 1256,1978 q 425,0 673,290 249,291 249,798 0,503 -249,795 -248,292 -673,292 -425,0 -673,-292 -248,-292 -248,-795 0,-507 248,-798 248,-290 673,-290 z"
                   transform="scale(0.015625)" />
              </defs>
              <use
                 xlink:href="#DejaVuSans-39"
                 transform="translate(0,0.78125)"
                 id="use30" />
              <use
                 xlink:href="#DejaVuSans-Oblique-3c0"
                 transform="translate(63.623047,0.78125)"
                 id="use31" />
            </g>
          </g>
        </g>
        <g
           id="xtick_11">
          <g
             id="line2d_11">
            <g
               id="g32">
              <use
                 xlink:href="#m00bc862f64"
                 x="691.49286"
                 y="295.11499"
                 style="stroke:#000000;stroke-width:2"
                 id="use32" />
            </g>
          </g>
          <g
             id="text_11">
            <!-- 10$\pi$ -->
            <g
               transform="matrix(0.18,0,0,-0.18,674.57285,322.29219)"
               id="g35">
              <use
                 xlink:href="#DejaVuSans-31"
                 transform="translate(0,0.78125)"
                 id="use33" />
              <use
                 xlink:href="#DejaVuSans-30"
                 transform="translate(63.623047,0.78125)"
                 id="use34" />
              <use
                 xlink:href="#DejaVuSans-Oblique-3c0"
                 transform="translate(127.24609,0.78125)"
                 id="use35" />
            </g>
          </g>
        </g>
        <g
           id="text_12">
          <!-- $\omega \tau$ [rad/s] -->
          <g
             transform="matrix(0.1728,0,0,-0.1728,338.04803,343.16572)"
             id="g45">
            <defs
               id="defs35">
              <path
                 id="DejaVuSans-Oblique-3c9"
                 d="m 1369,-91 q -1297,0 -935,1857 141,734 822,1734 h 619 Q 1231,2500 1088,1750 819,397 1519,397 q 647,0 959,1681 h 531 Q 2669,388 3316,397 q 697,6 959,1353 144,750 -106,1750 h 619 Q 5075,2500 4934,1766 4578,-94 3278,-91 2428,-88 2503,844 2194,-91 1369,-91 Z"
                 transform="scale(0.015625)" />
              <path
                 id="DejaVuSans-Oblique-3c4"
                 d="m 2103,638 q 85,-150 422,-150 h 275 L 2706,0 h -343 q -563,0 -763,300 -197,306 -66,969 l 322,1656 H 541 l 112,575 H 3881 L 3769,2925 H 2444 L 2113,1234 q -88,-453 -10,-596 z"
                 transform="scale(0.015625)" />
              <path
                 id="DejaVuSans-20"
                 transform="scale(0.015625)"
                 d="" />
              <path
                 id="DejaVuSans-5b"
                 d="M 550,4863 H 1875 V 4416 H 1125 V -397 h 750 V -844 H 550 Z"
                 transform="scale(0.015625)" />
              <path
                 id="DejaVuSans-72"
                 d="m 2631,2963 q -97,56 -211,82 -114,27 -251,27 -488,0 -749,-317 -261,-317 -261,-911 V 0 H 581 v 3500 h 578 v -544 q 182,319 472,473 291,155 707,155 59,0 131,-8 72,-7 159,-23 z"
                 transform="scale(0.015625)" />
              <path
                 id="DejaVuSans-61"
                 d="m 2194,1759 q -697,0 -966,-159 -269,-159 -269,-544 0,-306 202,-486 202,-179 548,-179 479,0 768,339 289,339 289,901 v 128 z m 1147,238 V 0 H 2766 V 531 Q 2569,213 2275,61 1981,-91 1556,-91 q -537,0 -855,302 -317,302 -317,808 0,590 395,890 396,300 1180,300 h 807 v 57 q 0,397 -261,614 -261,217 -733,217 -300,0 -585,-72 -284,-72 -546,-216 v 532 q 315,122 612,182 297,61 578,61 760,0 1135,-394 375,-393 375,-1193 z"
                 transform="scale(0.015625)" />
              <path
                 id="DejaVuSans-64"
                 d="m 2906,2969 v 1894 h 575 V 0 H 2906 V 525 Q 2725,213 2448,61 2172,-91 1784,-91 1150,-91 751,415 353,922 353,1747 q 0,825 398,1331 399,506 1033,506 388,0 664,-152 277,-151 458,-463 z M 947,1747 q 0,-634 261,-995 261,-361 717,-361 456,0 718,361 263,361 263,995 0,634 -263,995 -262,361 -718,361 -456,0 -717,-361 -261,-361 -261,-995 z"
                 transform="scale(0.015625)" />
              <path
                 id="DejaVuSans-2f"
                 d="m 1625,4666 h 531 L 531,-594 H 0 Z"
                 transform="scale(0.015625)" />
              <path
                 id="DejaVuSans-73"
                 d="m 2834,3397 v -544 q -243,125 -506,187 -262,63 -544,63 -428,0 -642,-131 -214,-131 -214,-394 0,-200 153,-314 153,-114 616,-217 l 197,-44 q 612,-131 870,-370 258,-239 258,-667 0,-488 -386,-773 Q 2250,-91 1575,-91 1294,-91 989,-36 684,19 347,128 v 594 q 319,-166 628,-249 309,-82 613,-82 406,0 624,139 219,139 219,392 0,234 -158,359 -157,125 -692,241 l -200,47 q -534,112 -772,345 -237,233 -237,639 0,494 350,762 350,269 994,269 318,0 599,-47 282,-46 519,-140 z"
                 transform="scale(0.015625)" />
              <path
                 id="DejaVuSans-5d"
                 d="M 1947,4863 V -844 H 622 v 447 h 747 V 4416 H 622 v 447 z"
                 transform="scale(0.015625)" />
            </defs>
            <use
               xlink:href="#DejaVuSans-Oblique-3c9"
               transform="translate(0,0.015625)"
               id="use36" />
            <use
               xlink:href="#DejaVuSans-Oblique-3c4"
               transform="translate(83.740234,0.015625)"
               id="use37" />
            <use
               xlink:href="#DejaVuSans-20"
               transform="translate(143.94531,0.015625)"
               id="use38" />
            <use
               xlink:href="#DejaVuSans-5b"
               transform="translate(175.73242,0.015625)"
               id="use39" />
            <use
               xlink:href="#DejaVuSans-72"
               transform="translate(214.74609,0.015625)"
               id="use40" />
            <use
               xlink:href="#DejaVuSans-61"
               transform="translate(255.85937,0.015625)"
               id="use41" />
            <use
               xlink:href="#DejaVuSans-64"
               transform="translate(317.13867,0.015625)"
               id="use42" />
            <use
               xlink:href="#DejaVuSans-2f"
               transform="translate(380.61523,0.015625)"
               id="use43" />
            <use
               xlink:href="#DejaVuSans-73"
               transform="translate(414.30664,0.015625)"
               id="use44" />
            <use
               xlink:href="#DejaVuSans-5d"
               transform="translate(466.40625,0.015625)"
               id="use45" />
          </g>
        </g>
      </g>
      <g
         id="matplotlib.axis_2">
        <g
           id="ytick_1">
          <g
             id="line2d_12">
            <defs
               id="defs45">
              <path
                 id="mba6315d65b"
                 d="M 0,0 H -10"
                 style="stroke:#000000;stroke-width:2" />
            </defs>
            <g
               id="g46">
              <use
                 xlink:href="#mba6315d65b"
                 x="72.040001"
                 y="241.98524"
                 style="stroke:#000000;stroke-width:2"
                 id="use46" />
            </g>
          </g>
          <g
             id="text_13">
            <!-- 2 -->
            <g
               transform="matrix(0.18,0,0,-0.18,47.0875,248.82383)"
               id="g47">
              <use
                 xlink:href="#DejaVuSans-32"
                 id="use47" />
            </g>
          </g>
        </g>
        <g
           id="ytick_2">
          <g
             id="line2d_13">
            <g
               id="g48">
              <use
                 xlink:href="#mba6315d65b"
                 x="72.040001"
                 y="187.41948"
                 style="stroke:#000000;stroke-width:2"
                 id="use48" />
            </g>
          </g>
          <g
             id="text_14">
            <!-- 4 -->
            <g
               transform="matrix(0.18,0,0,-0.18,47.0875,194.25807)"
               id="g49">
              <use
                 xlink:href="#DejaVuSans-34"
                 id="use49" />
            </g>
          </g>
        </g>
        <g
           id="ytick_3">
          <g
             id="line2d_14">
            <g
               id="g50">
              <use
                 xlink:href="#mba6315d65b"
                 x="72.040001"
                 y="132.85371"
                 style="stroke:#000000;stroke-width:2"
                 id="use50" />
            </g>
          </g>
          <g
             id="text_15">
            <!-- 6 -->
            <g
               transform="matrix(0.18,0,0,-0.18,47.0875,139.69231)"
               id="g51">
              <use
                 xlink:href="#DejaVuSans-36"
                 id="use51" />
            </g>
          </g>
        </g>
        <g
           id="ytick_4">
          <g
             id="line2d_15">
            <g
               id="g52">
              <use
                 xlink:href="#mba6315d65b"
                 x="72.040001"
                 y="78.287956"
                 style="stroke:#000000;stroke-width:2"
                 id="use52" />
            </g>
          </g>
          <g
             id="text_16">
            <!-- 8 -->
            <g
               transform="matrix(0.18,0,0,-0.18,47.0875,85.126552)"
               id="g53">
              <use
                 xlink:href="#DejaVuSans-38"
                 id="use53" />
            </g>
          </g>
        </g>
        <g
           id="ytick_5">
          <g
             id="line2d_16">
            <g
               id="g54">
              <use
                 xlink:href="#mba6315d65b"
                 x="72.040001"
                 y="23.722197"
                 style="stroke:#000000;stroke-width:2"
                 id="use54" />
            </g>
          </g>
          <g
             id="text_17">
            <!-- 10 -->
            <g
               transform="matrix(0.18,0,0,-0.18,35.635,30.560791)"
               id="g56">
              <use
                 xlink:href="#DejaVuSans-31"
                 id="use55" />
              <use
                 xlink:href="#DejaVuSans-30"
                 x="63.623047"
                 id="use56" />
            </g>
          </g>
        </g>
        <g
           id="text_18">
          <!-- $|H(i\omega)|$ -->
          <g
             transform="matrix(0,-0.1728,-0.1728,0,27.4878,181.7287)"
             id="g63">
            <defs
               id="defs56">
              <path
                 id="DejaVuSans-7c"
                 d="M 1344,4891 V -1509 H 813 v 6400 z"
                 transform="scale(0.015625)" />
              <path
                 id="DejaVuSans-Oblique-48"
                 d="m 1081,4666 h 635 L 1344,2753 h 2290 l 372,1913 h 635 L 3731,0 h -634 l 434,2222 H 1241 L 806,0 H 172 Z"
                 transform="scale(0.015625)" />
              <path
                 id="DejaVuSans-28"
                 d="m 1984,4856 q -418,-718 -622,-1422 -203,-703 -203,-1425 0,-721 205,-1429 205,-708 620,-1424 h -500 q -468,735 -701,1444 -233,709 -233,1409 0,697 231,1403 232,707 703,1444 z"
                 transform="scale(0.015625)" />
              <path
                 id="DejaVuSans-Oblique-69"
                 d="m 1172,4863 h 575 L 1606,4134 H 1031 Z M 909,3500 h 575 L 800,0 H 225 Z"
                 transform="scale(0.015625)" />
              <path
                 id="DejaVuSans-29"
                 d="m 513,4856 h 500 q 468,-737 701,-1444 233,-706 233,-1403 0,-700 -233,-1409 -233,-709 -701,-1444 H 513 q 415,716 620,1424 205,708 205,1429 0,722 -205,1425 -205,704 -620,1422 z"
                 transform="scale(0.015625)" />
            </defs>
            <use
               xlink:href="#DejaVuSans-7c"
               transform="translate(0,0.578125)"
               id="use57" />
            <use
               xlink:href="#DejaVuSans-Oblique-48"
               transform="translate(33.691406,0.578125)"
               id="use58" />
            <use
               xlink:href="#DejaVuSans-28"
               transform="translate(108.88672,0.578125)"
               id="use59" />
            <use
               xlink:href="#DejaVuSans-Oblique-69"
               transform="translate(147.90039,0.578125)"
               id="use60" />
            <use
               xlink:href="#DejaVuSans-Oblique-3c9"
               transform="translate(175.68359,0.578125)"
               id="use61" />
            <use
               xlink:href="#DejaVuSans-29"
               transform="translate(259.42383,0.578125)"
               id="use62" />
            <use
               xlink:href="#DejaVuSans-7c"
               transform="translate(298.4375,0.578125)"
               id="use63" />
          </g>
        </g>
      </g>
      <g
         id="line2d_17">
        <path
           d="m 72.04,282.19159 4.894167,-0.11098 4.770264,-0.33 4.460507,-0.52908 4.088797,-0.70503 3.717089,-0.86359 3.34538,-1.00315 2.973666,-1.11795 2.72587,-1.2616 2.41611,-1.35792 2.23025,-1.50664 2.0444,-1.65111 1.85854,-1.78441 1.73465,-1.97327 1.61073,-2.16886 1.48684,-2.36623 1.42488,-2.68447 1.36294,-3.05558 1.30098,-3.49063 1.23903,-4.00309 1.17707,-4.60949 1.11513,-5.32982 1.05318,-6.1879 0.99122,-7.21117 0.92927,-8.42944 0.86732,-9.87116 0.86732,-12.56297 0.80537,-15.04106 0.80537,-19.61366 0.74342,-23.64876 0.80537,-33.13127 1.73464,-76.745776 0.24781,-3.686859 0.1239,-0.435256 0.1239,0.531696 0.18586,2.56574 0.30975,8.48213 0.49562,21.127229 1.73464,79.489446 0.86732,27.4972 0.86732,20.39374 0.86732,15.37495 0.92927,12.60782 0.99123,10.38177 0.99122,8.15419 1.05317,6.91863 1.11513,5.89965 1.17708,5.05716 1.23903,4.35759 1.30098,3.77361 1.36293,3.2833 1.42489,2.86915 1.54878,2.61311 1.61074,2.28235 1.73464,2.06953 1.85855,1.86583 1.98245,1.67401 2.1683,1.53549 2.35415,1.3904 2.60197,1.27153 2.84976,1.13956 3.15953,1.0182 3.46928,0.88134 3.841,0.74349 4.21269,0.58604 4.52246,0.40451 4.83222,0.20637 4.89417,-0.0132 4.83221,-0.23336 4.58441,-0.44009 4.27465,-0.63085 3.90295,-0.79937 3.46928,-0.93172 3.15952,-1.0758 2.84977,-1.20519 2.54001,-1.31212 2.29221,-1.42781 2.10635,-1.56959 1.92049,-1.70236 1.7966,-1.88826 1.67269,-2.08283 1.54878,-2.28222 1.48684,-2.5978 1.36293,-2.82784 1.30098,-3.21024 1.23903,-3.6555 1.17708,-4.17561 1.11513,-4.78461 1.05317,-5.49859 0.99123,-6.33521 0.99122,-7.85801 0.92927,-9.26568 0.86732,-10.95309 0.80537,-12.94797 0.80537,-16.68892 0.74342,-19.99603 0.74342,-25.86531 0.86732,-38.713719 1.23903,-56.744441 0.37171,-7.855416 0.18585,-0.86834 0.1239,0.627968 0.18586,2.703029 0.30976,8.671869 0.55756,24.316629 1.54879,71.698921 0.86732,28.57707 0.86732,21.17959 0.86732,15.9234 0.92927,13.01634 0.92927,10.09316 0.99123,8.49135 1.05317,7.1773 1.11513,6.09951 1.17708,5.21286 1.23903,4.47994 1.30098,3.87063 1.36293,3.3609 1.42488,2.93173 1.48684,2.56806 1.61074,2.34068 1.73464,2.11882 1.79659,1.84894 1.98245,1.71833 2.10635,1.53264 2.2922,1.39591 2.54002,1.28412 2.78781,1.15721 3.09758,1.0402 3.40733,0.90645 3.77904,0.77169 4.15075,0.61704 4.52245,0.44288 4.77027,0.24149 4.89417,0.0255 4.83221,-0.19381 4.64636,-0.40534 4.33661,-0.59874 3.96489,-0.7698 3.53124,-0.90567 3.22147,-1.05263 2.91172,-1.18614 2.60196,-1.29907 2.35416,-1.4219 2.1683,-1.57218 1.98245,-1.71646 1.79659,-1.84679 1.67269,-2.03402 1.54879,-2.22502 1.48683,-2.52795 1.42489,-2.88239 1.30098,-3.13611 1.23903,-3.56422 1.17708,-4.06252 1.11512,-4.64371 1.05318,-5.32208 1.05317,-6.53855 0.99123,-7.6619 0.92927,-9.01119 0.86732,-10.62258 0.80537,-12.52113 0.80537,-16.09328 0.74342,-19.24194 0.74342,-24.89579 0.80536,-34.607899 1.48684,-67.320569 0.30976,-5.817342 0.18585,-0.724039 0.1239,0.724039 0.18586,2.839487 0.30976,8.859225 0.55756,24.487194 1.54879,71.559904 0.86732,28.45533 0.86732,21.09051 0.86732,15.8612 0.92927,12.97005 0.99122,10.65048 0.99123,8.34445 1.05317,7.06476 1.11513,6.01268 1.17708,5.14529 1.23903,4.4269 1.30098,3.82861 1.36293,3.32733 1.42489,2.90467 1.48683,2.54606 1.61074,2.32204 1.73464,2.10308 1.85855,1.8941 1.98244,1.69783 2.16831,1.55609 2.35415,1.40809 2.54001,1.25918 2.78782,1.13547 3.09757,1.02099 3.46928,0.90379 3.77904,0.75298 4.15075,0.60011 4.52246,0.42718 4.77027,0.22666 4.89416,0.0109 4.83222,-0.20866 4.64636,-0.42114 4.27465,-0.60554 3.90295,-0.77118 3.53123,-0.91877 3.15952,-1.04473 2.84977,-1.16975 2.60197,-1.30636 2.35415,-1.43027 2.10635,-1.53264 1.98245,-1.71833 1.79659,-1.84894 1.67269,-2.03655 1.54879,-2.22798 1.48683,-2.53156 1.42489,-2.88682 1.30098,-3.14133 1.23903,-3.57062 1.17708,-4.07046 1.11512,-4.65357 1.05318,-5.33441 0.99122,-6.12864 0.99123,-7.577 0.92927,-8.90126 0.86732,-10.48013 0.80537,-12.33755 0.80537,-15.83732 0.74342,-18.91724 0.74341,-24.47409 0.80537,-34.120139 1.61074,-71.557452 0.30976,-4.481951 0.062,-0.193684 0.0619,0.04846 0.12391,0.81988 0.2478,4.403557 0.37171,12.384979 0.74342,35.43466 1.11512,51.09038 0.86732,29.56602 0.86733,21.90847 0.86732,16.43271 0.92927,13.39491 0.92927,10.35834 0.99122,8.69302 1.05318,7.3314 1.11513,6.21815 1.17707,5.30496 1.23903,4.55212 1.30099,3.92769 1.36293,3.40644 1.42488,2.96838 1.48684,2.5978 1.61074,2.36588 1.67269,2.06983 1.79659,1.87722 1.9205,1.69301 2.10635,1.56146 2.2922,1.42079 2.54001,1.30598 2.78782,1.17621 3.03562,1.03804 3.40733,0.92528 3.71709,0.77734 4.0888,0.62765 4.4605,0.45818 4.77027,0.2633 4.89416,0.0468 4.89417,-0.17589 4.64636,-0.38547 4.33661,-0.57712 3.96489,-0.74581 3.59319,-0.89667 3.22147,-1.0268 2.91172,-1.15661 2.60197,-1.26564 2.35415,-1.38366 2.1683,-1.52766 1.98245,-1.66497 1.85855,-1.85511 1.73464,-2.05683 1.61074,-2.26734 1.48683,-2.48168 1.42489,-2.8256 1.30098,-3.06946 1.23903,-3.48239 1.17707,-3.96146 1.11513,-4.51819 1.05318,-5.16543 1.05317,-6.32798 0.99123,-7.39084 0.92927,-8.66077 0.86732,-10.16927 0.86732,-12.98025 0.80537,-15.5866 0.74341,-18.5989 0.74342,-24.05835 0.80537,-33.62746 1.67269,-74.169231 0.30976,-4.254233 0.062,-0.145317 0.062,0.0969 0.12391,0.915462 0.2478,4.579535 0.37171,12.580636 0.74342,35.553409 1.11512,50.952049 0.86733,29.44099 0.86732,21.81577 0.86732,16.36789 0.92927,13.34676 0.92927,10.32467 0.99122,8.66743 1.05318,7.31189 1.11513,6.20313 1.17707,5.29332 1.23904,4.54301 1.30098,3.92049 1.36293,3.40069 1.42488,2.96377 1.48684,2.59405 1.61074,2.36271 1.67269,2.06725 1.79659,1.87502 1.9205,1.69115 2.10635,1.55984 2.2922,1.41939 2.54001,1.30476 2.78782,1.17514 3.03562,1.03712 3.40733,0.92446 3.71709,0.77661 4.0888,0.62699 4.4605,0.45757 4.77027,0.26273 3.46928,0.0556 v 0"
           clip-path="url(#p0c6848008c)"
           style="fill:none;stroke:#000000;stroke-width:1.5;stroke-linecap:square"
           id="path63" />
      </g>
      <g
         id="patch_3">
        <path
           d="M 72.04,295.115 V 10.8"
           style="fill:none;stroke:#000000;stroke-width:2;stroke-linecap:square;stroke-linejoin:miter"
           id="path64" />
      </g>
      <g
         id="patch_4">
        <path
           d="M 691.49285,295.115 V 10.8"
           style="fill:none;stroke:#000000;stroke-width:2;stroke-linecap:square;stroke-linejoin:miter"
           id="path65" />
      </g>
      <g
         id="patch_5">
        <path
           d="M 72.04,295.115 H 691.49285"
           style="fill:none;stroke:#000000;stroke-width:2;stroke-linecap:square;stroke-linejoin:miter"
           id="path66" />
      </g>
      <g
         id="patch_6">
        <path
           d="M 72.04,10.8 H 691.49285"
           style="fill:none;stroke:#000000;stroke-width:2;stroke-linecap:square;stroke-linejoin:miter"
           id="path67" />
      </g>
    </g>
    <g
       id="legend_1"
       transform="translate(-23.00715,-15.219053)">
      <g
         id="patch_7">
        <path
           d="M 634.1,22.8 H 713 q 2,0 2,-2 V 7 q 0,-2 -2,-2 h -78.9 q -2,0 -2,2 v 13.8 q 0,2 2,2 z"
           style="opacity:1;fill:#ffffff;stroke:#000000;stroke-linejoin:miter"
           id="path68" />
      </g>
      <g
         id="line2d_18">
        <path
           d="m 636.1,13.2 h 10 10"
           style="fill:none;stroke:#000000;stroke-width:1.5;stroke-linecap:square"
           id="path69" />
      </g>
      <g
         id="text_19">
        <!-- $\beta = -0.9$ -->
        <g
           transform="matrix(0.1,0,0,-0.1,664.1,16.7)"
           id="g74">
          <defs
             id="defs69">
            <path
               id="DejaVuSans-Oblique-3b2"
               d="M 872,216 572,-1331 H -6 l 934,4809 q 278,1425 1610,1425 1350,0 1121,-1203 Q 3503,2844 2894,2531 3713,2250 3553,1416 3272,-69 1759,-66 1097,-63 872,216 Z m 147,750 q 240,-544 856,-541 900,0 1091,981 172,882 -1291,813 l 103,531 q 1131,-19 1328,1000 135,688 -597,684 -818,0 -1006,-975 z"
               transform="scale(0.015625)" />
            <path
               id="DejaVuSans-3d"
               d="M 678,2906 H 4684 V 2381 H 678 Z m 0,-1275 H 4684 V 1100 H 678 Z"
               transform="scale(0.015625)" />
            <path
               id="DejaVuSans-2212"
               d="M 678,2272 H 4684 V 1741 H 678 Z"
               transform="scale(0.015625)" />
            <path
               id="DejaVuSans-2e"
               d="m 684,794 h 660 V 0 H 684 Z"
               transform="scale(0.015625)" />
          </defs>
          <use
             xlink:href="#DejaVuSans-Oblique-3b2"
             transform="translate(0,0.390625)"
             id="use69" />
          <use
             xlink:href="#DejaVuSans-3d"
             transform="translate(83.300781,0.390625)"
             id="use70" />
          <use
             xlink:href="#DejaVuSans-2212"
             transform="translate(206.05469,0.390625)"
             id="use71" />
          <use
             xlink:href="#DejaVuSans-30"
             transform="translate(309.32617,0.390625)"
             id="use72" />
          <use
             xlink:href="#DejaVuSans-2e"
             transform="translate(372.94922,0.390625)"
             id="use73" />
          <use
             xlink:href="#DejaVuSans-39"
             transform="translate(404.73633,0.390625)"
             id="use74" />
        </g>
      </g>
    </g>
  </g>
  <defs
     id="defs74">
    <clipPath
       id="p0c6848008c">
      <rect
         x="72.040001"
         y="10.8"
         width="619.45288"
         height="284.315"
         id="rect74" />
    </clipPath>
  </defs>
</svg>
