<?xml version="1.0" encoding="utf-8" standalone="no"?>
<!DOCTYPE svg PUBLIC "-//W3C//DTD SVG 1.1//EN"
  "http://www.w3.org/Graphics/SVG/1.1/DTD/svg11.dtd">
<svg xmlns:xlink="http://www.w3.org/1999/xlink" width="720pt" height="360pt" viewBox="0 0 720 360" xmlns="http://www.w3.org/2000/svg" version="1.1">
 <metadata>
  <rdf:RDF xmlns:dc="http://purl.org/dc/elements/1.1/" xmlns:cc="http://creativecommons.org/ns#" xmlns:rdf="http://www.w3.org/1999/02/22-rdf-syntax-ns#">
   <cc:Work>
    <dc:type rdf:resource="http://purl.org/dc/dcmitype/StillImage"/>
    <dc:date>2024-03-10T12:28:07.410566</dc:date>
    <dc:format>image/svg+xml</dc:format>
    <dc:creator>
     <cc:Agent>
      <dc:title>Matplotlib v3.8.3, https://matplotlib.org/</dc:title>
     </cc:Agent>
    </dc:creator>
   </cc:Work>
  </rdf:RDF>
 </metadata>
 <defs>
  <style type="text/css">*{stroke-linejoin: round; stroke-linecap: butt}</style>
 </defs>
 <g id="figure_1">
  <g id="patch_1">
   <path d="M 0 360
L 720 360
L 720 0
L 0 0
z
" style="fill: #ffffff"/>
  </g>
  <g id="axes_1">
   <g id="patch_2">
    <path d="M 72.04 295.115
L 691.492852 295.115
L 691.492852 10.8
L 72.04 10.8
z
" style="fill: #ffffff"/>
   </g>
   <g id="matplotlib.axis_1">
    <g id="xtick_1">
     <g id="line2d_1">
      <defs>
       <path id="mec1916995f" d="M 0 0
L 0 10
" style="stroke: #000000; stroke-width: 2"/>
      </defs>
      <g>
       <use xlink:href="#mec1916995f" x="72.04" y="295.115" style="stroke: #000000; stroke-width: 2"/>
      </g>
     </g>
     <g id="text_1">
      <!-- 0$\pi$ -->
      <g transform="translate(60.88 322.292187) scale(0.18 -0.18)">
       <defs>
        <path id="DejaVuSans-30" d="M 2034 4250
Q 1547 4250 1301 3770
Q 1056 3291 1056 2328
Q 1056 1369 1301 889
Q 1547 409 2034 409
Q 2525 409 2770 889
Q 3016 1369 3016 2328
Q 3016 3291 2770 3770
Q 2525 4250 2034 4250
z
M 2034 4750
Q 2819 4750 3233 4129
Q 3647 3509 3647 2328
Q 3647 1150 3233 529
Q 2819 -91 2034 -91
Q 1250 -91 836 529
Q 422 1150 422 2328
Q 422 3509 836 4129
Q 1250 4750 2034 4750
z
" transform="scale(0.015625)"/>
        <path id="DejaVuSans-Oblique-3c0" d="M 584 3500
L 3938 3500
L 3825 2925
L 3384 2925
L 2966 775
Q 2922 550 2981 450
Q 3038 353 3209 353
Q 3256 353 3325 363
Q 3397 369 3419 372
L 3338 -44
Q 3222 -84 3103 -103
Q 2981 -122 2866 -122
Q 2491 -122 2388 81
Q 2284 288 2391 838
L 2797 2925
L 1506 2925
L 938 0
L 350 0
L 919 2925
L 472 2925
L 584 3500
z
" transform="scale(0.015625)"/>
       </defs>
       <use xlink:href="#DejaVuSans-30" transform="translate(0 0.78125)"/>
       <use xlink:href="#DejaVuSans-Oblique-3c0" transform="translate(63.623047 0.78125)"/>
      </g>
     </g>
    </g>
    <g id="xtick_2">
     <g id="line2d_2">
      <g>
       <use xlink:href="#mec1916995f" x="133.985285" y="295.115" style="stroke: #000000; stroke-width: 2"/>
      </g>
     </g>
     <g id="text_2">
      <!-- 1$\pi$ -->
      <g transform="translate(122.825285 322.292187) scale(0.18 -0.18)">
       <defs>
        <path id="DejaVuSans-31" d="M 794 531
L 1825 531
L 1825 4091
L 703 3866
L 703 4441
L 1819 4666
L 2450 4666
L 2450 531
L 3481 531
L 3481 0
L 794 0
L 794 531
z
" transform="scale(0.015625)"/>
       </defs>
       <use xlink:href="#DejaVuSans-31" transform="translate(0 0.09375)"/>
       <use xlink:href="#DejaVuSans-Oblique-3c0" transform="translate(63.623047 0.09375)"/>
      </g>
     </g>
    </g>
    <g id="xtick_3">
     <g id="line2d_3">
      <g>
       <use xlink:href="#mec1916995f" x="195.93057" y="295.115" style="stroke: #000000; stroke-width: 2"/>
      </g>
     </g>
     <g id="text_3">
      <!-- 2$\pi$ -->
      <g transform="translate(184.77057 322.292187) scale(0.18 -0.18)">
       <defs>
        <path id="DejaVuSans-32" d="M 1228 531
L 3431 531
L 3431 0
L 469 0
L 469 531
Q 828 903 1448 1529
Q 2069 2156 2228 2338
Q 2531 2678 2651 2914
Q 2772 3150 2772 3378
Q 2772 3750 2511 3984
Q 2250 4219 1831 4219
Q 1534 4219 1204 4116
Q 875 4013 500 3803
L 500 4441
Q 881 4594 1212 4672
Q 1544 4750 1819 4750
Q 2544 4750 2975 4387
Q 3406 4025 3406 3419
Q 3406 3131 3298 2873
Q 3191 2616 2906 2266
Q 2828 2175 2409 1742
Q 1991 1309 1228 531
z
" transform="scale(0.015625)"/>
       </defs>
       <use xlink:href="#DejaVuSans-32" transform="translate(0 0.78125)"/>
       <use xlink:href="#DejaVuSans-Oblique-3c0" transform="translate(63.623047 0.78125)"/>
      </g>
     </g>
    </g>
    <g id="xtick_4">
     <g id="line2d_4">
      <g>
       <use xlink:href="#mec1916995f" x="257.875855" y="295.115" style="stroke: #000000; stroke-width: 2"/>
      </g>
     </g>
     <g id="text_4">
      <!-- 3$\pi$ -->
      <g transform="translate(246.715855 322.292187) scale(0.18 -0.18)">
       <defs>
        <path id="DejaVuSans-33" d="M 2597 2516
Q 3050 2419 3304 2112
Q 3559 1806 3559 1356
Q 3559 666 3084 287
Q 2609 -91 1734 -91
Q 1441 -91 1130 -33
Q 819 25 488 141
L 488 750
Q 750 597 1062 519
Q 1375 441 1716 441
Q 2309 441 2620 675
Q 2931 909 2931 1356
Q 2931 1769 2642 2001
Q 2353 2234 1838 2234
L 1294 2234
L 1294 2753
L 1863 2753
Q 2328 2753 2575 2939
Q 2822 3125 2822 3475
Q 2822 3834 2567 4026
Q 2313 4219 1838 4219
Q 1578 4219 1281 4162
Q 984 4106 628 3988
L 628 4550
Q 988 4650 1302 4700
Q 1616 4750 1894 4750
Q 2613 4750 3031 4423
Q 3450 4097 3450 3541
Q 3450 3153 3228 2886
Q 3006 2619 2597 2516
z
" transform="scale(0.015625)"/>
       </defs>
       <use xlink:href="#DejaVuSans-33" transform="translate(0 0.78125)"/>
       <use xlink:href="#DejaVuSans-Oblique-3c0" transform="translate(63.623047 0.78125)"/>
      </g>
     </g>
    </g>
    <g id="xtick_5">
     <g id="line2d_5">
      <g>
       <use xlink:href="#mec1916995f" x="319.821141" y="295.115" style="stroke: #000000; stroke-width: 2"/>
      </g>
     </g>
     <g id="text_5">
      <!-- 4$\pi$ -->
      <g transform="translate(308.661141 322.292187) scale(0.18 -0.18)">
       <defs>
        <path id="DejaVuSans-34" d="M 2419 4116
L 825 1625
L 2419 1625
L 2419 4116
z
M 2253 4666
L 3047 4666
L 3047 1625
L 3713 1625
L 3713 1100
L 3047 1100
L 3047 0
L 2419 0
L 2419 1100
L 313 1100
L 313 1709
L 2253 4666
z
" transform="scale(0.015625)"/>
       </defs>
       <use xlink:href="#DejaVuSans-34" transform="translate(0 0.09375)"/>
       <use xlink:href="#DejaVuSans-Oblique-3c0" transform="translate(63.623047 0.09375)"/>
      </g>
     </g>
    </g>
    <g id="xtick_6">
     <g id="line2d_6">
      <g>
       <use xlink:href="#mec1916995f" x="381.766426" y="295.115" style="stroke: #000000; stroke-width: 2"/>
      </g>
     </g>
     <g id="text_6">
      <!-- 5$\pi$ -->
      <g transform="translate(370.606426 322.292187) scale(0.18 -0.18)">
       <defs>
        <path id="DejaVuSans-35" d="M 691 4666
L 3169 4666
L 3169 4134
L 1269 4134
L 1269 2991
Q 1406 3038 1543 3061
Q 1681 3084 1819 3084
Q 2600 3084 3056 2656
Q 3513 2228 3513 1497
Q 3513 744 3044 326
Q 2575 -91 1722 -91
Q 1428 -91 1123 -41
Q 819 9 494 109
L 494 744
Q 775 591 1075 516
Q 1375 441 1709 441
Q 2250 441 2565 725
Q 2881 1009 2881 1497
Q 2881 1984 2565 2268
Q 2250 2553 1709 2553
Q 1456 2553 1204 2497
Q 953 2441 691 2322
L 691 4666
z
" transform="scale(0.015625)"/>
       </defs>
       <use xlink:href="#DejaVuSans-35" transform="translate(0 0.09375)"/>
       <use xlink:href="#DejaVuSans-Oblique-3c0" transform="translate(63.623047 0.09375)"/>
      </g>
     </g>
    </g>
    <g id="xtick_7">
     <g id="line2d_7">
      <g>
       <use xlink:href="#mec1916995f" x="443.711711" y="295.115" style="stroke: #000000; stroke-width: 2"/>
      </g>
     </g>
     <g id="text_7">
      <!-- 6$\pi$ -->
      <g transform="translate(432.551711 322.292187) scale(0.18 -0.18)">
       <defs>
        <path id="DejaVuSans-36" d="M 2113 2584
Q 1688 2584 1439 2293
Q 1191 2003 1191 1497
Q 1191 994 1439 701
Q 1688 409 2113 409
Q 2538 409 2786 701
Q 3034 994 3034 1497
Q 3034 2003 2786 2293
Q 2538 2584 2113 2584
z
M 3366 4563
L 3366 3988
Q 3128 4100 2886 4159
Q 2644 4219 2406 4219
Q 1781 4219 1451 3797
Q 1122 3375 1075 2522
Q 1259 2794 1537 2939
Q 1816 3084 2150 3084
Q 2853 3084 3261 2657
Q 3669 2231 3669 1497
Q 3669 778 3244 343
Q 2819 -91 2113 -91
Q 1303 -91 875 529
Q 447 1150 447 2328
Q 447 3434 972 4092
Q 1497 4750 2381 4750
Q 2619 4750 2861 4703
Q 3103 4656 3366 4563
z
" transform="scale(0.015625)"/>
       </defs>
       <use xlink:href="#DejaVuSans-36" transform="translate(0 0.78125)"/>
       <use xlink:href="#DejaVuSans-Oblique-3c0" transform="translate(63.623047 0.78125)"/>
      </g>
     </g>
    </g>
    <g id="xtick_8">
     <g id="line2d_8">
      <g>
       <use xlink:href="#mec1916995f" x="505.656996" y="295.115" style="stroke: #000000; stroke-width: 2"/>
      </g>
     </g>
     <g id="text_8">
      <!-- 7$\pi$ -->
      <g transform="translate(494.496996 322.292187) scale(0.18 -0.18)">
       <defs>
        <path id="DejaVuSans-37" d="M 525 4666
L 3525 4666
L 3525 4397
L 1831 0
L 1172 0
L 2766 4134
L 525 4134
L 525 4666
z
" transform="scale(0.015625)"/>
       </defs>
       <use xlink:href="#DejaVuSans-37" transform="translate(0 0.09375)"/>
       <use xlink:href="#DejaVuSans-Oblique-3c0" transform="translate(63.623047 0.09375)"/>
      </g>
     </g>
    </g>
    <g id="xtick_9">
     <g id="line2d_9">
      <g>
       <use xlink:href="#mec1916995f" x="567.602281" y="295.115" style="stroke: #000000; stroke-width: 2"/>
      </g>
     </g>
     <g id="text_9">
      <!-- 8$\pi$ -->
      <g transform="translate(556.442281 322.292187) scale(0.18 -0.18)">
       <defs>
        <path id="DejaVuSans-38" d="M 2034 2216
Q 1584 2216 1326 1975
Q 1069 1734 1069 1313
Q 1069 891 1326 650
Q 1584 409 2034 409
Q 2484 409 2743 651
Q 3003 894 3003 1313
Q 3003 1734 2745 1975
Q 2488 2216 2034 2216
z
M 1403 2484
Q 997 2584 770 2862
Q 544 3141 544 3541
Q 544 4100 942 4425
Q 1341 4750 2034 4750
Q 2731 4750 3128 4425
Q 3525 4100 3525 3541
Q 3525 3141 3298 2862
Q 3072 2584 2669 2484
Q 3125 2378 3379 2068
Q 3634 1759 3634 1313
Q 3634 634 3220 271
Q 2806 -91 2034 -91
Q 1263 -91 848 271
Q 434 634 434 1313
Q 434 1759 690 2068
Q 947 2378 1403 2484
z
M 1172 3481
Q 1172 3119 1398 2916
Q 1625 2713 2034 2713
Q 2441 2713 2670 2916
Q 2900 3119 2900 3481
Q 2900 3844 2670 4047
Q 2441 4250 2034 4250
Q 1625 4250 1398 4047
Q 1172 3844 1172 3481
z
" transform="scale(0.015625)"/>
       </defs>
       <use xlink:href="#DejaVuSans-38" transform="translate(0 0.78125)"/>
       <use xlink:href="#DejaVuSans-Oblique-3c0" transform="translate(63.623047 0.78125)"/>
      </g>
     </g>
    </g>
    <g id="xtick_10">
     <g id="line2d_10">
      <g>
       <use xlink:href="#mec1916995f" x="629.547566" y="295.115" style="stroke: #000000; stroke-width: 2"/>
      </g>
     </g>
     <g id="text_10">
      <!-- 9$\pi$ -->
      <g transform="translate(618.387566 322.292187) scale(0.18 -0.18)">
       <defs>
        <path id="DejaVuSans-39" d="M 703 97
L 703 672
Q 941 559 1184 500
Q 1428 441 1663 441
Q 2288 441 2617 861
Q 2947 1281 2994 2138
Q 2813 1869 2534 1725
Q 2256 1581 1919 1581
Q 1219 1581 811 2004
Q 403 2428 403 3163
Q 403 3881 828 4315
Q 1253 4750 1959 4750
Q 2769 4750 3195 4129
Q 3622 3509 3622 2328
Q 3622 1225 3098 567
Q 2575 -91 1691 -91
Q 1453 -91 1209 -44
Q 966 3 703 97
z
M 1959 2075
Q 2384 2075 2632 2365
Q 2881 2656 2881 3163
Q 2881 3666 2632 3958
Q 2384 4250 1959 4250
Q 1534 4250 1286 3958
Q 1038 3666 1038 3163
Q 1038 2656 1286 2365
Q 1534 2075 1959 2075
z
" transform="scale(0.015625)"/>
       </defs>
       <use xlink:href="#DejaVuSans-39" transform="translate(0 0.78125)"/>
       <use xlink:href="#DejaVuSans-Oblique-3c0" transform="translate(63.623047 0.78125)"/>
      </g>
     </g>
    </g>
    <g id="xtick_11">
     <g id="line2d_11">
      <g>
       <use xlink:href="#mec1916995f" x="691.492852" y="295.115" style="stroke: #000000; stroke-width: 2"/>
      </g>
     </g>
     <g id="text_11">
      <!-- 10$\pi$ -->
      <g transform="translate(674.572852 322.292187) scale(0.18 -0.18)">
       <use xlink:href="#DejaVuSans-31" transform="translate(0 0.78125)"/>
       <use xlink:href="#DejaVuSans-30" transform="translate(63.623047 0.78125)"/>
       <use xlink:href="#DejaVuSans-Oblique-3c0" transform="translate(127.246094 0.78125)"/>
      </g>
     </g>
    </g>
    <g id="text_12">
     <!-- $\omega \tau$ [rad/s] -->
     <g transform="translate(338.048026 343.165725) scale(0.1728 -0.1728)">
      <defs>
       <path id="DejaVuSans-Oblique-3c9" d="M 1369 -91
Q 72 -91 434 1766
Q 575 2500 1256 3500
L 1875 3500
Q 1231 2500 1088 1750
Q 819 397 1519 397
Q 2166 397 2478 2078
L 3009 2078
Q 2669 388 3316 397
Q 4013 403 4275 1750
Q 4419 2500 4169 3500
L 4788 3500
Q 5075 2500 4934 1766
Q 4578 -94 3278 -91
Q 2428 -88 2503 844
Q 2194 -91 1369 -91
z
" transform="scale(0.015625)"/>
       <path id="DejaVuSans-Oblique-3c4" d="M 2103 638
Q 2188 488 2525 488
L 2800 488
L 2706 0
L 2363 0
Q 1800 0 1600 300
Q 1403 606 1534 1269
L 1856 2925
L 541 2925
L 653 3500
L 3881 3500
L 3769 2925
L 2444 2925
L 2113 1234
Q 2025 781 2103 638
z
" transform="scale(0.015625)"/>
       <path id="DejaVuSans-20" transform="scale(0.015625)"/>
       <path id="DejaVuSans-5b" d="M 550 4863
L 1875 4863
L 1875 4416
L 1125 4416
L 1125 -397
L 1875 -397
L 1875 -844
L 550 -844
L 550 4863
z
" transform="scale(0.015625)"/>
       <path id="DejaVuSans-72" d="M 2631 2963
Q 2534 3019 2420 3045
Q 2306 3072 2169 3072
Q 1681 3072 1420 2755
Q 1159 2438 1159 1844
L 1159 0
L 581 0
L 581 3500
L 1159 3500
L 1159 2956
Q 1341 3275 1631 3429
Q 1922 3584 2338 3584
Q 2397 3584 2469 3576
Q 2541 3569 2628 3553
L 2631 2963
z
" transform="scale(0.015625)"/>
       <path id="DejaVuSans-61" d="M 2194 1759
Q 1497 1759 1228 1600
Q 959 1441 959 1056
Q 959 750 1161 570
Q 1363 391 1709 391
Q 2188 391 2477 730
Q 2766 1069 2766 1631
L 2766 1759
L 2194 1759
z
M 3341 1997
L 3341 0
L 2766 0
L 2766 531
Q 2569 213 2275 61
Q 1981 -91 1556 -91
Q 1019 -91 701 211
Q 384 513 384 1019
Q 384 1609 779 1909
Q 1175 2209 1959 2209
L 2766 2209
L 2766 2266
Q 2766 2663 2505 2880
Q 2244 3097 1772 3097
Q 1472 3097 1187 3025
Q 903 2953 641 2809
L 641 3341
Q 956 3463 1253 3523
Q 1550 3584 1831 3584
Q 2591 3584 2966 3190
Q 3341 2797 3341 1997
z
" transform="scale(0.015625)"/>
       <path id="DejaVuSans-64" d="M 2906 2969
L 2906 4863
L 3481 4863
L 3481 0
L 2906 0
L 2906 525
Q 2725 213 2448 61
Q 2172 -91 1784 -91
Q 1150 -91 751 415
Q 353 922 353 1747
Q 353 2572 751 3078
Q 1150 3584 1784 3584
Q 2172 3584 2448 3432
Q 2725 3281 2906 2969
z
M 947 1747
Q 947 1113 1208 752
Q 1469 391 1925 391
Q 2381 391 2643 752
Q 2906 1113 2906 1747
Q 2906 2381 2643 2742
Q 2381 3103 1925 3103
Q 1469 3103 1208 2742
Q 947 2381 947 1747
z
" transform="scale(0.015625)"/>
       <path id="DejaVuSans-2f" d="M 1625 4666
L 2156 4666
L 531 -594
L 0 -594
L 1625 4666
z
" transform="scale(0.015625)"/>
       <path id="DejaVuSans-73" d="M 2834 3397
L 2834 2853
Q 2591 2978 2328 3040
Q 2066 3103 1784 3103
Q 1356 3103 1142 2972
Q 928 2841 928 2578
Q 928 2378 1081 2264
Q 1234 2150 1697 2047
L 1894 2003
Q 2506 1872 2764 1633
Q 3022 1394 3022 966
Q 3022 478 2636 193
Q 2250 -91 1575 -91
Q 1294 -91 989 -36
Q 684 19 347 128
L 347 722
Q 666 556 975 473
Q 1284 391 1588 391
Q 1994 391 2212 530
Q 2431 669 2431 922
Q 2431 1156 2273 1281
Q 2116 1406 1581 1522
L 1381 1569
Q 847 1681 609 1914
Q 372 2147 372 2553
Q 372 3047 722 3315
Q 1072 3584 1716 3584
Q 2034 3584 2315 3537
Q 2597 3491 2834 3397
z
" transform="scale(0.015625)"/>
       <path id="DejaVuSans-5d" d="M 1947 4863
L 1947 -844
L 622 -844
L 622 -397
L 1369 -397
L 1369 4416
L 622 4416
L 622 4863
L 1947 4863
z
" transform="scale(0.015625)"/>
      </defs>
      <use xlink:href="#DejaVuSans-Oblique-3c9" transform="translate(0 0.015625)"/>
      <use xlink:href="#DejaVuSans-Oblique-3c4" transform="translate(83.740234 0.015625)"/>
      <use xlink:href="#DejaVuSans-20" transform="translate(143.945312 0.015625)"/>
      <use xlink:href="#DejaVuSans-5b" transform="translate(175.732422 0.015625)"/>
      <use xlink:href="#DejaVuSans-72" transform="translate(214.746094 0.015625)"/>
      <use xlink:href="#DejaVuSans-61" transform="translate(255.859375 0.015625)"/>
      <use xlink:href="#DejaVuSans-64" transform="translate(317.138672 0.015625)"/>
      <use xlink:href="#DejaVuSans-2f" transform="translate(380.615234 0.015625)"/>
      <use xlink:href="#DejaVuSans-73" transform="translate(414.306641 0.015625)"/>
      <use xlink:href="#DejaVuSans-5d" transform="translate(466.40625 0.015625)"/>
     </g>
    </g>
   </g>
   <g id="matplotlib.axis_2">
    <g id="ytick_1">
     <g id="line2d_12">
      <defs>
       <path id="m6b611d8b7b" d="M 0 0
L -10 0
" style="stroke: #000000; stroke-width: 2"/>
      </defs>
      <g>
       <use xlink:href="#m6b611d8b7b" x="72.04" y="241.985429" style="stroke: #000000; stroke-width: 2"/>
      </g>
     </g>
     <g id="text_13">
      <!-- 2 -->
      <g transform="translate(47.0875 248.824023) scale(0.18 -0.18)">
       <use xlink:href="#DejaVuSans-32"/>
      </g>
     </g>
    </g>
    <g id="ytick_2">
     <g id="line2d_13">
      <g>
       <use xlink:href="#m6b611d8b7b" x="72.04" y="187.419924" style="stroke: #000000; stroke-width: 2"/>
      </g>
     </g>
     <g id="text_14">
      <!-- 4 -->
      <g transform="translate(47.0875 194.258518) scale(0.18 -0.18)">
       <use xlink:href="#DejaVuSans-34"/>
      </g>
     </g>
    </g>
    <g id="ytick_3">
     <g id="line2d_14">
      <g>
       <use xlink:href="#m6b611d8b7b" x="72.04" y="132.854419" style="stroke: #000000; stroke-width: 2"/>
      </g>
     </g>
     <g id="text_15">
      <!-- 6 -->
      <g transform="translate(47.0875 139.693013) scale(0.18 -0.18)">
       <use xlink:href="#DejaVuSans-36"/>
      </g>
     </g>
    </g>
    <g id="ytick_4">
     <g id="line2d_15">
      <g>
       <use xlink:href="#m6b611d8b7b" x="72.04" y="78.288914" style="stroke: #000000; stroke-width: 2"/>
      </g>
     </g>
     <g id="text_16">
      <!-- 8 -->
      <g transform="translate(47.0875 85.127508) scale(0.18 -0.18)">
       <use xlink:href="#DejaVuSans-38"/>
      </g>
     </g>
    </g>
    <g id="ytick_5">
     <g id="line2d_16">
      <g>
       <use xlink:href="#m6b611d8b7b" x="72.04" y="23.723409" style="stroke: #000000; stroke-width: 2"/>
      </g>
     </g>
     <g id="text_17">
      <!-- 10 -->
      <g transform="translate(35.635 30.562003) scale(0.18 -0.18)">
       <use xlink:href="#DejaVuSans-31"/>
       <use xlink:href="#DejaVuSans-30" x="63.623047"/>
      </g>
     </g>
    </g>
    <g id="text_18">
     <!-- $|H(i\omega)|$ -->
     <g transform="translate(27.4878 181.7287) rotate(-90) scale(0.1728 -0.1728)">
      <defs>
       <path id="DejaVuSans-7c" d="M 1344 4891
L 1344 -1509
L 813 -1509
L 813 4891
L 1344 4891
z
" transform="scale(0.015625)"/>
       <path id="DejaVuSans-Oblique-48" d="M 1081 4666
L 1716 4666
L 1344 2753
L 3634 2753
L 4006 4666
L 4641 4666
L 3731 0
L 3097 0
L 3531 2222
L 1241 2222
L 806 0
L 172 0
L 1081 4666
z
" transform="scale(0.015625)"/>
       <path id="DejaVuSans-28" d="M 1984 4856
Q 1566 4138 1362 3434
Q 1159 2731 1159 2009
Q 1159 1288 1364 580
Q 1569 -128 1984 -844
L 1484 -844
Q 1016 -109 783 600
Q 550 1309 550 2009
Q 550 2706 781 3412
Q 1013 4119 1484 4856
L 1984 4856
z
" transform="scale(0.015625)"/>
       <path id="DejaVuSans-Oblique-69" d="M 1172 4863
L 1747 4863
L 1606 4134
L 1031 4134
L 1172 4863
z
M 909 3500
L 1484 3500
L 800 0
L 225 0
L 909 3500
z
" transform="scale(0.015625)"/>
       <path id="DejaVuSans-29" d="M 513 4856
L 1013 4856
Q 1481 4119 1714 3412
Q 1947 2706 1947 2009
Q 1947 1309 1714 600
Q 1481 -109 1013 -844
L 513 -844
Q 928 -128 1133 580
Q 1338 1288 1338 2009
Q 1338 2731 1133 3434
Q 928 4138 513 4856
z
" transform="scale(0.015625)"/>
      </defs>
      <use xlink:href="#DejaVuSans-7c" transform="translate(0 0.578125)"/>
      <use xlink:href="#DejaVuSans-Oblique-48" transform="translate(33.691406 0.578125)"/>
      <use xlink:href="#DejaVuSans-28" transform="translate(108.886719 0.578125)"/>
      <use xlink:href="#DejaVuSans-Oblique-69" transform="translate(147.900391 0.578125)"/>
      <use xlink:href="#DejaVuSans-Oblique-3c9" transform="translate(175.683594 0.578125)"/>
      <use xlink:href="#DejaVuSans-29" transform="translate(259.423828 0.578125)"/>
      <use xlink:href="#DejaVuSans-7c" transform="translate(298.4375 0.578125)"/>
     </g>
    </g>
   </g>
   <g id="line2d_17">
    <path d="M 72.04 23.723409
L 72.163903 24.206902
L 72.349757 26.703686
L 72.659515 35.090024
L 73.155127 56.132594
L 74.889768 135.692843
L 75.757089 163.248956
L 76.62441 183.685331
L 77.49173 199.090015
L 78.421002 211.720006
L 79.412226 222.118241
L 80.40345 230.284095
L 81.456625 237.211698
L 82.571752 243.118299
L 83.74883 248.18088
L 84.987859 252.542731
L 86.28884 256.319729
L 87.651773 259.605744
L 89.076657 262.477077
L 90.625444 265.092036
L 92.236183 267.37588
L 93.970824 269.446681
L 95.829368 271.313581
L 97.811816 272.988489
L 99.980118 274.524755
L 102.334274 275.91582
L 104.936236 277.187936
L 107.786004 278.328009
L 110.94553 279.346654
L 114.414813 280.228389
L 118.255804 280.972231
L 122.468505 281.558589
L 126.990963 281.963392
L 131.823178 282.170042
L 136.717345 282.157159
L 141.549561 281.924087
L 146.13397 281.484303
L 150.408623 280.853796
L 154.311566 280.054808
L 157.780849 279.123504
L 160.940374 278.048188
L 163.790142 276.843552
L 166.330153 275.532047
L 168.622358 274.104952
L 170.728708 272.536184
L 172.649204 270.834772
L 174.445797 268.94763
L 176.118487 266.866113
L 177.667274 264.58543
L 179.154109 261.989517
L 180.517042 259.163886
L 181.818023 255.956352
L 183.057053 252.304189
L 184.234131 248.13272
L 185.349257 243.353268
L 186.402433 237.86115
L 187.393656 231.534098
L 188.38488 223.687216
L 189.314152 214.435977
L 190.181473 203.501674
L 190.986842 190.577989
L 191.792211 173.922973
L 192.535629 153.969797
L 193.279047 128.159179
L 194.146368 89.507027
L 195.385397 32.650164
L 195.757106 24.668642
L 195.942961 23.728257
L 196.066864 24.308109
L 196.252718 26.942583
L 196.562475 35.519837
L 197.058087 56.730465
L 198.792729 136.147359
L 199.660049 163.585496
L 200.52737 183.936521
L 201.394691 199.281664
L 202.323963 211.867254
L 203.315187 222.232503
L 204.30641 230.374963
L 205.359586 237.284573
L 206.474712 243.177239
L 207.65179 248.228942
L 208.89082 252.582227
L 210.191801 256.352422
L 211.554734 259.632987
L 212.979618 262.499918
L 214.528405 265.111161
L 216.139143 267.391989
L 217.873785 269.460239
L 219.732329 271.324986
L 221.714776 272.998079
L 223.883078 274.532774
L 226.237234 275.922489
L 228.839197 277.193423
L 231.688965 278.332471
L 234.84849 279.350213
L 238.317773 280.231154
L 242.158765 280.974286
L 246.371466 281.56
L 250.893924 281.964211
L 255.726139 282.170289
L 260.620306 282.156845
L 265.452522 281.923196
L 270.036931 281.482801
L 274.311583 280.851621
L 278.214526 280.051882
L 281.683809 279.119744
L 284.843335 278.043473
L 287.693103 276.837744
L 290.233114 275.525006
L 292.525318 274.096503
L 294.631669 272.526104
L 296.552165 270.822815
L 298.348758 268.933456
L 300.021448 266.849327
L 301.570235 264.56558
L 303.05707 261.965917
L 304.420003 259.135892
L 305.720984 255.922973
L 306.960013 252.264169
L 308.137091 248.08446
L 309.252218 243.294724
L 310.305393 237.789696
L 311.296617 231.44637
L 312.287841 223.577301
L 313.217113 214.297222
L 314.084434 203.325405
L 314.889803 190.353209
L 315.695172 173.63046
L 316.43859 153.591667
L 317.182008 127.671817
L 318.049328 88.897099
L 319.288358 32.26768
L 319.660067 24.539016
L 319.845921 23.742798
L 319.969824 24.418825
L 320.155679 27.190177
L 320.465436 35.955983
L 321.022999 60.358363
L 322.571786 131.987873
L 323.439107 160.503889
L 324.306428 181.638783
L 325.173749 197.530971
L 326.103021 210.524075
L 327.032293 220.600937
L 328.023517 229.079861
L 329.076692 236.247651
L 330.191818 242.339829
L 331.368897 247.546982
L 332.607926 252.022451
L 333.908907 255.889534
L 335.27184 259.247601
L 336.696724 262.177051
L 338.183559 264.74325
L 339.794298 267.082363
L 341.528939 269.199853
L 343.325532 271.047707
L 345.30798 272.765095
L 347.41433 274.296935
L 349.706535 275.692155
L 352.246545 276.975668
L 355.034362 278.132348
L 358.131936 279.172078
L 361.539267 280.078127
L 365.318308 280.849443
L 369.469057 281.466155
L 373.991515 281.908734
L 378.761779 282.149928
L 383.655946 282.175138
L 388.488161 281.981045
L 393.134522 281.575407
L 397.471126 280.976339
L 401.436021 280.206172
L 404.967255 279.300105
L 408.188732 278.247016
L 411.0385 277.088307
L 413.640462 275.794693
L 415.994619 274.379033
L 418.16292 272.814122
L 420.145368 271.106091
L 421.941961 269.268951
L 423.614651 267.246263
L 425.163438 265.034502
L 426.650273 262.522725
L 428.075157 259.660186
L 429.376138 256.547396
L 430.615168 253.011832
L 431.792246 248.984729
L 432.907373 244.385061
L 433.960548 239.117998
L 435.013723 232.653498
L 436.004947 225.087052
L 436.934219 216.199444
L 437.80154 205.736971
L 438.606909 193.422175
L 439.412278 177.616556
L 440.155696 158.739537
L 440.899114 134.317863
L 441.704483 100.259227
L 443.315221 28.555923
L 443.624979 23.960643
L 443.68693 23.742798
L 443.748882 23.767029
L 443.872785 24.539016
L 444.058639 27.446393
L 444.368397 36.398351
L 444.92596 60.968965
L 446.474747 132.457725
L 447.342068 160.852217
L 448.209388 181.898251
L 449.076709 197.728399
L 450.005981 210.675333
L 450.997205 221.308677
L 451.988429 229.641013
L 453.041604 236.696479
L 454.156731 242.701973
L 455.333809 247.841666
L 456.572838 252.264169
L 457.873819 256.089293
L 459.236752 259.413824
L 460.661636 262.316243
L 462.148471 264.860473
L 463.75921 267.180955
L 465.493851 269.282721
L 467.352396 271.17572
L 469.334843 272.872613
L 471.503145 274.427898
L 473.857301 275.835299
L 476.397312 277.093885
L 479.24708 278.251549
L 482.344654 279.267563
L 485.813937 280.166899
L 489.654929 280.926491
L 493.867629 281.527106
L 498.390087 281.945
L 503.160351 282.162846
L 508.054518 282.165087
L 512.886734 281.947552
L 517.533095 281.51691
L 521.807747 280.901114
L 525.71069 280.118528
L 529.241925 279.186912
L 532.40145 278.127708
L 535.251218 276.941472
L 537.791229 275.650727
L 540.145385 274.205672
L 542.251736 272.656315
L 544.234183 270.918096
L 546.030776 269.046369
L 547.703466 266.983006
L 549.252253 264.723618
L 550.739088 262.153731
L 552.102021 259.358594
L 553.403002 256.188393
L 554.642032 252.582227
L 555.81911 248.467778
L 556.934236 243.759434
L 557.987412 238.356463
L 558.978635 232.141663
L 559.969859 224.447603
L 560.899131 215.394734
L 561.766452 204.718096
L 562.571821 192.127218
L 563.37719 175.936656
L 564.120608 156.571405
L 564.864026 131.516087
L 565.669395 96.727031
L 567.156231 29.796928
L 567.465988 24.308109
L 567.589891 23.728257
L 567.651842 23.800941
L 567.775745 24.668642
L 568.023551 29.160337
L 568.39526 41.64348
L 569.138678 77.137998
L 570.253805 128.159179
L 571.121125 157.662498
L 571.988446 179.524452
L 572.855767 195.92464
L 573.785039 209.295379
L 574.714311 219.636817
L 575.705535 228.316988
L 576.75871 235.63859
L 577.873837 241.849192
L 579.050915 247.148307
L 580.289944 251.69584
L 581.590926 255.619914
L 582.953858 259.023459
L 584.378742 261.989517
L 585.865578 264.58543
L 587.476316 266.949716
L 589.149006 269.018243
L 590.945599 270.894357
L 592.866095 272.586426
L 594.972445 274.147066
L 597.26465 275.567154
L 599.804661 276.872511
L 602.592477 278.048188
L 605.6281 279.085757
L 609.035431 280.010627
L 612.75252 280.787595
L 616.841318 281.414911
L 621.301824 281.872788
L 626.072088 282.135802
L 630.966255 282.18232
L 635.860422 282.006147
L 640.506783 281.620372
L 644.843387 281.042935
L 648.808282 280.296771
L 652.401467 279.399701
L 655.622944 278.372448
L 658.534664 277.215321
L 661.136626 275.949101
L 663.490782 274.564771
L 665.659084 273.03634
L 667.641532 271.370479
L 669.500076 269.514309
L 671.172766 267.536053
L 672.783505 265.282119
L 674.27034 262.816185
L 675.695224 260.009876
L 676.996205 256.963022
L 678.235235 253.508345
L 679.412313 249.581043
L 680.52744 245.105179
L 681.642566 239.65932
L 682.695741 233.323451
L 683.686965 225.922482
L 684.616237 217.248628
L 685.483558 207.062478
L 686.350879 194.058555
L 687.156248 178.440975
L 687.899666 159.802713
L 688.643083 135.692843
L 689.448453 102.003737
L 691.121143 27.984385
L 691.4309 23.844524
L 691.492852 23.723409
L 691.492852 23.723409
" clip-path="url(#p9cd0e87a81)" style="fill: none; stroke: #000000; stroke-width: 1.5; stroke-linecap: square"/>
   </g>
   <g id="patch_3">
    <path d="M 72.04 295.115
L 72.04 10.8
" style="fill: none; stroke: #000000; stroke-width: 2; stroke-linejoin: miter; stroke-linecap: square"/>
   </g>
   <g id="patch_4">
    <path d="M 691.492852 295.115
L 691.492852 10.8
" style="fill: none; stroke: #000000; stroke-width: 2; stroke-linejoin: miter; stroke-linecap: square"/>
   </g>
   <g id="patch_5">
    <path d="M 72.04 295.115
L 691.492852 295.115
" style="fill: none; stroke: #000000; stroke-width: 2; stroke-linejoin: miter; stroke-linecap: square"/>
   </g>
   <g id="patch_6">
    <path d="M 72.04 10.8
L 691.492852 10.8
" style="fill: none; stroke: #000000; stroke-width: 2; stroke-linejoin: miter; stroke-linecap: square"/>
   </g>
  </g>
  <g id="legend_1">
   <g id="patch_7">
    <path d="M 634.1 22.8
L 713 22.8
Q 715 22.8 715 20.8
L 715 7
Q 715 5 713 5
L 634.1 5
Q 632.1 5 632.1 7
L 632.1 20.8
Q 632.1 22.8 634.1 22.8
z
" style="fill: #ffffff; opacity: 0.8; stroke: #cccccc; stroke-linejoin: miter"/>
   </g>
   <g id="line2d_18">
    <path d="M 636.1 13.2
L 646.1 13.2
L 656.1 13.2
" style="fill: none; stroke: #000000; stroke-width: 1.5; stroke-linecap: square"/>
   </g>
   <g id="text_19">
    <!-- $\beta = -0.9$ -->
    <g transform="translate(664.1 16.7) scale(0.1 -0.1)">
     <defs>
      <path id="DejaVuSans-Oblique-3b2" d="M 872 216
L 572 -1331
L -6 -1331
L 928 3478
Q 1206 4903 2538 4903
Q 3888 4903 3659 3700
Q 3503 2844 2894 2531
Q 3713 2250 3553 1416
Q 3272 -69 1759 -66
Q 1097 -63 872 216
z
M 1019 966
Q 1259 422 1875 425
Q 2775 425 2966 1406
Q 3138 2288 1675 2219
L 1778 2750
Q 2909 2731 3106 3750
Q 3241 4438 2509 4434
Q 1691 4434 1503 3459
L 1019 966
z
" transform="scale(0.015625)"/>
      <path id="DejaVuSans-3d" d="M 678 2906
L 4684 2906
L 4684 2381
L 678 2381
L 678 2906
z
M 678 1631
L 4684 1631
L 4684 1100
L 678 1100
L 678 1631
z
" transform="scale(0.015625)"/>
      <path id="DejaVuSans-2212" d="M 678 2272
L 4684 2272
L 4684 1741
L 678 1741
L 678 2272
z
" transform="scale(0.015625)"/>
      <path id="DejaVuSans-2e" d="M 684 794
L 1344 794
L 1344 0
L 684 0
L 684 794
z
" transform="scale(0.015625)"/>
     </defs>
     <use xlink:href="#DejaVuSans-Oblique-3b2" transform="translate(0 0.390625)"/>
     <use xlink:href="#DejaVuSans-3d" transform="translate(83.300781 0.390625)"/>
     <use xlink:href="#DejaVuSans-2212" transform="translate(206.054688 0.390625)"/>
     <use xlink:href="#DejaVuSans-30" transform="translate(309.326172 0.390625)"/>
     <use xlink:href="#DejaVuSans-2e" transform="translate(372.949219 0.390625)"/>
     <use xlink:href="#DejaVuSans-39" transform="translate(404.736328 0.390625)"/>
    </g>
   </g>
  </g>
 </g>
 <defs>
  <clipPath id="p9cd0e87a81">
   <rect x="72.04" y="10.8" width="619.452852" height="284.315"/>
  </clipPath>
 </defs>
</svg>
