<?xml version="1.0" encoding="utf-8" standalone="no"?>
<!DOCTYPE svg PUBLIC "-//W3C//DTD SVG 1.1//EN"
  "http://www.w3.org/Graphics/SVG/1.1/DTD/svg11.dtd">
<svg xmlns:xlink="http://www.w3.org/1999/xlink" width="720pt" height="360pt" viewBox="0 0 720 360" xmlns="http://www.w3.org/2000/svg" version="1.1">
 <metadata>
  <rdf:RDF xmlns:dc="http://purl.org/dc/elements/1.1/" xmlns:cc="http://creativecommons.org/ns#" xmlns:rdf="http://www.w3.org/1999/02/22-rdf-syntax-ns#">
   <cc:Work>
    <dc:type rdf:resource="http://purl.org/dc/dcmitype/StillImage"/>
    <dc:date>2024-03-10T12:55:22.868256</dc:date>
    <dc:format>image/svg+xml</dc:format>
    <dc:creator>
     <cc:Agent>
      <dc:title>Matplotlib v3.8.3, https://matplotlib.org/</dc:title>
     </cc:Agent>
    </dc:creator>
   </cc:Work>
  </rdf:RDF>
 </metadata>
 <defs>
  <style type="text/css">*{stroke-linejoin: round; stroke-linecap: butt}</style>
 </defs>
 <g id="figure_1">
  <g id="patch_1">
   <path d="M 0 360
L 720 360
L 720 0
L 0 0
z
" style="fill: #ffffff"/>
  </g>
  <g id="axes_1">
   <g id="patch_2">
    <path d="M 60.7 295.115
L 691.492852 295.115
L 691.492852 10.8
L 60.7 10.8
z
" style="fill: #ffffff"/>
   </g>
   <g id="matplotlib.axis_1">
    <g id="xtick_1">
     <g id="line2d_1">
      <defs>
       <path id="mde9687eeb6" d="M 0 0
L 0 10
" style="stroke: #000000; stroke-width: 2"/>
      </defs>
      <g>
       <use xlink:href="#mde9687eeb6" x="60.7" y="295.115" style="stroke: #000000; stroke-width: 2"/>
      </g>
     </g>
     <g id="text_1">
      <!-- 0$\pi$ -->
      <g transform="translate(49.54 322.292187) scale(0.18 -0.18)">
       <defs>
        <path id="DejaVuSans-30" d="M 2034 4250
Q 1547 4250 1301 3770
Q 1056 3291 1056 2328
Q 1056 1369 1301 889
Q 1547 409 2034 409
Q 2525 409 2770 889
Q 3016 1369 3016 2328
Q 3016 3291 2770 3770
Q 2525 4250 2034 4250
z
M 2034 4750
Q 2819 4750 3233 4129
Q 3647 3509 3647 2328
Q 3647 1150 3233 529
Q 2819 -91 2034 -91
Q 1250 -91 836 529
Q 422 1150 422 2328
Q 422 3509 836 4129
Q 1250 4750 2034 4750
z
" transform="scale(0.015625)"/>
        <path id="DejaVuSans-Oblique-3c0" d="M 584 3500
L 3938 3500
L 3825 2925
L 3384 2925
L 2966 775
Q 2922 550 2981 450
Q 3038 353 3209 353
Q 3256 353 3325 363
Q 3397 369 3419 372
L 3338 -44
Q 3222 -84 3103 -103
Q 2981 -122 2866 -122
Q 2491 -122 2388 81
Q 2284 288 2391 838
L 2797 2925
L 1506 2925
L 938 0
L 350 0
L 919 2925
L 472 2925
L 584 3500
z
" transform="scale(0.015625)"/>
       </defs>
       <use xlink:href="#DejaVuSans-30" transform="translate(0 0.78125)"/>
       <use xlink:href="#DejaVuSans-Oblique-3c0" transform="translate(63.623047 0.78125)"/>
      </g>
     </g>
    </g>
    <g id="xtick_2">
     <g id="line2d_2">
      <g>
       <use xlink:href="#mde9687eeb6" x="123.779285" y="295.115" style="stroke: #000000; stroke-width: 2"/>
      </g>
     </g>
     <g id="text_2">
      <!-- 1$\pi$ -->
      <g transform="translate(112.619285 322.292187) scale(0.18 -0.18)">
       <defs>
        <path id="DejaVuSans-31" d="M 794 531
L 1825 531
L 1825 4091
L 703 3866
L 703 4441
L 1819 4666
L 2450 4666
L 2450 531
L 3481 531
L 3481 0
L 794 0
L 794 531
z
" transform="scale(0.015625)"/>
       </defs>
       <use xlink:href="#DejaVuSans-31" transform="translate(0 0.09375)"/>
       <use xlink:href="#DejaVuSans-Oblique-3c0" transform="translate(63.623047 0.09375)"/>
      </g>
     </g>
    </g>
    <g id="xtick_3">
     <g id="line2d_3">
      <g>
       <use xlink:href="#mde9687eeb6" x="186.85857" y="295.115" style="stroke: #000000; stroke-width: 2"/>
      </g>
     </g>
     <g id="text_3">
      <!-- 2$\pi$ -->
      <g transform="translate(175.69857 322.292187) scale(0.18 -0.18)">
       <defs>
        <path id="DejaVuSans-32" d="M 1228 531
L 3431 531
L 3431 0
L 469 0
L 469 531
Q 828 903 1448 1529
Q 2069 2156 2228 2338
Q 2531 2678 2651 2914
Q 2772 3150 2772 3378
Q 2772 3750 2511 3984
Q 2250 4219 1831 4219
Q 1534 4219 1204 4116
Q 875 4013 500 3803
L 500 4441
Q 881 4594 1212 4672
Q 1544 4750 1819 4750
Q 2544 4750 2975 4387
Q 3406 4025 3406 3419
Q 3406 3131 3298 2873
Q 3191 2616 2906 2266
Q 2828 2175 2409 1742
Q 1991 1309 1228 531
z
" transform="scale(0.015625)"/>
       </defs>
       <use xlink:href="#DejaVuSans-32" transform="translate(0 0.78125)"/>
       <use xlink:href="#DejaVuSans-Oblique-3c0" transform="translate(63.623047 0.78125)"/>
      </g>
     </g>
    </g>
    <g id="xtick_4">
     <g id="line2d_4">
      <g>
       <use xlink:href="#mde9687eeb6" x="249.937855" y="295.115" style="stroke: #000000; stroke-width: 2"/>
      </g>
     </g>
     <g id="text_4">
      <!-- 3$\pi$ -->
      <g transform="translate(238.777855 322.292187) scale(0.18 -0.18)">
       <defs>
        <path id="DejaVuSans-33" d="M 2597 2516
Q 3050 2419 3304 2112
Q 3559 1806 3559 1356
Q 3559 666 3084 287
Q 2609 -91 1734 -91
Q 1441 -91 1130 -33
Q 819 25 488 141
L 488 750
Q 750 597 1062 519
Q 1375 441 1716 441
Q 2309 441 2620 675
Q 2931 909 2931 1356
Q 2931 1769 2642 2001
Q 2353 2234 1838 2234
L 1294 2234
L 1294 2753
L 1863 2753
Q 2328 2753 2575 2939
Q 2822 3125 2822 3475
Q 2822 3834 2567 4026
Q 2313 4219 1838 4219
Q 1578 4219 1281 4162
Q 984 4106 628 3988
L 628 4550
Q 988 4650 1302 4700
Q 1616 4750 1894 4750
Q 2613 4750 3031 4423
Q 3450 4097 3450 3541
Q 3450 3153 3228 2886
Q 3006 2619 2597 2516
z
" transform="scale(0.015625)"/>
       </defs>
       <use xlink:href="#DejaVuSans-33" transform="translate(0 0.78125)"/>
       <use xlink:href="#DejaVuSans-Oblique-3c0" transform="translate(63.623047 0.78125)"/>
      </g>
     </g>
    </g>
    <g id="xtick_5">
     <g id="line2d_5">
      <g>
       <use xlink:href="#mde9687eeb6" x="313.017141" y="295.115" style="stroke: #000000; stroke-width: 2"/>
      </g>
     </g>
     <g id="text_5">
      <!-- 4$\pi$ -->
      <g transform="translate(301.857141 322.292187) scale(0.18 -0.18)">
       <defs>
        <path id="DejaVuSans-34" d="M 2419 4116
L 825 1625
L 2419 1625
L 2419 4116
z
M 2253 4666
L 3047 4666
L 3047 1625
L 3713 1625
L 3713 1100
L 3047 1100
L 3047 0
L 2419 0
L 2419 1100
L 313 1100
L 313 1709
L 2253 4666
z
" transform="scale(0.015625)"/>
       </defs>
       <use xlink:href="#DejaVuSans-34" transform="translate(0 0.09375)"/>
       <use xlink:href="#DejaVuSans-Oblique-3c0" transform="translate(63.623047 0.09375)"/>
      </g>
     </g>
    </g>
    <g id="xtick_6">
     <g id="line2d_6">
      <g>
       <use xlink:href="#mde9687eeb6" x="376.096426" y="295.115" style="stroke: #000000; stroke-width: 2"/>
      </g>
     </g>
     <g id="text_6">
      <!-- 5$\pi$ -->
      <g transform="translate(364.936426 322.292187) scale(0.18 -0.18)">
       <defs>
        <path id="DejaVuSans-35" d="M 691 4666
L 3169 4666
L 3169 4134
L 1269 4134
L 1269 2991
Q 1406 3038 1543 3061
Q 1681 3084 1819 3084
Q 2600 3084 3056 2656
Q 3513 2228 3513 1497
Q 3513 744 3044 326
Q 2575 -91 1722 -91
Q 1428 -91 1123 -41
Q 819 9 494 109
L 494 744
Q 775 591 1075 516
Q 1375 441 1709 441
Q 2250 441 2565 725
Q 2881 1009 2881 1497
Q 2881 1984 2565 2268
Q 2250 2553 1709 2553
Q 1456 2553 1204 2497
Q 953 2441 691 2322
L 691 4666
z
" transform="scale(0.015625)"/>
       </defs>
       <use xlink:href="#DejaVuSans-35" transform="translate(0 0.09375)"/>
       <use xlink:href="#DejaVuSans-Oblique-3c0" transform="translate(63.623047 0.09375)"/>
      </g>
     </g>
    </g>
    <g id="xtick_7">
     <g id="line2d_7">
      <g>
       <use xlink:href="#mde9687eeb6" x="439.175711" y="295.115" style="stroke: #000000; stroke-width: 2"/>
      </g>
     </g>
     <g id="text_7">
      <!-- 6$\pi$ -->
      <g transform="translate(428.015711 322.292187) scale(0.18 -0.18)">
       <defs>
        <path id="DejaVuSans-36" d="M 2113 2584
Q 1688 2584 1439 2293
Q 1191 2003 1191 1497
Q 1191 994 1439 701
Q 1688 409 2113 409
Q 2538 409 2786 701
Q 3034 994 3034 1497
Q 3034 2003 2786 2293
Q 2538 2584 2113 2584
z
M 3366 4563
L 3366 3988
Q 3128 4100 2886 4159
Q 2644 4219 2406 4219
Q 1781 4219 1451 3797
Q 1122 3375 1075 2522
Q 1259 2794 1537 2939
Q 1816 3084 2150 3084
Q 2853 3084 3261 2657
Q 3669 2231 3669 1497
Q 3669 778 3244 343
Q 2819 -91 2113 -91
Q 1303 -91 875 529
Q 447 1150 447 2328
Q 447 3434 972 4092
Q 1497 4750 2381 4750
Q 2619 4750 2861 4703
Q 3103 4656 3366 4563
z
" transform="scale(0.015625)"/>
       </defs>
       <use xlink:href="#DejaVuSans-36" transform="translate(0 0.78125)"/>
       <use xlink:href="#DejaVuSans-Oblique-3c0" transform="translate(63.623047 0.78125)"/>
      </g>
     </g>
    </g>
    <g id="xtick_8">
     <g id="line2d_8">
      <g>
       <use xlink:href="#mde9687eeb6" x="502.254996" y="295.115" style="stroke: #000000; stroke-width: 2"/>
      </g>
     </g>
     <g id="text_8">
      <!-- 7$\pi$ -->
      <g transform="translate(491.094996 322.292187) scale(0.18 -0.18)">
       <defs>
        <path id="DejaVuSans-37" d="M 525 4666
L 3525 4666
L 3525 4397
L 1831 0
L 1172 0
L 2766 4134
L 525 4134
L 525 4666
z
" transform="scale(0.015625)"/>
       </defs>
       <use xlink:href="#DejaVuSans-37" transform="translate(0 0.09375)"/>
       <use xlink:href="#DejaVuSans-Oblique-3c0" transform="translate(63.623047 0.09375)"/>
      </g>
     </g>
    </g>
    <g id="xtick_9">
     <g id="line2d_9">
      <g>
       <use xlink:href="#mde9687eeb6" x="565.334281" y="295.115" style="stroke: #000000; stroke-width: 2"/>
      </g>
     </g>
     <g id="text_9">
      <!-- 8$\pi$ -->
      <g transform="translate(554.174281 322.292187) scale(0.18 -0.18)">
       <defs>
        <path id="DejaVuSans-38" d="M 2034 2216
Q 1584 2216 1326 1975
Q 1069 1734 1069 1313
Q 1069 891 1326 650
Q 1584 409 2034 409
Q 2484 409 2743 651
Q 3003 894 3003 1313
Q 3003 1734 2745 1975
Q 2488 2216 2034 2216
z
M 1403 2484
Q 997 2584 770 2862
Q 544 3141 544 3541
Q 544 4100 942 4425
Q 1341 4750 2034 4750
Q 2731 4750 3128 4425
Q 3525 4100 3525 3541
Q 3525 3141 3298 2862
Q 3072 2584 2669 2484
Q 3125 2378 3379 2068
Q 3634 1759 3634 1313
Q 3634 634 3220 271
Q 2806 -91 2034 -91
Q 1263 -91 848 271
Q 434 634 434 1313
Q 434 1759 690 2068
Q 947 2378 1403 2484
z
M 1172 3481
Q 1172 3119 1398 2916
Q 1625 2713 2034 2713
Q 2441 2713 2670 2916
Q 2900 3119 2900 3481
Q 2900 3844 2670 4047
Q 2441 4250 2034 4250
Q 1625 4250 1398 4047
Q 1172 3844 1172 3481
z
" transform="scale(0.015625)"/>
       </defs>
       <use xlink:href="#DejaVuSans-38" transform="translate(0 0.78125)"/>
       <use xlink:href="#DejaVuSans-Oblique-3c0" transform="translate(63.623047 0.78125)"/>
      </g>
     </g>
    </g>
    <g id="xtick_10">
     <g id="line2d_10">
      <g>
       <use xlink:href="#mde9687eeb6" x="628.413566" y="295.115" style="stroke: #000000; stroke-width: 2"/>
      </g>
     </g>
     <g id="text_10">
      <!-- 9$\pi$ -->
      <g transform="translate(617.253566 322.292187) scale(0.18 -0.18)">
       <defs>
        <path id="DejaVuSans-39" d="M 703 97
L 703 672
Q 941 559 1184 500
Q 1428 441 1663 441
Q 2288 441 2617 861
Q 2947 1281 2994 2138
Q 2813 1869 2534 1725
Q 2256 1581 1919 1581
Q 1219 1581 811 2004
Q 403 2428 403 3163
Q 403 3881 828 4315
Q 1253 4750 1959 4750
Q 2769 4750 3195 4129
Q 3622 3509 3622 2328
Q 3622 1225 3098 567
Q 2575 -91 1691 -91
Q 1453 -91 1209 -44
Q 966 3 703 97
z
M 1959 2075
Q 2384 2075 2632 2365
Q 2881 2656 2881 3163
Q 2881 3666 2632 3958
Q 2384 4250 1959 4250
Q 1534 4250 1286 3958
Q 1038 3666 1038 3163
Q 1038 2656 1286 2365
Q 1534 2075 1959 2075
z
" transform="scale(0.015625)"/>
       </defs>
       <use xlink:href="#DejaVuSans-39" transform="translate(0 0.78125)"/>
       <use xlink:href="#DejaVuSans-Oblique-3c0" transform="translate(63.623047 0.78125)"/>
      </g>
     </g>
    </g>
    <g id="xtick_11">
     <g id="line2d_11">
      <g>
       <use xlink:href="#mde9687eeb6" x="691.492852" y="295.115" style="stroke: #000000; stroke-width: 2"/>
      </g>
     </g>
     <g id="text_11">
      <!-- 10$\pi$ -->
      <g transform="translate(674.572852 322.292187) scale(0.18 -0.18)">
       <use xlink:href="#DejaVuSans-31" transform="translate(0 0.78125)"/>
       <use xlink:href="#DejaVuSans-30" transform="translate(63.623047 0.78125)"/>
       <use xlink:href="#DejaVuSans-Oblique-3c0" transform="translate(127.246094 0.78125)"/>
      </g>
     </g>
    </g>
    <g id="text_12">
     <!-- $\omega \tau$ [rad/s] -->
     <g transform="translate(332.378026 343.165725) scale(0.1728 -0.1728)">
      <defs>
       <path id="DejaVuSans-Oblique-3c9" d="M 1369 -91
Q 72 -91 434 1766
Q 575 2500 1256 3500
L 1875 3500
Q 1231 2500 1088 1750
Q 819 397 1519 397
Q 2166 397 2478 2078
L 3009 2078
Q 2669 388 3316 397
Q 4013 403 4275 1750
Q 4419 2500 4169 3500
L 4788 3500
Q 5075 2500 4934 1766
Q 4578 -94 3278 -91
Q 2428 -88 2503 844
Q 2194 -91 1369 -91
z
" transform="scale(0.015625)"/>
       <path id="DejaVuSans-Oblique-3c4" d="M 2103 638
Q 2188 488 2525 488
L 2800 488
L 2706 0
L 2363 0
Q 1800 0 1600 300
Q 1403 606 1534 1269
L 1856 2925
L 541 2925
L 653 3500
L 3881 3500
L 3769 2925
L 2444 2925
L 2113 1234
Q 2025 781 2103 638
z
" transform="scale(0.015625)"/>
       <path id="DejaVuSans-20" transform="scale(0.015625)"/>
       <path id="DejaVuSans-5b" d="M 550 4863
L 1875 4863
L 1875 4416
L 1125 4416
L 1125 -397
L 1875 -397
L 1875 -844
L 550 -844
L 550 4863
z
" transform="scale(0.015625)"/>
       <path id="DejaVuSans-72" d="M 2631 2963
Q 2534 3019 2420 3045
Q 2306 3072 2169 3072
Q 1681 3072 1420 2755
Q 1159 2438 1159 1844
L 1159 0
L 581 0
L 581 3500
L 1159 3500
L 1159 2956
Q 1341 3275 1631 3429
Q 1922 3584 2338 3584
Q 2397 3584 2469 3576
Q 2541 3569 2628 3553
L 2631 2963
z
" transform="scale(0.015625)"/>
       <path id="DejaVuSans-61" d="M 2194 1759
Q 1497 1759 1228 1600
Q 959 1441 959 1056
Q 959 750 1161 570
Q 1363 391 1709 391
Q 2188 391 2477 730
Q 2766 1069 2766 1631
L 2766 1759
L 2194 1759
z
M 3341 1997
L 3341 0
L 2766 0
L 2766 531
Q 2569 213 2275 61
Q 1981 -91 1556 -91
Q 1019 -91 701 211
Q 384 513 384 1019
Q 384 1609 779 1909
Q 1175 2209 1959 2209
L 2766 2209
L 2766 2266
Q 2766 2663 2505 2880
Q 2244 3097 1772 3097
Q 1472 3097 1187 3025
Q 903 2953 641 2809
L 641 3341
Q 956 3463 1253 3523
Q 1550 3584 1831 3584
Q 2591 3584 2966 3190
Q 3341 2797 3341 1997
z
" transform="scale(0.015625)"/>
       <path id="DejaVuSans-64" d="M 2906 2969
L 2906 4863
L 3481 4863
L 3481 0
L 2906 0
L 2906 525
Q 2725 213 2448 61
Q 2172 -91 1784 -91
Q 1150 -91 751 415
Q 353 922 353 1747
Q 353 2572 751 3078
Q 1150 3584 1784 3584
Q 2172 3584 2448 3432
Q 2725 3281 2906 2969
z
M 947 1747
Q 947 1113 1208 752
Q 1469 391 1925 391
Q 2381 391 2643 752
Q 2906 1113 2906 1747
Q 2906 2381 2643 2742
Q 2381 3103 1925 3103
Q 1469 3103 1208 2742
Q 947 2381 947 1747
z
" transform="scale(0.015625)"/>
       <path id="DejaVuSans-2f" d="M 1625 4666
L 2156 4666
L 531 -594
L 0 -594
L 1625 4666
z
" transform="scale(0.015625)"/>
       <path id="DejaVuSans-73" d="M 2834 3397
L 2834 2853
Q 2591 2978 2328 3040
Q 2066 3103 1784 3103
Q 1356 3103 1142 2972
Q 928 2841 928 2578
Q 928 2378 1081 2264
Q 1234 2150 1697 2047
L 1894 2003
Q 2506 1872 2764 1633
Q 3022 1394 3022 966
Q 3022 478 2636 193
Q 2250 -91 1575 -91
Q 1294 -91 989 -36
Q 684 19 347 128
L 347 722
Q 666 556 975 473
Q 1284 391 1588 391
Q 1994 391 2212 530
Q 2431 669 2431 922
Q 2431 1156 2273 1281
Q 2116 1406 1581 1522
L 1381 1569
Q 847 1681 609 1914
Q 372 2147 372 2553
Q 372 3047 722 3315
Q 1072 3584 1716 3584
Q 2034 3584 2315 3537
Q 2597 3491 2834 3397
z
" transform="scale(0.015625)"/>
       <path id="DejaVuSans-5d" d="M 1947 4863
L 1947 -844
L 622 -844
L 622 -397
L 1369 -397
L 1369 4416
L 622 4416
L 622 4863
L 1947 4863
z
" transform="scale(0.015625)"/>
      </defs>
      <use xlink:href="#DejaVuSans-Oblique-3c9" transform="translate(0 0.015625)"/>
      <use xlink:href="#DejaVuSans-Oblique-3c4" transform="translate(83.740234 0.015625)"/>
      <use xlink:href="#DejaVuSans-20" transform="translate(143.945312 0.015625)"/>
      <use xlink:href="#DejaVuSans-5b" transform="translate(175.732422 0.015625)"/>
      <use xlink:href="#DejaVuSans-72" transform="translate(214.746094 0.015625)"/>
      <use xlink:href="#DejaVuSans-61" transform="translate(255.859375 0.015625)"/>
      <use xlink:href="#DejaVuSans-64" transform="translate(317.138672 0.015625)"/>
      <use xlink:href="#DejaVuSans-2f" transform="translate(380.615234 0.015625)"/>
      <use xlink:href="#DejaVuSans-73" transform="translate(414.306641 0.015625)"/>
      <use xlink:href="#DejaVuSans-5d" transform="translate(466.40625 0.015625)"/>
     </g>
    </g>
   </g>
   <g id="matplotlib.axis_2">
    <g id="ytick_1">
     <g id="line2d_12">
      <defs>
       <path id="m4b3aa1d4fe" d="M 0 0
L -10 0
" style="stroke: #000000; stroke-width: 2"/>
      </defs>
      <g>
       <use xlink:href="#m4b3aa1d4fe" x="60.7" y="256.344744" style="stroke: #000000; stroke-width: 2"/>
      </g>
     </g>
     <g id="text_13">
      <!-- 1 -->
      <g transform="translate(35.7475 263.183338) scale(0.18 -0.18)">
       <use xlink:href="#DejaVuSans-31"/>
      </g>
     </g>
    </g>
    <g id="ytick_2">
     <g id="line2d_13">
      <g>
       <use xlink:href="#m4b3aa1d4fe" x="60.7" y="198.189339" style="stroke: #000000; stroke-width: 2"/>
      </g>
     </g>
     <g id="text_14">
      <!-- 2 -->
      <g transform="translate(35.7475 205.027932) scale(0.18 -0.18)">
       <use xlink:href="#DejaVuSans-32"/>
      </g>
     </g>
    </g>
    <g id="ytick_3">
     <g id="line2d_14">
      <g>
       <use xlink:href="#m4b3aa1d4fe" x="60.7" y="140.033933" style="stroke: #000000; stroke-width: 2"/>
      </g>
     </g>
     <g id="text_15">
      <!-- 3 -->
      <g transform="translate(35.7475 146.872527) scale(0.18 -0.18)">
       <use xlink:href="#DejaVuSans-33"/>
      </g>
     </g>
    </g>
    <g id="ytick_4">
     <g id="line2d_15">
      <g>
       <use xlink:href="#m4b3aa1d4fe" x="60.7" y="81.878528" style="stroke: #000000; stroke-width: 2"/>
      </g>
     </g>
     <g id="text_16">
      <!-- 4 -->
      <g transform="translate(35.7475 88.717121) scale(0.18 -0.18)">
       <use xlink:href="#DejaVuSans-34"/>
      </g>
     </g>
    </g>
    <g id="ytick_5">
     <g id="line2d_16">
      <g>
       <use xlink:href="#m4b3aa1d4fe" x="60.7" y="23.723122" style="stroke: #000000; stroke-width: 2"/>
      </g>
     </g>
     <g id="text_17">
      <!-- 5 -->
      <g transform="translate(35.7475 30.561716) scale(0.18 -0.18)">
       <use xlink:href="#DejaVuSans-35"/>
      </g>
     </g>
    </g>
    <g id="text_18">
     <!-- $|H(i\omega)|$ -->
     <g transform="translate(27.6003 181.7287) rotate(-90) scale(0.1728 -0.1728)">
      <defs>
       <path id="DejaVuSans-7c" d="M 1344 4891
L 1344 -1509
L 813 -1509
L 813 4891
L 1344 4891
z
" transform="scale(0.015625)"/>
       <path id="DejaVuSans-Oblique-48" d="M 1081 4666
L 1716 4666
L 1344 2753
L 3634 2753
L 4006 4666
L 4641 4666
L 3731 0
L 3097 0
L 3531 2222
L 1241 2222
L 806 0
L 172 0
L 1081 4666
z
" transform="scale(0.015625)"/>
       <path id="DejaVuSans-28" d="M 1984 4856
Q 1566 4138 1362 3434
Q 1159 2731 1159 2009
Q 1159 1288 1364 580
Q 1569 -128 1984 -844
L 1484 -844
Q 1016 -109 783 600
Q 550 1309 550 2009
Q 550 2706 781 3412
Q 1013 4119 1484 4856
L 1984 4856
z
" transform="scale(0.015625)"/>
       <path id="DejaVuSans-Oblique-69" d="M 1172 4863
L 1747 4863
L 1606 4134
L 1031 4134
L 1172 4863
z
M 909 3500
L 1484 3500
L 800 0
L 225 0
L 909 3500
z
" transform="scale(0.015625)"/>
       <path id="DejaVuSans-29" d="M 513 4856
L 1013 4856
Q 1481 4119 1714 3412
Q 1947 2706 1947 2009
Q 1947 1309 1714 600
Q 1481 -109 1013 -844
L 513 -844
Q 928 -128 1133 580
Q 1338 1288 1338 2009
Q 1338 2731 1133 3434
Q 928 4138 513 4856
z
" transform="scale(0.015625)"/>
      </defs>
      <use xlink:href="#DejaVuSans-7c" transform="translate(0 0.578125)"/>
      <use xlink:href="#DejaVuSans-Oblique-48" transform="translate(33.691406 0.578125)"/>
      <use xlink:href="#DejaVuSans-28" transform="translate(108.886719 0.578125)"/>
      <use xlink:href="#DejaVuSans-Oblique-69" transform="translate(147.900391 0.578125)"/>
      <use xlink:href="#DejaVuSans-Oblique-3c9" transform="translate(175.683594 0.578125)"/>
      <use xlink:href="#DejaVuSans-29" transform="translate(259.423828 0.578125)"/>
      <use xlink:href="#DejaVuSans-7c" transform="translate(298.4375 0.578125)"/>
     </g>
    </g>
   </g>
   <g id="line2d_17">
    <path d="M 60.7 256.344744
L 691.492852 256.344744
L 691.492852 256.344744
" clip-path="url(#pffff0c698f)" style="fill: none; stroke: #fde725; stroke-width: 1.5; stroke-linecap: square"/>
   </g>
   <g id="line2d_18">
    <path d="M 60.7 266.037312
L 64.358964 265.925474
L 68.017929 265.589052
L 71.613808 265.037101
L 75.209687 264.262005
L 78.805565 263.259469
L 82.401444 262.025703
L 86.060409 260.531327
L 89.782459 258.767424
L 93.693766 256.663612
L 98.046671 254.063118
L 104.481402 249.921116
L 110.032934 246.440764
L 113.2503 244.678595
L 115.899895 243.473537
L 118.234061 242.651737
L 120.378972 242.128702
L 122.397711 241.859589
L 124.41645 241.817327
L 126.435189 242.003528
L 128.517013 242.427297
L 130.661923 243.092509
L 133.059176 244.078089
L 135.771857 245.445989
L 139.115393 247.397895
L 144.414583 250.792452
L 151.480169 255.268532
L 155.833075 257.752811
L 159.744382 259.730309
L 163.466432 261.365107
L 167.125397 262.729842
L 170.721275 263.836655
L 174.317154 264.714165
L 177.913033 265.366604
L 181.571998 265.803674
L 185.230962 266.015194
L 188.889926 266.002858
L 192.548891 265.766564
L 196.207855 265.30443
L 199.803734 264.626935
L 203.399613 263.723882
L 206.995492 262.591093
L 210.591371 261.22577
L 214.250335 259.598572
L 218.035471 257.671167
L 222.136034 255.329119
L 227.119796 252.210583
L 236.834978 246.067373
L 239.926172 244.423365
L 242.512681 243.294576
L 244.783762 242.538981
L 246.928673 242.059205
L 248.947412 241.833509
L 250.966151 241.835659
L 252.98489 242.065571
L 255.066714 242.531966
L 257.27471 243.260803
L 259.671963 244.290161
L 262.447729 245.73166
L 265.917436 247.796918
L 272.289081 251.90862
L 278.156042 255.577671
L 282.382776 257.962022
L 286.230998 259.884262
L 289.953048 261.497309
L 293.612012 262.840416
L 297.207891 263.926154
L 300.80377 264.78295
L 304.399649 265.415069
L 308.058613 265.831805
L 311.717577 266.023212
L 315.376542 265.990828
L 319.035506 265.734388
L 322.694471 265.251859
L 326.29035 264.553968
L 329.886228 263.630121
L 333.482107 262.476199
L 337.077986 261.089624
L 340.736951 259.441154
L 344.585172 257.458571
L 348.748821 255.055481
L 353.92184 251.794112
L 362.627652 246.27859
L 365.781931 244.571687
L 368.368441 243.412913
L 370.702608 242.607199
L 372.847518 242.100826
L 374.866257 241.848478
L 376.884996 241.823404
L 378.903735 242.02656
L 380.985559 242.466903
L 383.193555 243.170846
L 385.590808 244.177306
L 388.303488 245.56359
L 391.71011 247.56931
L 397.387814 251.219999
L 403.948715 255.359364
L 408.238536 257.800267
L 412.149843 259.771944
L 415.871893 261.40089
L 419.530857 262.759802
L 423.126736 263.860939
L 426.722615 264.732868
L 430.318494 265.379833
L 433.977458 265.811426
L 437.636422 266.01753
L 441.295387 265.999796
L 444.954351 265.75808
L 448.613316 265.290458
L 452.209195 264.607475
L 455.805073 263.698827
L 459.400952 262.560351
L 462.996831 261.189306
L 466.655796 259.556374
L 470.440931 257.623373
L 474.541495 255.276112
L 479.588342 252.112762
L 489.051181 246.125341
L 492.142375 244.472461
L 494.728885 243.333586
L 496.999966 242.567359
L 499.144876 242.076353
L 501.163615 241.839419
L 503.182354 241.830106
L 505.201093 242.048766
L 507.282918 242.504221
L 509.490914 243.222619
L 511.888166 244.242393
L 514.663932 245.675376
L 518.13364 247.73395
L 524.252943 251.679483
L 530.30916 255.480022
L 534.59898 257.908268
L 538.510287 259.866594
L 542.232337 261.482154
L 545.891301 262.827756
L 549.48718 263.915925
L 553.083059 264.775109
L 556.678938 265.40957
L 560.337902 265.828652
L 563.996867 266.022379
L 567.655831 265.992308
L 571.314796 265.738193
L 574.97376 265.258019
L 578.569639 264.562483
L 582.165518 263.641037
L 585.761396 262.489555
L 589.357275 261.105432
L 593.01624 259.459413
L 596.864461 257.47925
L 601.02811 255.078381
L 606.201129 251.81866
L 614.906941 246.300608
L 618.06122 244.590443
L 620.64773 243.427978
L 622.981897 242.618228
L 625.126807 242.10768
L 627.145546 241.851135
L 629.164285 241.821764
L 631.183024 242.020685
L 633.264849 242.456893
L 635.472844 243.156873
L 637.870097 244.159675
L 640.582777 245.542748
L 643.989399 247.54587
L 649.604017 251.154261
L 656.228005 255.336683
L 660.517825 257.779944
L 664.429132 259.754117
L 668.151182 261.385571
L 671.810146 262.746979
L 675.406025 263.850549
L 679.001904 264.724869
L 682.597783 265.374179
L 686.256747 265.80812
L 689.915712 266.016545
L 691.492852 266.037312
L 691.492852 266.037312
" clip-path="url(#pffff0c698f)" style="fill: none; stroke: #5cc863; stroke-width: 1.5; stroke-linecap: square"/>
   </g>
   <g id="line2d_19">
    <path d="M 60.7 272.960574
L 63.917365 272.851545
L 67.134731 272.522107
L 70.28901 271.978294
L 73.380204 271.222179
L 76.408313 270.252352
L 79.31025 269.09224
L 82.149102 267.718046
L 84.861782 266.16113
L 87.511377 264.385773
L 90.097887 262.383638
L 92.62131 260.146789
L 95.081649 257.668926
L 97.541987 254.871143
L 100.002325 251.729616
L 102.525749 248.133705
L 105.112258 244.055783
L 108.014195 239.055125
L 112.8087 230.249698
L 115.773723 225.056681
L 117.666291 222.177259
L 119.180345 220.270288
L 120.442057 219.025338
L 121.577598 218.214869
L 122.586967 217.763741
L 123.533251 217.582558
L 124.41645 217.628648
L 125.362734 217.907465
L 126.309017 218.416985
L 127.381473 219.258034
L 128.580099 220.500205
L 129.967982 222.282897
L 131.608207 224.769279
L 133.816203 228.557059
L 143.783727 246.212779
L 146.433322 250.176694
L 148.956746 253.561207
L 151.480169 256.575463
L 154.003593 259.24247
L 156.527017 261.590151
L 159.113526 263.695163
L 161.763121 265.565595
L 164.475802 267.210307
L 167.251568 268.637885
L 170.153505 269.880352
L 173.118528 270.90943
L 176.209722 271.744629
L 179.364002 272.364251
L 182.581367 272.767619
L 185.798732 272.948762
L 189.079183 272.908685
L 192.296548 272.648067
L 195.513914 272.162633
L 198.668193 271.458287
L 201.696302 270.555449
L 204.661325 269.438903
L 207.500177 268.134371
L 210.275943 266.613513
L 212.925538 264.911519
L 215.512047 262.98874
L 218.035471 260.837458
L 220.495809 258.451198
L 222.956147 255.752923
L 225.416485 252.71758
L 227.876823 249.326038
L 230.463333 245.370259
L 233.239099 240.707057
L 236.834978 234.190729
L 241.503312 225.767819
L 243.458965 222.695981
L 245.036105 220.61814
L 246.360902 219.23519
L 247.496443 218.359954
L 248.505812 217.847111
L 249.452096 217.605973
L 250.39838 217.602787
L 251.344664 217.83763
L 252.290948 218.304844
L 253.363403 219.101136
L 254.498944 220.228075
L 255.823741 221.865809
L 257.400881 224.184898
L 259.41962 227.570669
L 262.826242 233.7932
L 267.305319 241.866459
L 270.207257 246.627934
L 272.856852 250.549936
L 275.380275 253.894771
L 277.903699 256.871354
L 280.427123 259.50348
L 282.950547 261.819309
L 285.537056 263.894741
L 288.186651 265.737839
L 290.899331 267.35732
L 293.738183 268.790699
L 296.64012 270.005771
L 299.605143 271.009243
L 302.696337 271.819758
L 305.850617 272.415767
L 309.067982 272.796158
L 312.285348 272.954943
L 315.565799 272.892203
L 318.783164 272.609002
L 321.937444 272.112346
L 325.028638 271.405184
L 328.056746 270.486948
L 331.021769 269.354004
L 333.860621 268.032236
L 336.636387 266.492763
L 339.285982 264.771083
L 341.872491 262.827013
L 344.395915 260.652769
L 346.856253 258.24191
L 349.316591 255.516877
L 351.776929 252.452905
L 354.237268 249.031626
L 356.823777 245.04507
L 359.662629 240.242004
L 363.447764 233.34868
L 367.611413 225.852635
L 369.630152 222.677758
L 371.207292 220.603291
L 372.53209 219.223822
L 373.66763 218.351963
L 374.677 217.84235
L 375.623284 217.604359
L 376.569568 217.604359
L 377.515852 217.84235
L 378.462136 218.312599
L 379.534591 219.112109
L 380.670131 220.242114
L 381.994929 221.882893
L 383.572069 224.204792
L 385.653893 227.704096
L 389.186686 234.167353
L 393.476507 241.888129
L 396.378444 246.647601
L 399.028039 250.567604
L 401.551463 253.910553
L 404.074887 256.885349
L 406.59831 259.515822
L 409.121734 261.830142
L 411.708243 263.904173
L 414.357838 265.745976
L 417.070519 267.364263
L 419.909371 268.796511
L 422.811308 270.010536
L 425.776331 271.013028
L 428.867525 271.822597
L 432.021805 272.4177
L 435.23917 272.79721
L 438.456535 272.955136
L 441.736986 272.891524
L 444.954351 272.607453
L 448.108631 272.109912
L 451.199825 271.401832
L 454.227934 270.482631
L 457.192957 269.348659
L 460.031808 268.02581
L 462.807574 266.485169
L 465.457169 264.762253
L 468.043679 262.816847
L 470.567102 260.641162
L 473.027441 258.22876
L 475.487779 255.502048
L 477.948117 252.436283
L 480.408455 249.013143
L 482.994964 245.024669
L 485.833816 240.219781
L 489.618952 233.325282
L 493.782601 225.83141
L 495.738254 222.750789
L 497.315394 220.662869
L 498.640192 219.269509
L 499.775732 218.384161
L 500.785102 217.861643
L 501.731386 217.61107
L 502.67767 217.598326
L 503.623953 217.823719
L 504.570237 218.281816
L 505.579607 219.014656
L 506.715148 220.116915
L 508.039945 221.730082
L 509.617085 224.026431
L 511.635824 227.393345
L 514.916275 233.372079
L 519.584609 241.801401
L 522.486546 246.568877
L 525.136141 250.496874
L 527.659565 253.847369
L 530.182988 256.829317
L 532.706412 259.466408
L 535.229836 261.786767
L 537.816345 263.866406
L 540.46594 265.713391
L 543.178621 267.336462
L 546.017472 268.773232
L 548.91941 269.99145
L 551.884433 270.997865
L 554.975627 271.811219
L 558.129906 272.409945
L 561.347272 272.792983
L 564.564637 272.954346
L 567.845088 272.894221
L 571.062453 272.613629
L 574.216733 272.119628
L 577.307927 271.415216
L 580.336035 270.499873
L 583.301058 269.370011
L 586.13991 268.051484
L 588.915676 266.515512
L 591.565271 264.797535
L 594.15178 262.85747
L 596.675204 260.687545
L 599.135542 258.281313
L 601.595881 255.561309
L 604.056219 252.502715
L 606.516557 249.087015
L 609.103066 245.106219
L 611.941918 240.308628
L 615.663968 233.535862
L 619.953788 225.810198
L 621.909442 222.732496
L 623.486582 220.647929
L 624.811379 219.258034
L 625.94692 218.376053
L 626.956289 217.856757
L 627.902573 217.609329
L 628.848857 217.59977
L 629.795141 217.828314
L 630.741425 218.289452
L 631.750794 219.025338
L 632.886335 220.130698
L 634.211132 221.746956
L 635.788272 224.046172
L 637.807011 227.415474
L 641.150548 233.512466
L 645.755796 241.823095
L 648.657733 246.588572
L 651.307328 250.514571
L 653.830752 253.863179
L 656.354176 256.843338
L 658.8776 259.478773
L 661.401023 261.797621
L 663.987533 263.875857
L 666.637128 265.721546
L 669.349808 267.34342
L 672.18866 268.779059
L 675.090597 269.996228
L 678.05562 271.001662
L 681.146814 271.814069
L 684.301094 272.411889
L 687.518459 272.794045
L 690.735824 272.954548
L 691.492852 272.960574
L 691.492852 272.960574
" clip-path="url(#pffff0c698f)" style="fill: none; stroke: #21908d; stroke-width: 1.5; stroke-linecap: square"/>
   </g>
   <g id="line2d_20">
    <path d="M 60.7 278.153021
L 63.917365 278.043396
L 67.134731 277.711371
L 70.28901 277.160675
L 73.317119 276.40762
L 76.219056 275.460522
L 78.994822 274.325102
L 81.644417 273.005429
L 84.167841 271.50479
L 86.565093 269.826519
L 88.89926 267.919404
L 91.107256 265.82799
L 93.252166 263.484919
L 95.270905 260.952981
L 97.226559 258.147734
L 99.119127 255.047833
L 100.948609 251.631419
L 102.778091 247.733951
L 104.544488 243.440311
L 106.310884 238.54343
L 108.014195 233.167652
L 109.780592 226.829572
L 111.546989 219.64445
L 113.439556 210.984759
L 115.710638 199.468995
L 119.558859 179.804392
L 120.757485 174.908251
L 121.703769 171.937275
L 122.460796 170.272625
L 123.028567 169.491176
L 123.533251 169.152549
L 123.97485 169.137489
L 124.41645 169.385349
L 124.921134 169.985071
L 125.488905 171.047401
L 126.182846 172.862946
L 127.066045 175.893957
L 128.1385 180.435322
L 129.71564 188.214232
L 135.077915 215.493908
L 137.033568 223.907676
L 138.863051 230.819414
L 140.692533 236.865869
L 142.522015 242.14048
L 144.351497 246.74215
L 146.180979 250.763436
L 148.073547 254.399628
L 150.029201 257.678752
L 152.04794 260.628855
L 154.129764 263.276748
L 156.274674 265.647278
L 158.48267 267.762945
L 160.816837 269.692118
L 163.21409 271.389961
L 165.737514 272.908505
L 168.387108 274.244617
L 171.162875 275.395229
L 174.064812 276.3565
L 177.09292 277.122957
L 180.184114 277.677506
L 183.40148 278.026404
L 186.618845 278.152414
L 189.83621 278.059156
L 193.053576 277.743952
L 196.207855 277.210671
L 199.235964 276.475691
L 202.137901 275.547684
L 204.913667 274.432695
L 207.563262 273.135106
L 210.149772 271.618282
L 212.61011 269.912105
L 214.944277 268.01904
L 217.152272 265.943063
L 219.297183 263.617459
L 221.315922 261.104691
L 223.271575 258.321091
L 225.164143 255.245622
L 226.993625 251.856722
L 228.823107 247.991295
L 230.589504 243.733563
L 232.355901 238.878063
L 234.059212 233.547652
L 235.825608 227.261904
L 237.592005 220.132636
L 239.484573 211.531233
L 241.692568 200.396401
L 245.793132 179.465074
L 246.991758 174.638079
L 247.874957 171.904034
L 248.568898 170.362005
L 249.136668 169.54368
L 249.641353 169.171043
L 250.082952 169.125869
L 250.524551 169.343809
L 250.966151 169.821229
L 251.533921 170.80324
L 252.227863 172.52933
L 253.047975 175.229994
L 254.12043 179.634296
L 255.571399 186.654711
L 261.879958 218.380423
L 263.772526 226.19888
L 265.602008 232.827177
L 267.431491 238.618039
L 269.260973 243.66861
L 271.090455 248.076601
L 272.983023 252.055452
L 274.875591 255.52854
L 276.831244 258.663765
L 278.849983 261.487156
L 280.931808 264.023485
L 283.076718 266.295648
L 285.347799 268.378136
L 287.681966 270.220544
L 290.142304 271.880588
L 292.728814 273.355313
L 295.441494 274.642311
L 298.280346 275.738852
L 301.245369 276.641042
L 304.273477 277.330904
L 307.427757 277.820571
L 310.645122 278.0935
L 313.862488 278.14547
L 317.079853 277.977974
L 320.297218 277.586189
L 323.388412 276.987918
L 326.416521 276.174968
L 329.318458 275.164384
L 332.094224 273.960786
L 334.743819 272.567203
L 337.267243 270.985931
L 339.664495 269.219385
L 341.935577 267.270983
L 344.143573 265.078955
L 346.225397 262.699226
L 348.244136 260.053233
L 350.19979 257.119039
L 352.092357 253.873466
L 353.92184 250.292901
L 355.688236 246.354574
L 357.454633 241.867898
L 359.221029 236.748933
L 360.92434 231.130506
L 362.690737 224.514383
L 364.520219 216.753121
L 366.475873 207.451021
L 369.188553 193.321986
L 371.648891 180.84253
L 372.910603 175.511259
L 373.856887 172.385491
L 374.613914 170.574696
L 375.24477 169.599535
L 375.749455 169.192969
L 376.191054 169.11769
L 376.632653 169.305662
L 377.074252 169.753748
L 377.642023 170.699723
L 378.272879 172.209588
L 379.092991 174.817612
L 380.102361 178.85228
L 381.490244 185.437397
L 384.392181 200.660695
L 386.915605 213.269608
L 388.871259 221.944169
L 390.700741 229.0951
L 392.530223 235.359953
L 394.359705 240.827207
L 396.189187 245.595908
L 398.01867 249.760912
L 399.911237 253.524431
L 401.866891 256.915792
L 403.88563 259.964588
L 405.967454 262.699226
L 408.112365 265.146084
L 410.32036 267.329085
L 412.654527 269.319416
L 415.05178 271.07144
L 417.575204 272.63947
L 420.224799 274.020935
L 423.000565 275.213376
L 425.902502 276.213593
L 428.867525 277.0024
L 431.958719 277.596088
L 435.112999 277.977974
L 438.330364 278.14547
L 441.547729 278.0935
L 444.765095 277.820571
L 447.919374 277.330904
L 451.010568 276.624256
L 453.975591 275.717053
L 456.814443 274.61515
L 459.527123 273.322354
L 462.113633 271.84131
L 464.573971 270.174349
L 466.908138 268.324351
L 469.116134 266.295648
L 471.261044 264.023485
L 473.342868 261.487156
L 475.298522 258.758006
L 477.19109 255.743962
L 479.083658 252.301848
L 480.91314 248.4996
L 482.679536 244.312687
L 484.445933 239.538854
L 486.21233 234.090918
L 487.978726 227.880207
L 489.745123 220.831392
L 491.637691 212.314792
L 493.782601 201.583096
L 498.261678 178.797186
L 499.397219 174.329572
L 500.280417 171.676385
L 500.974359 170.207685
L 501.542129 169.454004
L 502.046814 169.140932
L 502.488413 169.148462
L 502.930012 169.418727
L 503.434697 170.043357
L 504.002467 171.132214
L 504.696409 172.97718
L 505.579607 176.039684
L 506.715148 180.901052
L 508.355373 189.067336
L 513.339135 214.506467
L 515.294788 223.037224
L 517.124271 230.055467
L 518.953753 236.198833
L 520.783235 241.558777
L 522.612717 246.234372
L 524.442199 250.319245
L 526.334767 254.011772
L 528.290421 257.340563
L 530.30916 260.334354
L 532.390984 263.020661
L 534.535894 265.425008
L 536.74389 267.570523
L 539.078057 269.526822
L 541.47531 271.248711
L 543.998733 272.789231
L 546.648328 274.145498
L 549.424095 275.314714
L 552.326032 276.293322
L 555.35414 277.076147
L 558.445334 277.646111
L 561.599614 278.005188
L 564.816979 278.150194
L 568.034345 278.075868
L 571.25171 277.780078
L 574.40599 277.266853
L 577.434098 276.552648
L 580.399121 275.624266
L 583.237973 274.499688
L 585.950653 273.182347
L 588.537163 271.674531
L 590.997501 269.978234
L 593.331668 268.096027
L 595.539664 266.031975
L 597.684574 263.719858
L 599.766398 261.138247
L 601.722052 258.35943
L 603.61462 255.28936
L 605.444102 251.90654
L 607.273584 248.048192
L 609.039981 243.798394
L 610.806377 238.95204
L 612.509688 233.631663
L 614.276085 227.357502
L 616.042481 220.240629
L 617.935049 211.652229
L 620.143045 200.528588
L 624.306694 179.296737
L 625.505321 174.50497
L 626.388519 171.805389
L 627.08246 170.294671
L 627.650231 169.503988
L 628.154915 169.15685
L 628.596515 169.134262
L 629.038114 169.374647
L 629.542799 169.966049
L 630.110569 171.019508
L 630.80451 172.825203
L 631.624623 175.606119
L 632.697078 180.089787
L 634.211132 187.496737
L 639.951921 216.582659
L 641.844489 224.614881
L 643.673972 231.439586
L 645.503454 237.407217
L 647.332936 242.612584
L 649.162418 247.154334
L 651.054986 251.251796
L 652.947554 254.826204
L 654.903207 258.050836
L 656.921946 260.952981
L 659.003771 263.558676
L 661.148681 265.892026
L 663.419762 268.030065
L 665.753929 269.921575
L 668.214267 271.626338
L 670.737691 273.107983
L 673.387286 274.4102
L 676.163052 275.529472
L 679.06499 276.461485
L 682.093098 277.20026
L 685.247378 277.737199
L 688.464743 278.05594
L 691.492852 278.153021
L 691.492852 278.153021
" clip-path="url(#pffff0c698f)" style="fill: none; stroke: #3b518b; stroke-width: 1.5; stroke-linecap: square"/>
   </g>
   <g id="line2d_21">
    <path d="M 60.7 282.191591
L 64.043536 282.080674
L 67.323987 281.752619
L 70.541353 281.209351
L 73.632547 280.463971
L 76.59757 279.520996
L 79.373336 278.409597
L 82.022931 277.112204
L 84.546354 275.627453
L 86.880521 274.000971
L 89.088517 272.199119
L 91.233427 270.158975
L 93.252166 267.928858
L 95.144734 265.512495
L 96.974216 262.818324
L 98.740613 259.815515
L 100.443924 256.468588
L 102.084149 252.736856
L 103.661289 248.573843
L 105.175344 243.926748
L 106.626312 238.736028
L 108.014195 232.935251
L 109.338993 226.45144
L 110.66379 218.812188
L 111.925502 210.187709
L 113.124128 200.458841
L 114.322755 188.843698
L 115.458295 175.655933
L 116.593836 159.825015
L 117.729377 140.791062
L 118.928003 116.736784
L 120.378972 82.598028
L 122.145368 41.246053
L 122.83931 29.892545
L 123.280909 25.498079
L 123.596337 23.964223
L 123.785594 23.723409
L 123.911765 23.849625
L 124.101022 24.466841
L 124.41645 26.607508
L 124.858049 31.76791
L 125.425819 41.493184
L 126.309017 61.128163
L 129.27404 130.171155
L 130.535752 153.040377
L 131.734379 170.870197
L 132.933005 185.555065
L 134.194717 198.300798
L 135.456429 208.856492
L 136.781226 218.094535
L 138.169109 226.183243
L 139.556992 232.992229
L 141.007961 239.027305
L 142.522015 244.382985
L 144.099155 249.142371
L 145.73938 253.377801
L 147.442691 257.151838
L 149.209088 260.518379
L 151.03857 263.523732
L 152.931138 266.207616
L 154.886791 268.604045
L 156.968616 270.804031
L 159.113526 272.753246
L 161.384608 274.521427
L 163.78186 276.108417
L 166.305284 277.514914
L 169.017964 278.768045
L 171.856816 279.831043
L 174.821839 280.703774
L 177.913033 281.383546
L 181.130398 281.864247
L 184.410849 282.132225
L 187.754386 282.18365
L 191.097922 282.012969
L 194.378373 281.624023
L 197.595738 281.016796
L 200.623847 280.222816
L 203.525784 279.236264
L 206.30155 278.058052
L 208.88806 276.722634
L 211.348398 275.205074
L 213.682565 273.504214
L 215.890561 271.619331
L 217.972385 269.551005
L 219.991124 267.22402
L 221.883692 264.699052
L 223.713174 261.878897
L 225.416485 258.849916
L 227.056711 255.489476
L 228.63385 251.761524
L 230.147905 247.625724
L 231.661959 242.821933
L 233.112928 237.445419
L 234.500811 231.423927
L 235.825608 224.677698
L 237.08732 217.120727
L 238.349032 208.178372
L 239.547658 198.069123
L 240.746284 185.974717
L 241.881825 172.21883
L 243.017366 155.6905
L 244.152907 135.834355
L 245.351533 110.8633
L 246.991758 71.32357
L 248.316556 41.000154
L 249.010497 29.733128
L 249.452096 25.41012
L 249.767524 23.932149
L 249.956781 23.725705
L 250.082952 23.874848
L 250.272209 24.526069
L 250.587637 26.721084
L 251.029236 31.94919
L 251.597007 41.741535
L 252.480205 61.432175
L 255.382142 129.161064
L 256.643854 152.210687
L 257.84248 170.187552
L 259.041107 184.99163
L 260.302819 197.836573
L 261.56453 208.470031
L 262.889328 217.772104
L 264.214125 225.573629
L 265.602008 232.476399
L 267.052977 238.589482
L 268.567031 244.010187
L 270.144171 248.823948
L 271.784397 253.105021
L 273.487708 256.917537
L 275.254104 260.316667
L 277.083586 263.349756
L 278.976154 266.057367
L 280.931808 268.474204
L 283.013632 270.692345
L 285.158542 272.657267
L 287.429624 274.439496
L 289.826876 276.039068
L 292.3503 277.456879
L 294.999895 278.693867
L 297.838747 279.771685
L 300.80377 280.658068
L 303.894964 281.350629
L 307.112329 281.843565
L 310.39278 282.123332
L 313.736316 282.186473
L 317.079853 282.027605
L 320.360304 281.650738
L 323.577669 281.056241
L 326.668863 280.256757
L 329.5708 279.279366
L 332.346567 278.111176
L 334.933076 276.786561
L 337.393414 275.280991
L 339.727581 273.593502
L 341.935577 271.723569
L 344.017401 269.671969
L 346.03614 267.364331
L 347.928708 264.861086
L 349.75819 262.066168
L 351.524587 258.945984
L 353.164812 255.600218
L 354.741952 251.889378
L 356.256007 247.773586
L 357.770061 242.994371
L 359.221029 237.647034
L 360.608913 231.660246
L 361.93371 224.95533
L 363.195422 217.447508
L 364.457134 208.566904
L 365.65576 198.531602
L 366.854386 186.530391
L 367.989927 172.884919
L 369.125468 156.491829
L 370.261008 136.794157
L 371.459635 111.99677
L 373.036774 74.14016
L 374.487743 40.7555
L 375.181685 29.5756
L 375.623284 25.324339
L 375.938712 23.902357
L 376.127969 23.730298
L 376.25414 23.902357
L 376.443397 24.587535
L 376.758825 26.836748
L 377.200424 32.132223
L 377.768194 41.991093
L 378.651392 61.736592
L 381.55333 129.414287
L 382.815042 152.418745
L 384.013668 170.358738
L 385.212294 185.132909
L 386.474006 197.952958
L 387.735718 208.566904
L 389.060515 217.852914
L 390.448398 225.980993
L 391.836281 232.821044
L 393.28725 238.881969
L 394.801304 244.259203
L 396.378444 249.03662
L 398.01867 253.28719
L 399.721981 257.073995
L 401.488377 260.451352
L 403.317859 263.465914
L 405.210427 266.157677
L 407.166081 268.560885
L 409.247905 270.766903
L 411.392815 272.721338
L 413.663897 274.494188
L 416.061149 276.085361
L 418.584573 277.495621
L 421.234168 278.725778
L 424.07302 279.79723
L 427.038043 280.677751
L 430.129237 281.364822
L 433.346602 281.852508
L 436.627053 282.127219
L 439.970589 282.185339
L 443.314126 282.02141
L 446.594577 281.639371
L 449.811942 281.039425
L 452.903136 280.234167
L 455.805073 279.250674
L 458.58084 278.075809
L 461.167349 276.744
L 463.627687 275.230446
L 465.961854 273.534055
L 468.16985 271.65417
L 470.251674 269.591437
L 472.270413 267.270923
L 474.162981 264.753222
L 475.992463 261.941512
L 477.75886 258.801728
L 479.399085 255.433918
L 480.976225 251.69737
L 482.49028 247.551516
L 484.004334 242.735371
L 485.455302 237.344187
L 486.843186 231.305239
L 488.167983 224.538221
L 489.429695 216.956511
L 490.691407 207.983062
L 491.890033 197.836573
L 493.088659 185.695226
L 494.2242 171.883738
L 495.359741 155.287364
L 496.495281 135.351674
L 497.693908 110.294029
L 499.334133 70.698829
L 500.658931 40.512104
L 501.352872 29.419973
L 501.794471 25.240742
L 502.109899 23.874848
L 502.299156 23.737186
L 502.425327 23.932149
L 502.67767 25.003108
L 502.993098 27.574132
L 503.434697 33.266567
L 504.065553 44.812335
L 505.074922 68.206093
L 507.409089 123.20832
L 508.670801 147.306762
L 509.869427 166.151743
L 511.068054 181.663314
L 512.329765 195.097893
L 513.591477 206.193398
L 514.916275 215.875494
L 516.241072 223.975866
L 517.628955 231.126541
L 519.079924 237.445419
L 520.593978 243.037339
L 522.108032 247.810436
L 523.685172 252.080033
L 525.325398 255.902217
L 527.028709 259.326188
L 528.795105 262.394887
L 530.687673 265.233677
L 532.643327 267.763066
L 534.662066 270.015897
L 536.806976 272.076282
L 539.078057 273.943677
L 541.412224 275.578737
L 543.935648 277.07139
L 546.585243 278.375896
L 549.361009 279.493753
L 552.262946 280.425015
L 555.35414 281.180732
L 558.571506 281.733814
L 561.851956 282.071245
L 565.195493 282.1914
L 568.539029 282.089714
L 571.81948 281.771016
L 575.036846 281.237528
L 578.12804 280.502439
L 581.093063 279.570515
L 583.931914 278.443111
L 586.581509 277.1528
L 589.104933 275.675913
L 591.502186 274.010491
L 593.710181 272.210227
L 595.855091 270.171911
L 597.87383 267.943846
L 599.766398 265.529778
L 601.595881 262.838265
L 603.362277 259.838547
L 605.065588 256.495231
L 606.705814 252.767733
L 608.282953 248.609704
L 609.797008 243.968494
L 611.247976 238.784742
L 612.635859 232.992229
L 613.960657 226.518227
L 615.285454 218.891266
L 616.547166 210.281541
L 617.745793 200.570312
L 618.944419 188.977382
L 620.079959 175.815966
L 621.2155 160.017481
L 622.351041 141.022052
L 623.549667 117.011639
L 625.000636 82.910399
L 626.830118 40.269977
L 627.52406 29.266256
L 627.965659 25.159334
L 628.281087 23.849625
L 628.470343 23.74637
L 628.6596 24.158728
L 628.911943 25.498079
L 629.290456 29.114458
L 629.795141 36.578809
L 630.489082 50.540155
L 631.876966 84.158628
L 633.580277 123.472244
L 634.841988 147.52476
L 636.040615 166.331207
L 637.239241 181.811228
L 638.500953 195.219477
L 639.762665 206.294352
L 641.087462 215.959496
L 642.41226 224.046552
L 643.800143 231.186196
L 645.251111 237.495929
L 646.765166 243.08025
L 648.342305 248.030581
L 649.919445 252.269348
L 651.559671 256.065388
L 653.262982 259.467106
L 655.029378 262.516788
L 656.921946 265.338741
L 658.8776 267.853709
L 660.896339 270.094117
L 663.041249 272.143433
L 665.31233 274.000971
L 667.709583 275.667854
L 670.233006 277.146049
L 672.882601 278.437538
L 675.658368 279.543573
L 678.62339 280.481517
L 681.714585 281.222213
L 684.93195 281.761032
L 688.212401 282.084831
L 691.492852 282.191591
L 691.492852 282.191591
" clip-path="url(#pffff0c698f)" style="fill: none; stroke: #440154; stroke-width: 1.5; stroke-linecap: square"/>
   </g>
   <g id="patch_3">
    <path d="M 60.7 295.115
L 60.7 10.8
" style="fill: none; stroke: #000000; stroke-width: 2; stroke-linejoin: miter; stroke-linecap: square"/>
   </g>
   <g id="patch_4">
    <path d="M 691.492852 295.115
L 691.492852 10.8
" style="fill: none; stroke: #000000; stroke-width: 2; stroke-linejoin: miter; stroke-linecap: square"/>
   </g>
   <g id="patch_5">
    <path d="M 60.7 295.115
L 691.492852 295.115
" style="fill: none; stroke: #000000; stroke-width: 2; stroke-linejoin: miter; stroke-linecap: square"/>
   </g>
   <g id="patch_6">
    <path d="M 60.7 10.8
L 691.492852 10.8
" style="fill: none; stroke: #000000; stroke-width: 2; stroke-linejoin: miter; stroke-linecap: square"/>
   </g>
  </g>
  <g id="legend_1">
   <g id="patch_7">
    <path d="M 551 82
L 713 82
Q 715 82 715 80
L 715 7
Q 715 5 713 5
L 551 5
Q 549 5 549 7
L 549 80
Q 549 82 551 82
z
" style="fill: #ffffff; opacity: 0.8; stroke: #cccccc; stroke-linejoin: miter"/>
   </g>
   <g id="line2d_22">
    <path d="M 553 13.2
L 563 13.2
L 573 13.2
" style="fill: none; stroke: #fde725; stroke-width: 1.5; stroke-linecap: square"/>
   </g>
   <g id="text_19">
    <!-- $\beta = 0.0$ -->
    <g transform="translate(581 16.7) scale(0.1 -0.1)">
     <defs>
      <path id="DejaVuSans-Oblique-3b2" d="M 872 216
L 572 -1331
L -6 -1331
L 928 3478
Q 1206 4903 2538 4903
Q 3888 4903 3659 3700
Q 3503 2844 2894 2531
Q 3713 2250 3553 1416
Q 3272 -69 1759 -66
Q 1097 -63 872 216
z
M 1019 966
Q 1259 422 1875 425
Q 2775 425 2966 1406
Q 3138 2288 1675 2219
L 1778 2750
Q 2909 2731 3106 3750
Q 3241 4438 2509 4434
Q 1691 4434 1503 3459
L 1019 966
z
" transform="scale(0.015625)"/>
      <path id="DejaVuSans-3d" d="M 678 2906
L 4684 2906
L 4684 2381
L 678 2381
L 678 2906
z
M 678 1631
L 4684 1631
L 4684 1100
L 678 1100
L 678 1631
z
" transform="scale(0.015625)"/>
      <path id="DejaVuSans-2e" d="M 684 794
L 1344 794
L 1344 0
L 684 0
L 684 794
z
" transform="scale(0.015625)"/>
     </defs>
     <use xlink:href="#DejaVuSans-Oblique-3b2" transform="translate(0 0.390625)"/>
     <use xlink:href="#DejaVuSans-3d" transform="translate(83.300781 0.390625)"/>
     <use xlink:href="#DejaVuSans-30" transform="translate(186.572266 0.390625)"/>
     <use xlink:href="#DejaVuSans-2e" transform="translate(250.195312 0.390625)"/>
     <use xlink:href="#DejaVuSans-30" transform="translate(281.982422 0.390625)"/>
    </g>
   </g>
   <g id="line2d_23">
    <path d="M 553 28
L 563 28
L 573 28
" style="fill: none; stroke: #5cc863; stroke-width: 1.5; stroke-linecap: square"/>
   </g>
   <g id="text_20">
    <!-- $\beta = 0.2$ -->
    <g transform="translate(581 31.5) scale(0.1 -0.1)">
     <use xlink:href="#DejaVuSans-Oblique-3b2" transform="translate(0 0.390625)"/>
     <use xlink:href="#DejaVuSans-3d" transform="translate(83.300781 0.390625)"/>
     <use xlink:href="#DejaVuSans-30" transform="translate(186.572266 0.390625)"/>
     <use xlink:href="#DejaVuSans-2e" transform="translate(250.195312 0.390625)"/>
     <use xlink:href="#DejaVuSans-32" transform="translate(276.482422 0.390625)"/>
    </g>
   </g>
   <g id="line2d_24">
    <path d="M 553 42.8
L 563 42.8
L 573 42.8
" style="fill: none; stroke: #21908d; stroke-width: 1.5; stroke-linecap: square"/>
   </g>
   <g id="text_21">
    <!-- $\beta = 0.4$ -->
    <g transform="translate(581 46.3) scale(0.1 -0.1)">
     <use xlink:href="#DejaVuSans-Oblique-3b2" transform="translate(0 0.390625)"/>
     <use xlink:href="#DejaVuSans-3d" transform="translate(83.300781 0.390625)"/>
     <use xlink:href="#DejaVuSans-30" transform="translate(186.572266 0.390625)"/>
     <use xlink:href="#DejaVuSans-2e" transform="translate(250.195312 0.390625)"/>
     <use xlink:href="#DejaVuSans-34" transform="translate(281.982422 0.390625)"/>
    </g>
   </g>
   <g id="line2d_25">
    <path d="M 553 57.6
L 563 57.6
L 573 57.6
" style="fill: none; stroke: #3b518b; stroke-width: 1.5; stroke-linecap: square"/>
   </g>
   <g id="text_22">
    <!-- $\beta = 0.6000000000000001$ -->
    <g transform="translate(581 61.1) scale(0.1 -0.1)">
     <use xlink:href="#DejaVuSans-Oblique-3b2" transform="translate(0 0.390625)"/>
     <use xlink:href="#DejaVuSans-3d" transform="translate(83.300781 0.390625)"/>
     <use xlink:href="#DejaVuSans-30" transform="translate(186.572266 0.390625)"/>
     <use xlink:href="#DejaVuSans-2e" transform="translate(250.195312 0.390625)"/>
     <use xlink:href="#DejaVuSans-36" transform="translate(281.982422 0.390625)"/>
     <use xlink:href="#DejaVuSans-30" transform="translate(345.605469 0.390625)"/>
     <use xlink:href="#DejaVuSans-30" transform="translate(409.228516 0.390625)"/>
     <use xlink:href="#DejaVuSans-30" transform="translate(472.851562 0.390625)"/>
     <use xlink:href="#DejaVuSans-30" transform="translate(536.474609 0.390625)"/>
     <use xlink:href="#DejaVuSans-30" transform="translate(600.097656 0.390625)"/>
     <use xlink:href="#DejaVuSans-30" transform="translate(663.720703 0.390625)"/>
     <use xlink:href="#DejaVuSans-30" transform="translate(727.34375 0.390625)"/>
     <use xlink:href="#DejaVuSans-30" transform="translate(790.966797 0.390625)"/>
     <use xlink:href="#DejaVuSans-30" transform="translate(854.589844 0.390625)"/>
     <use xlink:href="#DejaVuSans-30" transform="translate(918.212891 0.390625)"/>
     <use xlink:href="#DejaVuSans-30" transform="translate(981.835938 0.390625)"/>
     <use xlink:href="#DejaVuSans-30" transform="translate(1045.458984 0.390625)"/>
     <use xlink:href="#DejaVuSans-30" transform="translate(1109.082031 0.390625)"/>
     <use xlink:href="#DejaVuSans-30" transform="translate(1172.705078 0.390625)"/>
     <use xlink:href="#DejaVuSans-31" transform="translate(1236.328125 0.390625)"/>
    </g>
   </g>
   <g id="line2d_26">
    <path d="M 553 72.4
L 563 72.4
L 573 72.4
" style="fill: none; stroke: #440154; stroke-width: 1.5; stroke-linecap: square"/>
   </g>
   <g id="text_23">
    <!-- $\beta = 0.8$ -->
    <g transform="translate(581 75.9) scale(0.1 -0.1)">
     <use xlink:href="#DejaVuSans-Oblique-3b2" transform="translate(0 0.390625)"/>
     <use xlink:href="#DejaVuSans-3d" transform="translate(83.300781 0.390625)"/>
     <use xlink:href="#DejaVuSans-30" transform="translate(186.572266 0.390625)"/>
     <use xlink:href="#DejaVuSans-2e" transform="translate(250.195312 0.390625)"/>
     <use xlink:href="#DejaVuSans-38" transform="translate(279.357422 0.390625)"/>
    </g>
   </g>
  </g>
 </g>
 <defs>
  <clipPath id="pffff0c698f">
   <rect x="60.7" y="10.8" width="630.792852" height="284.315"/>
  </clipPath>
 </defs>
</svg>
